<svg width="106" height="93" viewBox="0 0 106 93" fill="none" xmlns="http://www.w3.org/2000/svg">
<path d="M48.6836 33.1568C48.6836 33.1568 47.332 48.0973 52.9304 47.8722C58.9358 47.6276 57.3204 33.1568 57.3204 33.1568C56.5356 30.8244 56.2229 29.4412 56.5746 26.9946H49.2828C49.6346 29.4412 49.4652 30.8244 48.6836 33.1568Z" fill="#FDBCA0"/>
<path d="M49.4294 29.8845C50.2566 30.1324 51.0904 30.3607 51.9534 30.4325C52.7708 30.501 53.6111 30.4488 54.4252 30.3607C55.1026 30.2857 55.8256 30.165 56.503 29.9399C56.3956 29.0526 56.4118 28.1392 56.5779 26.991H49.2861C49.4457 28.1164 49.4946 29.0168 49.4294 29.8845Z" fill="#F0A38B"/>
<path d="M52.9303 29.0333C55.0113 29.0333 57.0142 28.2113 58.4797 26.7303C60.2253 24.9687 61.5932 23.0049 61.9937 20.6986C62.5083 17.7366 61.5085 14.7778 59.3265 12.3965H46.5308C44.3488 14.7746 43.349 17.7366 43.8635 20.6986C44.2641 23.0049 45.6352 24.9687 47.3775 26.7303C48.8463 28.208 50.8492 29.0333 52.9303 29.0333Z" fill="#FDBCA0"/>
<path d="M53.5655 34.8988C53.3017 35.1891 53.0542 35.5055 52.8197 35.822C52.5363 35.6262 52.3116 35.3881 52.0641 35.1434C52.0413 35.1206 51.9957 35.1434 52.0055 35.176C52.1455 35.561 52.4386 35.8741 52.7383 36.1416C52.8034 36.1971 52.8946 36.2036 52.9597 36.1416C53.2756 35.8317 53.585 35.4696 53.8293 35.0978C53.9335 34.9444 53.6925 34.7585 53.5655 34.8988Z" fill="#DF8370"/>
<path d="M60.6066 34.3278C58.6624 34.4941 56.7441 34.8106 54.852 35.2934C54.738 35.3227 54.7869 35.4956 54.9008 35.4695C56.7832 35.052 58.6851 34.7682 60.6066 34.6377C60.8085 34.6246 60.8053 34.3115 60.6066 34.3278Z" fill="#DF8370"/>
<path d="M45.251 34.3278C47.1953 34.4941 49.1135 34.8106 51.0057 35.2934C51.1197 35.3227 51.0708 35.4956 50.9568 35.4695C49.0744 35.052 47.1725 34.7682 45.251 34.6377C45.0524 34.6246 45.0524 34.3115 45.251 34.3278Z" fill="#DF8370"/>
<path d="M45.5864 7.4707C42.867 9.03 40.9521 11.4864 40.9195 14.7877C40.8869 18.5097 45.4138 24.437 45.3519 24.2902C43.8473 20.6693 43.4532 15.6847 47.2082 13.1892C47.5828 12.9413 48.0517 12.7978 48.3872 12.5074C48.3774 10.5404 47.2929 8.63528 45.5864 7.4707Z" fill="#3F4553"/>
<path d="M60.0069 7.4707C62.7263 9.03 64.6412 11.4864 64.6738 14.7877C64.7064 18.5097 62.482 21.8208 60.2675 24.6328C60.8309 23.4062 62.1368 15.6815 58.3818 13.1892C58.0073 12.9413 57.5383 12.7978 57.2029 12.5074C57.2159 10.5404 58.3037 8.63528 60.0069 7.4707Z" fill="#424495"/>
<path d="M99.0523 5.50036C96.9746 4.46627 94.5483 4.24444 92.2881 4.7044C91.1939 4.92623 90.1582 5.31442 89.1714 5.83962C88.5168 6.18541 87.8525 6.68125 87.0904 6.73997C86.1655 6.80848 85.3545 6.20498 84.6674 5.66999C82.531 4.00631 80.3587 2.54814 77.61 2.14689C76.2813 1.95117 74.7962 2.0947 73.7671 2.91023C72.7119 1.51404 71.1389 0.519093 69.4063 0.153734C67.1136 -0.329061 64.9349 0.359248 63.1339 1.74239C62.1178 1.24328 60.3396 0.525617 60.1149 0.463636C53.3409 -1.4023 44.0918 3.33105 45.2903 11.3135C46.3194 18.1737 54.9921 21.3445 61.0007 19.9353C62.2969 22.3917 65.4038 22.9625 67.7975 21.6838C67.9799 21.824 68.1623 21.9643 68.3479 22.1013C72.168 24.9068 76.6135 26.7303 81.4139 25.9017C83.2377 25.5853 84.9442 24.9263 86.5139 23.9803C88.0055 25.1025 89.9693 25.4581 91.7768 24.5903C93.1218 23.9477 94.024 22.7603 94.3464 21.4163C94.3692 21.4163 94.392 21.4163 94.4148 21.4163C98.4075 21.3673 102.641 19.3807 103.661 15.1889C104.589 11.3787 102.524 7.22603 99.0523 5.50036Z" fill="#4E5567"/>
<path d="M80.8992 4.25743C82.2116 5.33067 82.99 6.80189 82.1725 8.42317C81.5082 9.74434 80.313 10.7067 79.4434 11.8778C78.4241 13.2479 78.2482 15.0062 79.9189 16.0076C81.5635 16.9928 83.6251 15.7662 84.9961 14.8365C86.6896 13.685 88.5069 10.3544 89.9659 8.92554C96.4468 2.5807 102.882 9.36267 102.908 9.3855C102.068 7.73486 100.726 6.33541 99.0522 5.50031C96.9744 4.46621 94.5481 4.24439 92.2879 4.70435C91.1937 4.92617 90.158 5.31436 89.1713 5.83957C88.5166 6.18535 87.8523 6.6812 87.0902 6.73991C86.1653 6.80842 85.3544 6.20493 84.6672 5.66994C82.5308 4.00625 80.3586 2.54808 77.6099 2.14684C76.3104 1.95763 74.8612 2.09464 73.8353 2.8645C76.0727 1.99352 79.1047 2.78621 80.8992 4.25743Z" fill="#3F4553"/>
<path d="M98.1597 20.3399C96.5737 20.5258 95.0886 20.4377 93.6296 19.7886C93.001 21.4229 91.7146 23.0735 89.8974 23.3312C88.6761 23.5041 87.2334 23.1225 86.9826 21.8274C78.3979 28.8279 68.7742 21.0184 67.8461 19.5537C65.169 21.3022 61.7951 19.1688 60.7953 16.4384C58.7565 17.2311 56.4052 16.9864 54.4251 16.135C50.7352 14.5528 48.69 10.1914 49.9797 6.34207C51.0544 3.14192 53.917 0.953032 57.0891 0.0624713C50.9046 0.0265879 44.2641 4.47613 45.29 11.3136C46.3191 18.1738 54.9885 21.3446 61.0004 19.9354C62.2966 22.3917 65.4035 22.9626 67.7972 21.6839C67.9796 21.8241 68.162 21.9644 68.3476 22.1014C72.1678 24.9068 76.6132 26.7304 81.4136 25.9018C83.2374 25.5854 84.9439 24.9264 86.5136 23.9804C88.0052 25.1026 89.969 25.4581 91.7765 24.5904C93.1215 23.9478 94.0237 22.7604 94.3461 21.4164C94.3689 21.4164 94.3917 21.4164 94.4145 21.4164C96.3196 21.3935 98.2769 20.927 99.9183 19.9941C99.3419 20.167 98.7427 20.2714 98.1597 20.3399Z" fill="#3F4553"/>
<path d="M50.644 22.4472C49.5042 22.6364 47.6511 22.6984 46.5992 21.5697C46.3907 21.3446 46.1074 21.599 46.3679 21.8241C46.4103 21.86 46.4526 21.8926 46.4949 21.9252C46.3712 21.9611 46.2409 21.9774 46.1041 21.9676C46.1009 21.9676 46.1009 21.9709 46.1041 21.9742C46.2702 22.0296 46.4396 22.0459 46.6057 22.0133C46.6089 22.0166 46.6122 22.0198 46.6154 22.0198C46.4721 22.1144 46.2995 22.1536 46.1302 22.209C46.1269 22.209 46.1269 22.2123 46.1302 22.2156C46.3386 22.2351 46.5568 22.209 46.7294 22.0981C46.749 22.1112 46.7685 22.1177 46.788 22.1307C46.6578 22.2319 46.5112 22.3069 46.3451 22.346C46.3288 22.3493 46.3321 22.3754 46.3484 22.3754C46.5601 22.3852 46.762 22.333 46.9313 22.2156C46.9672 22.2351 47.0062 22.2514 47.0421 22.271C46.9216 22.3591 46.7978 22.4374 46.6578 22.5026C46.6447 22.5092 46.6513 22.532 46.6643 22.532C46.8499 22.5385 47.0128 22.4439 47.1593 22.333C47.2049 22.3558 47.2505 22.3721 47.2993 22.3917C47.2375 22.4537 47.1658 22.5124 47.0974 22.5711C47.0877 22.5809 47.0974 22.594 47.1105 22.594C47.2277 22.5646 47.3352 22.5157 47.4264 22.4472C48.4718 22.8778 49.6963 22.8908 50.745 22.5124C50.8557 22.4667 50.771 22.4276 50.644 22.4472Z" fill="#3F4553"/>
<path d="M55.3239 22.4472C56.4638 22.6364 58.3168 22.6984 59.3688 21.5697C59.5772 21.3446 59.8605 21.599 59.6 21.8241C59.5577 21.86 59.5153 21.8926 59.473 21.9252C59.6 21.9611 59.727 21.9774 59.8638 21.9676C59.867 21.9676 59.867 21.9709 59.8638 21.9742C59.6977 22.0296 59.5283 22.0459 59.3622 22.0133C59.359 22.0166 59.3557 22.0198 59.3525 22.0198C59.4958 22.1144 59.6684 22.1536 59.8377 22.209C59.841 22.209 59.841 22.2123 59.8377 22.2156C59.6293 22.2351 59.4111 22.209 59.2385 22.0981C59.219 22.1112 59.1994 22.1177 59.1799 22.1307C59.3101 22.2319 59.4567 22.3069 59.6228 22.346C59.6391 22.3493 59.6358 22.3754 59.6195 22.3754C59.4078 22.3852 59.2059 22.333 59.0366 22.2156C59.0008 22.2351 58.9617 22.2514 58.9258 22.271C59.0463 22.3591 59.1701 22.4374 59.3101 22.5026C59.3232 22.5092 59.3167 22.532 59.3036 22.532C59.118 22.5385 58.9552 22.4439 58.8086 22.333C58.763 22.3558 58.7174 22.3721 58.6718 22.3917C58.7337 22.4537 58.8053 22.5124 58.8737 22.5711C58.8835 22.5809 58.8737 22.594 58.8607 22.594C58.7435 22.5646 58.636 22.5157 58.5448 22.4472C57.4994 22.8778 56.2749 22.8908 55.2229 22.5124C55.1155 22.4667 55.1969 22.4276 55.3239 22.4472Z" fill="#3F4553"/>
<path d="M53.7021 24.8254C53.168 25.1027 52.6371 25.2136 52.0867 24.8809C52.0477 24.858 52.0021 24.9135 52.0379 24.9461C52.5101 25.3669 53.3503 25.4746 53.8226 24.982C53.9007 24.8972 53.803 24.7732 53.7021 24.8254Z" fill="#3F4553"/>
<path d="M54.9233 26.7497C54.2556 26.9487 53.5978 27.0237 52.9464 26.9944C52.2951 27.0237 51.6372 26.9487 50.9696 26.7497C50.9533 26.7432 50.9403 26.7726 50.9566 26.7791C51.5982 27.0531 52.2723 27.1999 52.9464 27.2162C53.6206 27.1999 54.2947 27.0531 54.9363 26.7791C54.9526 26.7726 54.9396 26.7465 54.9233 26.7497Z" fill="#3F4553"/>
<path d="M49.885 24.0457C49.8296 24.0196 49.771 23.9967 49.7124 23.9804C48.9666 23.788 48.084 23.4226 47.3057 23.5564C46.7553 23.651 46.6283 24.3197 46.9409 24.7144C47.2764 25.1385 47.9342 25.2592 48.4423 25.2983C48.9536 25.3375 49.7547 25.3929 50.1358 24.9917C50.481 24.6296 50.2465 24.2218 49.885 24.0457Z" fill="#FBAD8B"/>
<path d="M55.9814 24.0457C56.0368 24.0196 56.0954 23.9967 56.154 23.9804C56.8998 23.788 57.7824 23.4226 58.5607 23.5564C59.1111 23.651 59.2381 24.3197 58.9255 24.7144C58.59 25.1385 57.9322 25.2592 57.4241 25.2983C56.9128 25.3375 56.1117 25.3929 55.7306 24.9917C55.3854 24.6296 55.6232 24.2218 55.9814 24.0457Z" fill="#FBAD8B"/>
<path d="M43.0951 19.1621C42.3233 19.0479 41.4961 19.3676 41.6361 20.2842C41.7468 21.015 42.5317 21.7424 43.7302 21.5238C43.4045 20.767 43.1798 19.9711 43.0951 19.1621Z" fill="#F9CDB9"/>
<path d="M42.3492 19.8799C42.5609 19.7038 42.8898 19.6255 43.1732 19.6712C43.1569 19.5831 43.1471 19.4918 43.1341 19.4037C42.7465 19.3678 42.2906 19.5276 42.0691 19.8082C41.7239 20.2486 41.9845 20.7379 42.3655 21.038C42.4209 21.0837 42.499 21.0119 42.4469 20.9564C42.1701 20.6629 41.978 20.1898 42.3492 19.8799Z" fill="#F8C4AB"/>
<path d="M43.3263 20.369C43.1244 20.1864 42.8606 20.0852 42.5578 20.0983C42.4894 20.1016 42.4633 20.2157 42.5415 20.2255C42.8183 20.2647 43.056 20.4082 43.2026 20.63C43.0332 20.7214 42.9095 20.9204 43.0821 21.0835C43.2189 21.2139 43.4208 21.2433 43.6129 21.2237C43.5055 20.9432 43.4045 20.6594 43.3263 20.369Z" fill="#F8C4AB"/>
<path d="M43.0269 21.3119C43.0237 21.3086 43.0172 21.3119 43.0204 21.3152C43.1442 21.6218 43.32 22.3395 42.8967 22.4863C42.6133 22.5841 42.5873 22.2188 42.6296 22.0263C42.6687 21.8501 42.7664 21.6675 42.8478 21.5109C42.8478 21.5109 42.6524 21.4685 42.4733 21.3771C42.229 21.5859 42.1411 21.8958 42.1834 22.222C42.2225 22.5189 42.4114 22.8451 42.7468 22.8549C43.0465 22.8647 43.2614 22.607 43.307 22.3329C43.3591 21.9774 43.2158 21.6022 43.0269 21.3119Z" fill="#FDCA27"/>
<path d="M105.347 77.4922C103.517 75.3098 99.5569 75.1337 96.958 74.8629C89.1451 74.0474 81.1336 74.2496 73.3174 74.8825C69.4257 75.1989 65.5534 75.6719 61.6974 76.295C58.9064 76.7484 55.7897 77.0649 53.002 77.9587C50.2142 77.0649 47.0975 76.7452 44.3065 76.295C40.4538 75.6687 36.5783 75.1957 32.6865 74.8825C24.8704 74.2496 16.8555 74.0474 9.04591 74.8629C6.4503 75.1337 2.48686 75.3098 0.656581 77.4922C-1.11182 79.5995 1.07019 82.1538 2.75066 83.4945C5.0727 85.3474 8.02004 86.2608 10.8339 87.06C14.3674 88.0582 17.9824 88.7368 21.6169 89.2522C37.8842 91.5487 46.7165 89.8557 55.2198 89.7513C55.5455 90.1656 55.8516 90.5962 56.1317 91.0431C64.7523 91.0985 75.8251 90.4102 84.3838 89.2522C88.0216 88.7596 91.6333 88.0615 95.1668 87.06C97.9839 86.2641 100.928 85.3507 103.25 83.4945C104.931 82.1538 107.113 79.5995 105.347 77.4922Z" fill="#93BFA8"/>
<path d="M93.8055 79.0026C94.0758 78.6568 95.714 78.2294 96.3588 77.9424C93.3203 78.187 90.2687 78.5524 87.2367 78.8656C81.469 79.4593 75.6948 80.9892 70.2301 82.9041C67.6149 83.8207 65.0063 84.7831 62.4074 85.7486C60.3491 86.512 58.3137 87.3471 56.3824 88.3877C56.6788 88.2964 56.9752 88.205 57.2715 88.117C60.3524 87.2101 72.9071 80.4086 96.1536 79.5702C95.6162 79.4527 93.7013 79.1363 93.8055 79.0026Z" fill="#66A986"/>
<path d="M12.5403 78.5231C12.27 78.1773 10.6319 77.75 9.98706 77.4629C13.0256 77.7075 16.0771 78.0729 19.1092 78.3861C24.8768 78.9798 30.651 80.5097 36.1158 82.4246C38.7309 83.3412 41.3396 84.3036 43.9385 85.2692C45.9967 86.0325 48.0322 86.8676 49.9634 87.9082C49.667 87.8169 49.3707 87.7255 49.0743 87.6374C45.9934 86.7306 33.4388 79.9291 10.1922 79.0907C10.7263 78.9733 12.6413 78.6568 12.5403 78.5231Z" fill="#66A986"/>
<path d="M60.8606 85.7356C59.5514 85.2104 58.1673 85.1974 56.8939 85.7422C54.7184 86.6784 52.0511 85.2431 49.791 85.5008C47.7099 85.7389 46.443 88.1104 48.0356 89.6241C48.4199 89.9894 52.2824 91.3921 58.4018 88.5345C59.0726 88.2214 59.7272 88.042 60.4861 88.0517C60.6619 88.055 60.828 88.2214 61.0136 88.2018C61.411 88.1529 61.7366 88.0811 61.9581 87.6962C62.4792 86.7893 61.6096 86.0357 60.8606 85.7356Z" fill="#FDB597"/>
<path d="M45.5864 90.5474C46.6904 89.6699 48.0159 89.2588 49.387 89.4187C51.7383 89.6927 53.8845 87.5528 56.1251 87.1515C58.1867 86.7829 60.0788 88.6912 58.9846 90.6028C58.7208 91.0628 55.4184 93.5126 48.7389 92.5275C48.0061 92.4198 47.3287 92.4361 46.6057 92.6612C46.4396 92.7134 46.3256 92.9222 46.14 92.9548C45.7459 93.0233 45.4138 93.0461 45.0913 92.7428C44.3358 92.0218 44.9546 91.0497 45.5864 90.5474Z" fill="#FDBCA0"/>
<path d="M89.9687 36.957C89.2164 37.3451 88.425 37.7823 87.6858 38.19C88.0766 37.8704 90.2456 35.6586 91.0891 35.1139C91.1802 35.0551 90.9653 34.1581 88.7475 35.9326C88.0864 36.4611 87.3047 36.9961 86.6827 37.5735C87.4741 36.0697 88.1352 34.5462 89.1708 33.1696C89.2132 33.1142 89.2002 33.0522 89.1643 33.0098C88.9526 32.8434 88.4218 33.0326 88.1841 33.2871C87.7607 33.7372 86.1519 35.4792 85.3702 37.3158C85.3833 36.6862 85.3279 35.6652 84.8817 35.4564C84.6017 35.3226 84.136 35.4988 83.8363 35.5216C83.2469 35.564 82.475 35.6488 81.9246 35.414C81.8432 35.3813 81.638 35.3553 81.7129 35.626C81.9637 36.5133 83.2013 36.6242 83.9698 36.8199C84.2304 37.4528 83.4976 38.4902 83.0352 38.8033C82.2829 39.3155 81.1854 38.8131 81.3742 37.8084C81.5403 36.9243 82.0679 36.5231 81.6022 35.6554C81.4491 35.3683 80.7913 35.1073 80.9378 35.5706C81.3156 36.7547 80.2311 37.7497 80.0911 38.8947C79.9804 39.8015 80.4591 40.6073 80.9411 41.3347C80.9118 41.4098 80.889 41.4848 80.8629 41.5566C80.2083 42.6918 79.7003 43.889 79.3323 45.1416C80.1725 45.4189 82.6411 45.2428 82.6313 45.2232C82.6411 45.2428 82.9277 43.4877 83.5856 42.7472C84.3053 41.935 85.2107 41.3086 86.0769 40.6693C87.8975 39.322 89.7473 38.0139 91.6232 36.7417C91.7306 36.6732 91.6427 36.0925 89.9687 36.957Z" fill="#FDBCA0"/>
<path d="M16.2334 36.957C16.9857 37.3451 17.7771 37.7823 18.5164 38.19C18.1256 37.8704 15.9566 35.6586 15.1131 35.1139C15.0219 35.0551 15.2369 34.1581 17.4547 35.9326C18.1158 36.4611 18.8974 36.9961 19.5195 37.5735C18.7281 36.0697 18.067 34.5462 17.0313 33.1696C16.989 33.1142 17.002 33.0522 17.0378 33.0098C17.2495 32.8434 17.7804 33.0326 18.0181 33.2871C18.4415 33.7372 20.0503 35.4792 20.8319 37.3158C20.8189 36.6862 20.8743 35.6652 21.3204 35.4564C21.6005 35.3226 22.0662 35.4988 22.3658 35.5216C22.9553 35.564 23.7272 35.6488 24.2776 35.414C24.359 35.3813 24.5641 35.3553 24.4892 35.626C24.2385 36.5133 23.0009 36.6242 22.2323 36.8199C21.9718 37.4528 22.7045 38.4902 23.167 38.8033C23.9193 39.3155 25.0168 38.8131 24.8279 37.8084C24.6618 36.9243 24.1343 36.5231 24.6 35.6554C24.753 35.3683 25.4109 35.1073 25.2643 35.5706C24.8866 36.7547 25.971 37.7497 26.1111 38.8947C26.2218 39.8015 25.7431 40.6073 25.2611 41.3347C25.2904 41.4098 25.3132 41.4848 25.3392 41.5566C25.9938 42.6918 26.5019 43.889 26.8699 45.1416C26.0297 45.4189 23.5611 45.2428 23.5708 45.2232C23.5611 45.2428 23.2745 43.4877 22.6166 42.7472C21.8969 41.935 20.9915 41.3086 20.1252 40.6693C18.3047 39.322 16.4549 38.0139 14.579 36.7417C14.4715 36.6732 14.5595 36.0925 16.2334 36.957Z" fill="#FDBCA0"/>
<path d="M78.4535 43.9869C77.2322 47.1414 73.0896 58.7872 71.3603 63.726C70.3312 61.0837 67.5499 49.6108 65.2083 36.2915C64.4788 32.1519 59.8185 32.7423 57.3238 33.1566C57.1447 35.936 54.4514 43.6411 53.0054 43.6574C51.5594 43.6411 48.6935 36.4807 48.687 33.1566C46.1956 32.7423 41.5319 32.1519 40.8024 36.2915C38.4576 49.6108 35.6796 61.087 34.6505 63.726C32.9179 58.7872 28.7786 47.1414 27.5573 43.9869C25.9908 44.7274 24.2583 45.1352 22.5289 45.2363C23.8674 48.8018 28.2868 74.0507 34.8003 74.0507C37.6239 74.0507 39.4118 71.0462 42.2908 59.9159C42.4341 61.7753 42.4829 65.3473 42.4113 69.102C42.3591 71.8063 40.493 74.9314 37.9951 74.3279C37.4903 74.2072 36.8325 74.5889 37.4578 75.2674C37.6271 75.4534 37.8453 75.5904 38.07 75.6948C42.0595 77.5868 42.2159 80.4151 44.5705 82.0624C45.9937 83.0574 47.7458 83.3706 49.4165 83.7098C51.2272 84.0752 53.0933 84.3492 54.9366 84.0719C58.0012 83.612 60.3819 81.5601 62.9189 79.9551C64.3355 79.058 65.775 78.3404 67.4392 78.0957C71.7218 77.4661 71.4385 74.4389 70.5429 74.5008C67.5434 74.7063 63.593 70.8766 63.5702 66.6619C63.5539 63.8565 63.6093 61.3675 63.72 59.9159C66.599 71.0462 68.3869 74.0507 71.2105 74.0507C77.7239 74.0507 82.1433 48.8018 83.4818 45.2363C81.7525 45.1352 80.0199 44.7241 78.4535 43.9869Z" fill="#F2EDE4"/>
<path d="M61.2223 55.0128C61.1897 55.0356 61.1637 55.0585 61.1376 55.0813C60.6068 55.6 60.1932 56.223 59.6721 56.7515C59.151 57.2767 58.4769 57.7171 57.7376 57.7138C55.9627 57.704 55.0736 55.5706 54.0054 54.4843C52.364 52.8206 50.7714 56.6112 49.5502 57.355C48.2963 58.1183 47.4463 57.6584 46.5214 56.7548C45.9547 56.2002 45.4727 55.5771 44.9484 54.9834C44.8116 54.8269 44.499 54.9932 44.5837 55.1955C45.1959 56.67 46.58 59.1165 48.4071 59.1557C49.5274 59.1785 50.4458 58.5359 51.1818 57.7465C51.5433 57.3583 52.5399 55.2738 53.1879 55.5478C53.3084 55.6 53.3931 55.7076 53.4745 55.812C53.797 56.2361 54.0966 56.683 54.4418 57.0875C54.6209 57.2963 55.1387 57.6421 55.1387 57.9291C55.8715 58.6762 56.8778 59.2633 57.9167 59.1361C58.9784 59.0056 59.8186 58.1738 60.4342 57.2963C60.8706 56.6732 61.2386 56.0012 61.5284 55.2966C61.5708 55.1955 61.6066 55.0683 61.5317 54.9867C61.4503 54.9019 61.3265 54.941 61.2223 55.0128Z" fill="#D9C9AC"/>
</svg>
