<svg width="176" height="97" viewBox="0 0 176 97" fill="none" xmlns="http://www.w3.org/2000/svg">
<path fill-rule="evenodd" clip-rule="evenodd" d="M0.595169 48.7977C5.09644 57.4865 12.1005 71.0064 36.5 66.8156C56.1432 63.4417 61.9405 73.929 67.3765 83.7628C68.2514 85.3456 69.117 86.9114 70.0294 88.3998C71.4713 90.7517 74.1102 91.9999 76.8689 91.9999H88H99.1311C101.89 91.9999 104.529 90.7517 105.971 88.3998C106.883 86.9114 107.749 85.3456 108.624 83.7628C114.06 73.929 119.857 63.4417 139.5 66.8156C163.899 71.0064 170.904 57.4865 175.405 48.7977C175.794 48.0455 176 47.211 176 46.3639V7.47633C176 1.06036 169.478 -3.29504 163.552 -0.836928L91.4481 29.0697C89.2406 29.9854 86.7594 29.9854 84.5519 29.0697L12.4481 -0.836928C6.5217 -3.29504 0 1.06036 0 7.47633V46.3639C0 47.211 0.205497 48.0455 0.595169 48.7977Z" fill="#F4A17C"/>
<path d="M104.252 10.2928C104.252 10.2928 105.314 10.4108 106.223 11.2242C107.132 12.0376 107.971 9.96435 106.466 9.54098C104.964 9.1176 104.252 10.2928 104.252 10.2928Z" fill="#F5E2D5"/>
<path d="M103.242 10.1978C103.242 10.1978 103.936 9.39214 105.125 9.1022C106.313 8.81225 105.049 6.96224 103.853 7.95781C102.659 8.95594 103.242 10.1978 103.242 10.1978Z" fill="#F5E2D5"/>
<path d="M89.3798 15.0138C89.3798 15.0138 88.6418 15.7784 88.4709 16.9819C88.3 18.1827 86.3138 17.1255 87.1942 15.8452C88.0721 14.5648 89.3798 15.0138 89.3798 15.0138Z" fill="#F5E2D5"/>
<path d="M90.0951 14.3006C90.0951 14.3006 89.0411 14.1235 87.9405 14.6572C86.84 15.1909 86.6121 12.9689 88.1762 12.9714C89.7377 12.974 90.0951 14.3006 90.0951 14.3006Z" fill="#F5E2D5"/>
<path d="M105.404 21.318C107.707 17.558 106.499 12.6592 102.704 10.3763C98.9097 8.09341 93.9657 9.29082 91.6617 13.0508C89.3578 16.8108 90.5662 21.7096 94.3609 23.9925C98.1556 26.2754 103.1 25.078 105.404 21.318Z" fill="#F5E2D5"/>
<path d="M92.3036 15.8273C92.1663 15.8632 92.0187 15.8042 91.9488 15.6759C91.8685 15.527 91.9229 15.3397 92.0757 15.2602L94.0774 14.1902L92.736 14.144C92.5651 14.1389 92.4305 13.9952 92.4357 13.8259C92.4408 13.6565 92.5859 13.5231 92.7568 13.5282L95.2427 13.6129C95.3826 13.618 95.5017 13.7155 95.5354 13.8515C95.5664 13.9875 95.5043 14.1261 95.38 14.1928L92.3683 15.8016C92.3476 15.8119 92.3269 15.8196 92.3036 15.8273Z" fill="#3F4553"/>
<path d="M103.019 12.9073C102.996 12.9124 102.973 12.9176 102.947 12.9176L99.6762 13.0202C99.5363 13.0253 99.4095 12.9355 99.368 12.8021C99.3266 12.6687 99.381 12.525 99.5001 12.4506L101.709 11.0855C101.854 10.9957 102.046 11.0393 102.136 11.183C102.227 11.3267 102.183 11.5166 102.038 11.6064L100.808 12.3659L102.926 12.2992C103.097 12.294 103.242 12.4275 103.247 12.5968C103.25 12.7456 103.154 12.8688 103.019 12.9073Z" fill="#3F4553"/>
<path d="M92.1687 17.213C93.8727 20.3254 96.8973 22.0985 99.6836 21.3389C102.467 20.5794 104.153 17.5209 104.011 13.9851L102.936 14.0954C99.4946 14.447 96.1463 15.3681 93.0155 16.8204L92.1687 17.213Z" fill="#3F4553"/>
<path d="M103.092 17.9802C101.885 17.5876 100.36 17.5542 98.8035 17.9802C97.2161 18.4138 95.9032 19.2375 95.0719 20.2125C96.4832 21.1182 98.0784 21.4672 99.6037 21.0515C101.147 20.6282 102.349 19.5017 103.092 17.9802Z" fill="#4E5567"/>
<path d="M49.6748 48.2887C50.9058 44.0625 48.4461 39.6476 44.1808 38.4279C39.9156 37.2081 35.46 39.6453 34.2289 43.8716C32.9979 48.0979 35.4577 52.5127 39.7229 53.7325C43.9882 54.9522 48.4438 52.515 49.6748 48.2887Z" fill="#F5E2D5"/>
<path d="M37.8447 41.2448C37.7127 41.1909 37.6324 41.0549 37.6557 40.9112C37.6842 40.7444 37.8421 40.6289 38.0131 40.6572L40.2582 41.0164L39.2224 40.1722C39.0903 40.0644 39.0722 39.8694 39.1809 39.7386C39.2897 39.6077 39.4865 39.5898 39.6186 39.6975L41.54 41.2653C41.6488 41.3525 41.6825 41.5039 41.6255 41.6296C41.5685 41.7554 41.4313 41.8298 41.294 41.8067L37.9147 41.2678C37.8888 41.2602 37.8654 41.255 37.8447 41.2448Z" fill="#3F4553"/>
<path d="M48.141 45.3889C48.1177 45.3787 48.097 45.3684 48.0763 45.353L45.4194 43.462C45.3055 43.3799 45.2615 43.2336 45.3107 43.1027C45.3599 42.9719 45.4919 42.8923 45.6318 42.9052L48.2213 43.154C48.3922 43.1694 48.5165 43.3208 48.501 43.4902C48.4855 43.6595 48.3327 43.7827 48.1618 43.7673L46.7194 43.6287L48.4414 44.8527C48.5813 44.9527 48.6123 45.1426 48.5114 45.2812C48.4233 45.4018 48.2705 45.4428 48.141 45.3889Z" fill="#3F4553"/>
<path d="M42.9645 49.4274C41.7915 49.4274 40.7453 49.1657 39.8337 48.6448C37.4332 47.2721 36.8791 44.6087 36.8558 44.4958C36.8143 44.2879 36.9516 44.0852 37.1613 44.0442C37.3711 44.0031 37.5756 44.1391 37.6171 44.347C37.6223 44.37 38.1324 46.7871 40.23 47.9828C41.7578 48.8552 43.7569 48.8835 46.173 48.0675C46.3776 47.9982 46.5977 48.106 46.665 48.3087C46.7349 48.5088 46.6262 48.7295 46.4216 48.7962C45.1708 49.2145 44.0159 49.4274 42.9645 49.4274Z" fill="#3F4553"/>
<path d="M90.447 70.8081C93.8985 67.3881 93.8985 61.8433 90.447 58.4234C86.9955 55.0034 81.3996 55.0034 77.9481 58.4234C74.4966 61.8433 74.4966 67.3881 77.9481 70.8081C81.3996 74.228 86.9955 74.228 90.447 70.8081Z" fill="#F5E2D5"/>
<path d="M79.2186 67.4811C79.2186 67.4811 84.9027 64.266 90.3796 63.4885C90.3796 63.4885 91.9515 68.6203 86.7154 70.6063C82.1759 72.328 79.2186 67.4811 79.2186 67.4811Z" fill="#3F4553"/>
<path d="M80.3401 65.0076C80.1536 65.0076 79.9723 64.9075 79.8791 64.7305L78.5895 62.2621C78.4574 62.0106 78.5584 61.7002 78.8122 61.5693C79.066 61.4384 79.3793 61.5385 79.5114 61.79L80.801 64.2583C80.9331 64.5098 80.8321 64.8203 80.5783 64.9511C80.5006 64.9896 80.4203 65.0076 80.3401 65.0076Z" fill="#3F4553"/>
<path d="M87.2127 62.5364C86.9744 62.5364 86.7595 62.3722 86.7077 62.131L86.1069 59.3214C86.0474 59.0442 86.226 58.7723 86.5057 58.7133C86.7854 58.6542 87.0599 58.8313 87.1194 59.1084L87.7202 61.918C87.7798 62.1952 87.6011 62.4671 87.3214 62.5262C87.2826 62.5338 87.2463 62.5364 87.2127 62.5364Z" fill="#3F4553"/>
<path d="M88.106 69.5824C87.6295 68.42 85.9644 67.9453 84.3381 68.5252C83.437 68.8485 82.7378 69.4284 82.3571 70.0827C83.5354 70.6703 85.0011 70.9346 86.6843 70.2957C87.2307 70.0904 87.6968 69.8492 88.106 69.5824Z" fill="#4E5567"/>
<path d="M135.328 41.917C139.813 40.008 141.887 34.8581 139.961 30.4142C138.034 25.9704 132.836 23.9155 128.352 25.8245C123.867 27.7335 121.793 32.8835 123.719 37.3273C125.646 41.7711 130.844 43.826 135.328 41.917Z" fill="#F5E2D5"/>
<path d="M132.967 35.8206C129.914 35.8206 127.596 34.0604 127.563 34.0347C127.451 33.9475 127.431 33.7858 127.519 33.6755C127.607 33.5651 127.77 33.5446 127.881 33.6319C128.068 33.7755 132.498 37.1292 137.113 33.9988C137.232 33.9192 137.393 33.95 137.473 34.0655C137.553 34.1835 137.525 34.3426 137.406 34.4222C135.873 35.4613 134.345 35.8206 132.967 35.8206Z" fill="#3F4553"/>
<path d="M135.487 31.1712C135.487 31.71 135.275 32.1488 135.01 32.1488C134.746 32.1488 134.534 31.7126 134.534 31.1712C134.534 30.6298 134.746 30.1936 135.01 30.1936C135.275 30.1936 135.487 30.6324 135.487 31.1712Z" fill="#3F4553"/>
<path d="M130.911 30.984C130.911 31.5228 130.699 31.9616 130.435 31.9616C130.171 31.9616 129.958 31.5254 129.958 30.984C129.958 30.4451 130.171 30.0063 130.435 30.0063C130.699 30.0063 130.911 30.4425 130.911 30.984Z" fill="#3F4553"/>
<path d="M109.489 94.8773C121.4 94.8773 131.056 92.7152 131.056 90.0482C131.056 87.3813 121.4 85.2192 109.489 85.2192C97.5781 85.2192 87.9221 87.3813 87.9221 90.0482C87.9221 92.7152 97.5781 94.8773 109.489 94.8773Z" fill="#F4A17C"/>
<path opacity="0.5" d="M109.489 94.8773C121.4 94.8773 131.056 92.7152 131.056 90.0482C131.056 87.3813 121.4 85.2192 109.489 85.2192C97.5781 85.2192 87.9221 87.3813 87.9221 90.0482C87.9221 92.7152 97.5781 94.8773 109.489 94.8773Z" fill="#F4A17C"/>
<path d="M107.82 26.2112C107.82 26.2112 106.168 26.0624 106.018 24.5742C105.868 23.086 109.775 21.2231 112.253 21.1487C114.734 21.0743 117.137 23.7557 117.137 25.9136C117.137 28.0715 117.513 31.1249 119.39 31.7202C121.268 32.3155 122.547 35.9642 121.418 37.3036C120.291 38.643 120.367 38.643 121.493 39.8361C122.619 41.0267 121.643 43.1127 120.892 43.5592C120.141 44.0057 117.886 44.6754 112.852 44.2289C107.818 43.7824 104.811 39.2408 104.586 37.378C104.36 35.5177 106.088 34.2502 106.688 33.4316C107.289 32.6131 106.238 31.9434 106.313 31.0479C106.388 30.155 107.515 29.4109 107.815 28.6642C108.12 27.9227 107.82 26.2112 107.82 26.2112Z" fill="#3F4553"/>
<path d="M115.928 44.5035C115.045 44.5035 114.024 44.4599 112.844 44.3547C107.566 43.8851 104.671 39.1228 104.461 37.3934C104.277 35.8846 105.313 34.7711 106.067 33.9577C106.279 33.7293 106.46 33.5317 106.59 33.3572C106.893 32.9416 106.709 32.5695 106.497 32.1359C106.328 31.7972 106.157 31.4482 106.191 31.0402C106.238 30.4732 106.657 29.9857 107.064 29.5161C107.333 29.2031 107.587 28.908 107.703 28.6206C107.949 28.0125 107.765 26.6859 107.711 26.3241C107.333 26.26 106.028 25.9393 105.891 24.5845C105.854 24.2329 106.012 23.8583 106.354 23.4709C107.439 22.2469 110.249 21.0769 112.251 21.0179C113.382 20.9871 114.592 21.5131 115.586 22.4702C116.624 23.4683 117.269 24.7872 117.269 25.9136C117.269 27.7816 117.551 31.0018 119.434 31.5996C120.421 31.9127 121.335 33.0596 121.765 34.5196C122.117 35.7179 122.026 36.7904 121.524 37.3883C120.503 38.5994 120.503 38.5994 121.495 39.6437L121.596 39.7489C122.158 40.3416 122.187 41.0857 122.114 41.604C121.982 42.5483 121.425 43.395 120.967 43.6696C120.579 43.8954 119.242 44.5035 115.928 44.5035ZM112.352 21.2745C112.32 21.2745 112.289 21.2745 112.256 21.277C110.347 21.3335 107.571 22.483 106.546 23.6428C106.251 23.9738 106.116 24.2843 106.144 24.5614C106.282 25.929 107.815 26.0829 107.83 26.0855C107.89 26.0906 107.936 26.1343 107.947 26.1907C107.96 26.2626 108.25 27.9484 107.939 28.7181C107.807 29.044 107.54 29.3545 107.258 29.6829C106.88 30.1242 106.486 30.5784 106.447 31.0633C106.419 31.402 106.577 31.7176 106.727 32.0255C106.957 32.49 107.193 32.9698 106.8 33.5112C106.662 33.6985 106.476 33.9012 106.258 34.1347C105.538 34.9122 104.552 35.977 104.72 37.3677C104.922 39.0433 107.737 43.649 112.869 44.1058C118.411 44.5984 120.364 43.7311 120.832 43.454C121.231 43.218 121.736 42.4302 121.858 41.5732C121.923 41.1088 121.897 40.4468 121.407 39.9285L121.309 39.8233C120.242 38.6994 120.19 38.5814 121.33 37.2266C121.778 36.6929 121.85 35.7102 121.521 34.594C121.19 33.4624 120.392 32.1744 119.361 31.8485C117.321 31.2019 117.018 27.856 117.018 25.9187C117.018 24.859 116.404 23.612 115.415 22.66C114.488 21.7748 113.38 21.2745 112.352 21.2745Z" fill="#3F4553"/>
<path d="M119.804 38.1787C119.758 38.1787 119.729 38.1735 119.721 38.171C119.652 38.1556 119.608 38.0863 119.623 38.017C119.639 37.9477 119.709 37.9041 119.778 37.9195C119.781 37.9195 119.905 37.94 120.061 37.8271C120.26 37.6835 120.524 37.3217 120.656 36.4005C120.827 35.2151 118.932 33.6601 116.927 32.0154C116.037 31.2841 115.115 30.5272 114.307 29.7523C111.629 27.1838 111.251 24.1458 111.246 24.115C111.238 24.0458 111.29 23.9816 111.36 23.9739C111.424 23.9662 111.494 24.0175 111.502 24.0868C111.505 24.115 111.875 27.0684 114.485 29.5676C115.286 30.3348 116.202 31.0891 117.09 31.8153C119.242 33.5806 121.102 35.1073 120.91 36.4339C120.791 37.2575 120.55 37.7989 120.193 38.0427C120.035 38.1581 119.89 38.1787 119.804 38.1787Z" fill="#AC9B8F"/>
<path d="M107.033 24.9925C106.194 24.9925 105.927 24.6692 105.914 24.6512C105.87 24.5948 105.88 24.5152 105.937 24.4716C105.992 24.428 106.075 24.4382 106.119 24.4947C106.121 24.4972 106.554 24.9771 108.151 24.5794C109.829 24.1637 111.538 22.8217 111.554 22.8063C111.611 22.7627 111.691 22.7704 111.735 22.8269C111.779 22.8833 111.772 22.9628 111.715 23.0065C111.642 23.0629 109.946 24.3972 108.213 24.8257C107.732 24.9488 107.343 24.9925 107.033 24.9925Z" fill="#AC9B8F"/>
<path d="M99.9296 87.4384C99.9296 87.4384 101.048 88.8933 102.299 89.5784C103.55 90.2634 105.795 89.7913 105.148 88.1671C104.5 86.5429 103.464 85.6859 102.687 85.3883C101.911 85.0881 99.8907 85.8553 99.9296 87.4384Z" fill="#E49621"/>
<path d="M103.57 90.012C103.11 90.012 102.633 89.9068 102.237 89.6913C100.976 89.0011 99.8726 87.577 99.8259 87.518C99.8104 87.4974 99.8001 87.4692 99.8001 87.4436C99.7845 86.7687 100.121 86.1555 100.753 85.7142C101.39 85.2703 102.242 85.0778 102.734 85.2677C103.122 85.4165 104.448 86.0631 105.267 88.121C105.497 88.6983 105.401 89.2115 104.997 89.563C104.658 89.8606 104.125 90.012 103.57 90.012ZM100.059 87.3948C100.233 87.6129 101.253 88.8599 102.361 89.4681C103.133 89.8889 104.285 89.8427 104.829 89.3705C105.15 89.0909 105.217 88.6932 105.028 88.2159C104.249 86.2556 103.003 85.6474 102.641 85.5089C102.281 85.3703 101.532 85.4884 100.903 85.9271C100.585 86.1452 100.059 86.6276 100.059 87.3948Z" fill="#3F4553"/>
<path d="M101.522 89.0218L101.535 89.0602C101.778 89.2527 102.035 89.4323 102.299 89.576C103.55 90.2611 105.795 89.789 105.148 88.1648C103.12 86.928 101.522 89.0218 101.522 89.0218Z" fill="#F1BD54"/>
<path d="M103.57 90.0121C103.11 90.0121 102.633 89.9069 102.237 89.6914C101.988 89.5554 101.727 89.3784 101.455 89.1628C101.434 89.1474 101.419 89.1243 101.411 89.0987L101.398 89.0576C101.385 89.0191 101.393 88.9755 101.419 88.9422C101.437 88.9216 103.11 86.7689 105.215 88.0544C105.238 88.0698 105.256 88.0903 105.267 88.116C105.497 88.6933 105.401 89.2065 104.997 89.558C104.658 89.8608 104.125 90.0121 103.57 90.0121ZM101.69 89.0217C101.924 89.2013 102.149 89.3501 102.361 89.4682C103.133 89.889 104.285 89.8428 104.829 89.3707C105.14 89.0987 105.215 88.7164 105.044 88.2571C103.353 87.2538 101.999 88.6574 101.69 89.0217Z" fill="#3F4553"/>
<path d="M102.299 89.5783C103.472 90.2198 105.518 89.8478 105.235 88.4596C104.816 88.9035 103.979 89.4475 102.817 89.0215C101.569 88.5674 100.499 87.3229 100.056 86.7507C99.9734 86.9586 99.9216 87.1869 99.9294 87.4384C99.9294 87.4384 101.048 88.8932 102.299 89.5783Z" fill="#F1BD54"/>
<path d="M103.57 90.0094C103.107 90.0094 102.628 89.9042 102.237 89.6887C100.975 88.9985 99.8723 87.5744 99.8257 87.5154C99.8102 87.4949 99.7998 87.4666 99.7998 87.441C99.7946 87.1921 99.8387 86.9432 99.9371 86.702C99.9552 86.6584 99.994 86.6276 100.041 86.6225C100.085 86.6148 100.131 86.6353 100.16 86.6712C100.564 87.1921 101.633 88.4519 102.861 88.901C104.054 89.3372 104.852 88.6752 105.14 88.3698C105.173 88.3339 105.222 88.3211 105.269 88.3339C105.316 88.3467 105.352 88.3852 105.36 88.4314C105.458 88.9189 105.295 89.3474 104.899 89.6348C104.562 89.8863 104.075 90.0094 103.57 90.0094ZM100.059 87.3948C100.232 87.6129 101.253 88.8599 102.361 89.468C103.083 89.8632 104.179 89.8478 104.748 89.4321C104.997 89.2525 105.127 89.019 105.132 88.7367C104.71 89.096 103.897 89.5553 102.77 89.1447C101.613 88.7214 100.6 87.6309 100.103 87.0202C100.074 87.1433 100.059 87.2665 100.059 87.3948Z" fill="#3F4553"/>
<path d="M118.688 87.3849C118.688 87.3849 117.57 88.8398 116.319 89.5249C115.068 90.21 112.823 89.7378 113.47 88.1136C114.118 86.4894 115.154 85.6324 115.931 85.3348C116.707 85.0346 118.727 85.8018 118.688 87.3849Z" fill="#E49621"/>
<path d="M115.048 89.9584C114.494 89.9584 113.96 89.8045 113.618 89.5068C113.214 89.1553 113.119 88.6447 113.349 88.0648C114.167 86.0095 115.496 85.3629 115.882 85.2115C116.374 85.0217 117.226 85.2141 117.863 85.658C118.494 86.0968 118.834 86.7126 118.816 87.3874C118.816 87.4131 118.805 87.4413 118.79 87.4618C118.743 87.5234 117.64 88.9475 116.379 89.6351C115.985 89.8507 115.509 89.9584 115.048 89.9584ZM116.33 85.3963C116.19 85.3963 116.071 85.4142 115.975 85.4502C115.612 85.5887 114.369 86.1994 113.587 88.1572C113.398 88.6344 113.466 89.0322 113.787 89.3118C114.33 89.7865 115.483 89.8301 116.255 89.4093C117.363 88.8038 118.383 87.5568 118.557 87.3387C118.557 86.5715 118.031 86.0891 117.712 85.8684C117.249 85.5451 116.721 85.3963 116.33 85.3963Z" fill="#3F4553"/>
<path d="M117.096 88.9679L117.083 89.0064C116.839 89.1988 116.583 89.3784 116.319 89.5221C115.068 90.2072 112.823 89.7351 113.47 88.1109C115.498 86.8715 117.096 88.9679 117.096 88.9679Z" fill="#F1BD54"/>
<path d="M115.047 89.9584C114.493 89.9584 113.96 89.8045 113.618 89.5068C113.214 89.1553 113.118 88.6447 113.349 88.0648C113.359 88.0391 113.377 88.016 113.4 88.0032C115.506 86.7177 117.181 88.8679 117.197 88.891C117.223 88.9243 117.23 88.968 117.218 89.0065L117.205 89.0449C117.197 89.0706 117.181 89.0911 117.161 89.1065C116.889 89.3221 116.624 89.4991 116.378 89.6351C115.985 89.8506 115.508 89.9584 115.047 89.9584ZM113.574 88.1982C113.403 88.6575 113.478 89.0424 113.789 89.3118C114.333 89.7865 115.485 89.8301 116.257 89.4093C116.469 89.2938 116.694 89.145 116.927 88.9628C116.617 88.601 115.262 87.2001 113.574 88.1982Z" fill="#3F4553"/>
<path d="M116.319 89.5246C115.146 90.1661 113.1 89.794 113.382 88.4059C113.802 88.8498 114.638 89.3938 115.801 88.9678C117.049 88.5137 118.119 87.2692 118.562 86.697C118.644 86.9049 118.696 87.1332 118.688 87.3847C118.688 87.3847 117.57 88.8395 116.319 89.5246Z" fill="#F1BD54"/>
<path d="M115.048 89.9558C114.543 89.9558 114.056 89.8301 113.714 89.5838C113.318 89.2964 113.155 88.8679 113.253 88.3804C113.263 88.3342 113.297 88.2957 113.344 88.2829C113.39 88.27 113.442 88.2829 113.473 88.3188C113.761 88.6241 114.558 89.2836 115.752 88.8499C116.979 88.4009 118.051 87.141 118.453 86.6202C118.481 86.5842 118.528 86.5663 118.572 86.5714C118.619 86.5766 118.657 86.6073 118.676 86.651C118.771 86.8922 118.818 87.141 118.813 87.3899C118.813 87.4182 118.802 87.4438 118.787 87.4643C118.74 87.5259 117.637 88.95 116.376 89.6377C115.99 89.8506 115.511 89.9558 115.048 89.9558ZM113.483 88.6806C113.491 88.9628 113.618 89.1963 113.867 89.3759C114.436 89.7916 115.532 89.807 116.254 89.4119C117.363 88.8063 118.383 87.5593 118.556 87.3412C118.556 87.2155 118.541 87.0897 118.51 86.9666C118.013 87.5747 117 88.6678 115.843 89.0911C114.719 89.4991 113.906 89.0398 113.483 88.6806Z" fill="#3F4553"/>
<path d="M109.923 31.6179C109.923 31.6179 109.622 34.076 109.397 34.5969C109.172 35.1178 106.391 35.2666 105.189 35.7131C103.987 36.1595 101.432 38.32 99.8545 39.8082C98.2775 41.2965 96.8481 45.2428 96.8481 45.7637C96.8481 46.2845 98.4251 44.2755 99.8545 42.8591C101.281 41.4453 104.438 39.6568 104.438 39.6568C104.438 39.6568 105.567 45.1966 105.717 45.7945C105.868 46.3897 105.715 47.3827 105.715 47.606C105.715 47.8292 102.558 53.2638 102.032 57.8054C101.507 62.347 102.483 70.9838 102.483 70.9838C102.483 70.9838 100.756 74.3349 100.606 78.058C100.455 81.7811 99.6292 86.1739 99.7043 86.4715C99.7794 86.7692 99.5541 87.3645 99.9296 87.4389C100.305 87.5133 100.606 86.4715 101.507 86.2483C102.408 86.0251 103.609 86.6204 103.762 86.0251C103.912 85.4298 103.762 84.2392 103.912 82.674C104.063 81.1114 106.543 74.7069 106.694 72.549C106.844 70.3911 108.646 59.8171 109.024 59.2962C109.4 58.7753 109.4 58.7753 109.4 58.7753C109.4 58.7753 109.775 57.8824 110 58.8497C110.226 59.8171 110 69.4212 110.451 70.8376C110.902 72.2514 114.452 81.7503 114.902 82.8665C115.353 83.9826 114.377 85.3246 114.677 85.9199C114.978 86.5152 115.804 86.2919 116.555 86.2919C117.306 86.2919 118.088 87.385 118.688 87.385C119.289 87.385 119.486 86.5152 119.486 85.5478C119.486 84.5805 116.837 75.156 116.687 72.8467C116.537 70.5374 116.011 68.7515 116.011 68.7515C116.011 68.7515 116.987 58.1056 116.762 55.7963C116.537 53.487 114.584 47.606 114.584 47.606L115.936 40.2547C115.936 40.2547 120.069 42.564 121.496 44.4243C122.922 46.2845 123.901 46.2101 123.748 44.7219C123.598 43.2337 120.066 38.8409 118.189 36.9037C116.311 34.969 113.755 35.341 113.004 34.8201C112.253 34.2993 112.704 29.1624 112.704 29.1624L109.923 31.6179Z" fill="#FED9CE"/>
<path d="M99.9711 87.5721C99.9504 87.5721 99.9271 87.5696 99.9063 87.5644C99.5438 87.4926 99.5671 87.1077 99.5852 86.828C99.593 86.7074 99.6008 86.5817 99.5801 86.5021C99.549 86.3815 99.6008 85.9813 99.7717 84.7702C100.015 83.0433 100.383 80.4338 100.479 78.0527C100.621 74.5477 102.17 71.33 102.353 70.9605C102.284 70.3319 101.403 62.1416 101.905 57.7924C102.328 54.1463 104.459 49.8792 105.262 48.2729C105.43 47.9368 105.575 47.6469 105.588 47.5904C105.585 47.5519 105.596 47.4518 105.606 47.321C105.642 46.9233 105.702 46.2613 105.593 45.8276C105.458 45.2888 104.544 40.8242 104.347 39.8619C103.697 40.2417 101.165 41.7453 99.9452 42.9538C99.448 43.4465 98.9301 44.0161 98.4717 44.519C97.3349 45.7661 97.0475 46.0483 96.8377 45.9688C96.7937 45.9508 96.7186 45.9046 96.7186 45.7686C96.7186 45.1836 98.161 41.2321 99.7639 39.7182C101.048 38.5071 103.824 36.0849 105.142 35.5974C105.65 35.4101 106.419 35.2741 107.165 35.1433C108.058 34.9867 109.172 34.7917 109.275 34.5505C109.49 34.0528 109.788 31.6331 109.791 31.6075C109.793 31.5767 109.809 31.5485 109.832 31.5279L112.613 29.0698C112.652 29.0339 112.712 29.0287 112.758 29.0518C112.805 29.0749 112.833 29.1263 112.828 29.1776C112.657 31.1353 112.572 34.3709 113.074 34.7199C113.3 34.8764 113.748 34.9508 114.268 35.0381C115.418 35.2305 116.99 35.4948 118.277 36.8214C120.146 38.7483 123.715 43.1565 123.873 44.714C123.961 45.5941 123.655 45.8507 123.464 45.9251C122.974 46.1176 122.236 45.6121 121.387 44.5062C120.149 42.8923 116.793 40.9037 116.024 40.4624L114.711 47.6032C114.882 48.1164 116.669 53.5561 116.886 55.791C117.106 58.0515 116.2 68.0508 116.138 68.7462C116.2 68.9668 116.671 70.6911 116.811 72.8439C116.896 74.1474 117.811 77.8474 118.546 80.8213C119.139 83.2229 119.61 85.1217 119.61 85.5528C119.61 86.8203 119.281 87.5182 118.683 87.5182C118.357 87.5182 118.015 87.2616 117.655 86.9922C117.285 86.7151 116.902 86.4252 116.549 86.4252C116.389 86.4252 116.223 86.4354 116.063 86.4457C115.457 86.4842 114.83 86.5227 114.556 85.9813C114.4 85.6759 114.522 85.25 114.662 84.7573C114.827 84.1697 115.014 83.5052 114.778 82.9202C114.322 81.7912 110.783 72.3179 110.324 70.881C110.055 70.0317 110.024 66.4497 109.995 63.2885C109.977 61.2204 109.962 59.2703 109.871 58.8829C109.796 58.5647 109.723 58.5314 109.723 58.5314C109.682 58.5391 109.576 58.6879 109.516 58.829C109.514 58.8393 109.508 58.847 109.503 58.8547L109.128 59.3755C108.796 59.8348 106.989 70.1856 106.823 72.5617C106.738 73.7728 105.93 76.3078 105.215 78.5453C104.645 80.326 104.109 82.0093 104.042 82.6918C103.967 83.4667 103.967 84.1595 103.967 84.7188C103.967 85.2936 103.967 85.7503 103.889 86.0634C103.775 86.5175 103.252 86.4534 102.698 86.3867C102.322 86.3405 101.898 86.2892 101.54 86.379C101.077 86.4944 100.779 86.8537 100.538 87.1436C100.347 87.3694 100.181 87.5721 99.9711 87.5721ZM104.438 39.5309C104.456 39.5309 104.474 39.5335 104.492 39.5412C104.531 39.5592 104.557 39.5925 104.565 39.6336C104.575 39.69 105.697 45.1785 105.844 45.7635C105.963 46.2382 105.901 46.9284 105.865 47.3415C105.855 47.4621 105.844 47.5545 105.844 47.6058C105.844 47.6751 105.795 47.7777 105.492 48.3858C104.694 49.9818 102.579 54.2181 102.162 57.8206C101.644 62.2955 102.602 70.8836 102.612 70.9708C102.615 70.9965 102.61 71.0221 102.599 71.0426C102.581 71.076 100.883 74.4117 100.735 78.0629C100.639 80.4569 100.271 83.0741 100.028 84.8061C99.9115 85.6272 99.8131 86.3354 99.8313 86.4431C99.8597 86.5586 99.852 86.7048 99.8416 86.8434C99.8235 87.1539 99.8338 87.2899 99.9556 87.313C100.046 87.3284 100.194 87.1487 100.339 86.9743C100.587 86.6715 100.929 86.2584 101.478 86.1224C101.885 86.0223 102.333 86.0762 102.729 86.125C103.257 86.1891 103.581 86.2148 103.638 85.9941C103.71 85.7118 103.71 85.2705 103.71 84.7137C103.71 84.1518 103.71 83.4513 103.786 82.6636C103.853 81.9528 104.371 80.3363 104.969 78.4632C105.678 76.2411 106.484 73.7214 106.567 72.5411C106.696 70.6732 108.486 59.8246 108.921 59.2216L109.288 58.711C109.343 58.5852 109.508 58.2542 109.752 58.2696C109.98 58.2876 110.076 58.5929 110.127 58.8187C110.223 59.2318 110.239 61.0177 110.259 63.2783C110.285 66.265 110.316 69.9829 110.575 70.7938C111.034 72.2281 114.568 81.6885 115.024 82.815C115.294 83.4821 115.084 84.2211 114.918 84.8163C114.799 85.2397 114.685 85.64 114.796 85.8581C114.993 86.2481 115.485 86.2173 116.055 86.1814C116.223 86.1711 116.392 86.1609 116.56 86.1609C117 86.1609 117.417 86.4765 117.821 86.7793C118.145 87.023 118.453 87.2539 118.691 87.2539C119.294 87.2539 119.359 86.0582 119.359 85.5451C119.359 85.1448 118.846 83.069 118.303 80.8751C117.526 77.7371 116.648 74.1807 116.56 72.8542C116.412 70.5885 115.894 68.8052 115.889 68.7872C115.884 68.7718 115.884 68.7564 115.884 68.741C115.894 68.6333 116.858 58.0798 116.635 55.809C116.415 53.5407 114.48 47.7059 114.462 47.6469C114.455 47.6263 114.455 47.6058 114.457 47.5827L115.809 40.2314C115.817 40.1904 115.843 40.157 115.881 40.1391C115.92 40.1211 115.964 40.1237 116 40.1442C116.171 40.2391 120.172 42.4868 121.602 44.3471C122.485 45.4992 123.109 45.7866 123.376 45.6814C123.585 45.5993 123.676 45.2554 123.624 44.7346C123.474 43.2566 119.895 38.8458 118.101 36.9933C116.873 35.7283 115.348 35.4717 114.234 35.2844C113.66 35.1869 113.206 35.1125 112.934 34.9226C112.233 34.4351 112.461 30.6735 112.554 29.4675L110.052 31.6793C110.008 32.036 109.739 34.1477 109.524 34.6455C109.371 34.997 108.548 35.1587 107.219 35.3896C106.486 35.5179 105.725 35.6513 105.241 35.8309C104.13 36.244 101.719 38.23 99.9504 39.8979C98.4458 41.3168 97.1252 44.9219 96.9957 45.666C97.2391 45.4864 97.7907 44.8834 98.2853 44.3394C98.7462 43.8339 99.2667 43.2617 99.7691 42.7665C101.193 41.3553 104.252 39.6182 104.381 39.5438C104.394 39.5361 104.417 39.5309 104.438 39.5309Z" fill="#3F4553"/>
<path d="M114.674 85.9197C114.975 86.515 115.801 86.2918 116.552 86.2918C117.303 86.2918 118.085 87.3848 118.685 87.3848C119.286 87.3848 119.483 86.515 119.483 85.5476C119.483 84.5803 116.834 75.1558 116.684 72.8465C116.533 70.5372 116.008 68.7513 116.008 68.7513C116.008 68.7513 116.984 58.1055 116.759 55.7962C116.722 55.4292 116.642 54.9699 116.533 54.4619L103.226 53.179C102.677 54.6697 102.208 56.2888 102.032 57.8078C101.506 62.3494 102.482 70.9862 102.482 70.9862C102.482 70.9862 100.755 74.3373 100.605 78.0604C100.455 81.7835 99.6288 86.1763 99.7039 86.4739C99.779 86.7716 99.5537 87.3669 99.9292 87.4413C100.305 87.5157 100.605 86.4739 101.506 86.2507C102.407 86.0275 103.609 86.6228 103.762 86.0275C103.912 85.4322 103.762 84.2416 103.912 82.6764C104.062 81.1138 106.543 74.7093 106.693 72.5514C106.843 70.3935 108.646 59.8195 109.024 59.2986C109.399 58.7777 109.399 58.7777 109.399 58.7777C109.399 58.7777 109.775 57.8848 110 58.8521C110.225 59.8195 110 69.4236 110.451 70.84C110.901 72.2538 114.451 81.7527 114.902 82.8689C115.353 83.9825 114.374 85.3244 114.674 85.9197Z" fill="#3F4553"/>
<path d="M99.9709 87.5721C99.9502 87.5721 99.9269 87.5695 99.9061 87.5644C99.5436 87.4925 99.5669 87.1076 99.585 86.8279C99.5928 86.7073 99.6006 86.5816 99.5799 86.5021C99.5488 86.3815 99.6006 85.9812 99.7715 84.7701C100.015 83.0433 100.383 80.4337 100.478 78.0526C100.621 74.5476 102.169 71.33 102.353 70.9605C102.283 70.3318 101.403 62.1415 101.905 57.7923C102.061 56.4452 102.465 54.8775 103.107 53.1327C103.128 53.0788 103.179 53.0454 103.241 53.048L116.549 54.3309C116.606 54.3361 116.653 54.3771 116.663 54.431C116.78 54.975 116.855 55.4291 116.891 55.7807C117.111 58.0412 116.205 68.0405 116.143 68.7358C116.205 68.9565 116.676 70.6808 116.816 72.8336C116.901 74.137 117.816 77.8371 118.551 80.8109C119.144 83.2126 119.615 85.1114 119.615 85.5424C119.615 86.81 119.286 87.5079 118.688 87.5079C118.362 87.5079 118.02 87.2513 117.66 86.9819C117.29 86.7048 116.907 86.4148 116.554 86.4148C116.394 86.4148 116.228 86.4251 116.068 86.4354C115.462 86.4738 114.835 86.5123 114.56 85.9709C114.405 85.6656 114.527 85.2397 114.667 84.747C114.832 84.1594 115.019 83.4948 114.783 82.9098C114.327 81.7808 110.787 72.3076 110.329 70.8707C110.06 70.0214 110.029 66.4394 110 63.2782C109.982 61.2101 109.967 59.26 109.876 58.8726C109.801 58.5544 109.728 58.521 109.728 58.521C109.687 58.5287 109.581 58.6776 109.521 58.8187C109.519 58.8289 109.513 58.8366 109.508 58.8443L109.133 59.3652C108.801 59.8245 106.994 70.1753 106.828 72.5513C106.743 73.7624 105.935 76.2975 105.22 78.535C104.65 80.3157 104.114 81.9989 104.047 82.6815C103.972 83.4564 103.972 84.1492 103.972 84.7085C103.972 85.2833 103.972 85.7374 103.894 86.053C103.78 86.5072 103.257 86.4431 102.703 86.3763C102.327 86.3302 101.903 86.2788 101.545 86.3686C101.082 86.4841 100.784 86.8433 100.543 87.1333C100.346 87.3693 100.181 87.5721 99.9709 87.5721ZM103.317 53.3148C102.703 55.0032 102.314 56.5196 102.162 57.8205C101.644 62.2955 102.602 70.8835 102.612 70.9707C102.615 70.9964 102.61 71.0221 102.599 71.0426C102.581 71.0759 100.882 74.4116 100.735 78.0629C100.639 80.4568 100.271 83.074 100.028 84.806C99.9113 85.6271 99.8129 86.3353 99.831 86.4431C99.8595 86.5585 99.8518 86.7048 99.8414 86.8433C99.8233 87.1538 99.8336 87.2898 99.9553 87.3129C100.046 87.3283 100.194 87.1487 100.339 86.9742C100.587 86.6714 100.929 86.2583 101.478 86.1223C101.885 86.0223 102.333 86.0761 102.729 86.1249C103.257 86.189 103.581 86.2147 103.638 85.994C103.71 85.7118 103.71 85.2704 103.71 84.7136C103.71 84.1517 103.71 83.4512 103.785 82.6635C103.853 81.9528 104.371 80.3362 104.969 78.4631C105.678 76.2411 106.484 73.7214 106.566 72.5411C106.696 70.6731 108.485 59.8245 108.92 59.2215L109.288 58.7109C109.343 58.5852 109.508 58.2542 109.752 58.2696C109.98 58.2875 110.075 58.5929 110.127 58.8187C110.223 59.2318 110.238 61.0176 110.259 63.2782C110.285 66.2649 110.316 69.9829 110.575 70.7937C111.033 72.228 114.568 81.6885 115.024 82.8149C115.293 83.482 115.084 84.221 114.918 84.8163C114.799 85.2397 114.685 85.6399 114.796 85.858C114.993 86.248 115.485 86.2173 116.055 86.1813C116.223 86.1711 116.391 86.1608 116.56 86.1608C117 86.1608 117.417 86.4764 117.821 86.7792C118.144 87.0229 118.453 87.2539 118.691 87.2539C119.294 87.2539 119.359 86.0582 119.359 85.545C119.359 85.1447 118.846 83.0689 118.302 80.8751C117.526 77.737 116.648 74.1807 116.56 72.8541C116.412 70.5858 115.894 68.8051 115.889 68.7872C115.884 68.7718 115.884 68.7564 115.884 68.741C115.894 68.6332 116.857 58.0797 116.635 55.8089C116.604 55.4856 116.536 55.0725 116.433 54.5798L103.317 53.3148Z" fill="#3F4553"/>
<path d="M118.189 36.906C116.311 34.9713 113.755 35.3434 113.004 34.8225C112.455 34.4427 112.548 31.6074 112.637 30.1013L112.152 29.6497L109.923 31.6203C109.923 31.6203 109.622 34.0784 109.397 34.5993C109.172 35.1201 106.391 35.269 105.189 35.7154C104.006 36.1542 101.517 38.2505 99.9347 39.7336L101.491 41.5349C102.902 40.529 104.438 39.6618 104.438 39.6618C104.438 39.6618 105.567 45.2015 105.717 45.7994C105.867 46.3947 105.715 47.3877 105.715 47.6109C105.715 47.7751 103.993 50.7849 102.882 54.1744C105.036 55.1572 109.278 56.2733 116.707 55.3855C116.324 52.8607 114.581 47.6083 114.581 47.6083L115.933 40.257C115.933 40.257 117.233 40.9832 118.626 41.948L120.776 39.8901C119.859 38.7355 118.903 37.6424 118.189 36.906Z" fill="#9776A5"/>
<path d="M111.588 55.8372C107.289 55.8372 104.521 55.0597 102.83 54.2874C102.77 54.2591 102.742 54.1924 102.76 54.1309C103.57 51.6599 104.712 49.3711 105.261 48.2729C105.43 47.9368 105.575 47.6443 105.588 47.5878C105.585 47.5493 105.595 47.4493 105.606 47.3184C105.642 46.9207 105.702 46.2587 105.593 45.8251C105.458 45.2862 104.544 40.8216 104.347 39.8594C103.923 40.1057 102.7 40.8318 101.569 41.635C101.514 41.6734 101.439 41.6657 101.395 41.6144L99.8389 39.8157C99.7948 39.7644 99.7974 39.6874 99.8492 39.6387C101.211 38.3609 103.858 36.0695 105.147 35.5923C105.655 35.405 106.424 35.269 107.17 35.1381C108.063 34.9816 109.177 34.7866 109.28 34.5454C109.495 34.0476 109.793 31.6254 109.796 31.6023C109.798 31.5715 109.814 31.5433 109.837 31.5228L112.067 29.5522C112.116 29.5086 112.194 29.5086 112.243 29.5547L112.727 30.0063C112.756 30.032 112.771 30.0705 112.769 30.1064C112.582 33.2163 112.807 34.5274 113.082 34.7147C113.307 34.8713 113.755 34.9457 114.276 35.0329C115.425 35.2254 116.997 35.4896 118.284 36.8162C119.033 37.586 120.001 38.7047 120.879 39.8106C120.921 39.8619 120.915 39.9363 120.869 39.9825L118.719 42.0404C118.675 42.084 118.605 42.0891 118.556 42.0532C117.463 41.2963 116.42 40.683 116.031 40.4598L114.719 47.6007C114.864 48.0394 116.477 52.9608 116.839 55.3676C116.845 55.401 116.837 55.4369 116.813 55.4651C116.79 55.4933 116.762 55.5113 116.725 55.5139C114.809 55.7397 113.103 55.8372 111.588 55.8372ZM103.042 54.1026C105.308 55.1085 109.469 56.1015 116.56 55.2727C116.145 52.7401 114.478 47.6982 114.46 47.6468C114.452 47.6263 114.452 47.6058 114.454 47.5827L115.806 40.2314C115.814 40.1904 115.84 40.157 115.879 40.139C115.917 40.1211 115.961 40.1236 115.998 40.1442C116.011 40.1519 117.264 40.8524 118.613 41.7812L120.602 39.8773C119.75 38.8099 118.818 37.7374 118.095 36.9933C116.868 35.7283 115.343 35.4717 114.229 35.2844C113.654 35.1869 113.201 35.1125 112.929 34.9226C112.481 34.6121 112.336 33.0059 112.504 30.1475L112.152 29.8165L110.047 31.6767C110.003 32.0334 109.734 34.1451 109.519 34.6429C109.366 34.9944 108.542 35.1561 107.214 35.387C106.481 35.5153 105.72 35.6487 105.236 35.8283C104.166 36.2261 101.854 38.1146 100.113 39.7362L101.514 41.3553C102.889 40.3854 104.36 39.5515 104.373 39.5438C104.409 39.5232 104.453 39.5207 104.492 39.5386C104.531 39.5566 104.557 39.5899 104.565 39.631C104.575 39.6874 105.696 45.1759 105.844 45.7609C105.963 46.2356 105.901 46.9258 105.865 47.3389C105.854 47.4595 105.844 47.5519 105.844 47.6032C105.844 47.6725 105.795 47.7751 105.492 48.3833C104.956 49.4661 103.845 51.6907 103.042 54.1026Z" fill="#3F4553"/>
<path d="M114.53 35.2073C113.849 35.0892 113.294 35.0199 113.004 34.8198C112.455 34.4401 112.549 31.6047 112.637 30.0986L112.152 29.647L109.923 31.6176C109.923 31.6176 109.622 34.0757 109.397 34.5966C109.309 34.7967 108.84 34.943 108.232 35.0713C108.732 36.5595 109.83 39.2229 111.272 39.2229C112.676 39.2254 113.913 36.716 114.53 35.2073Z" fill="#FED9CE"/>
<path d="M111.272 39.3539C109.757 39.3539 108.641 36.6982 108.108 35.1125C108.097 35.0765 108.1 35.0406 108.118 35.0073C108.136 34.9765 108.167 34.9534 108.203 34.9457C109.024 34.7738 109.239 34.6326 109.278 34.5454C109.493 34.0476 109.791 31.6254 109.793 31.6023C109.796 31.5715 109.812 31.5433 109.835 31.5228L112.064 29.5522C112.114 29.5086 112.191 29.5086 112.241 29.5547L112.725 30.0063C112.753 30.032 112.769 30.0705 112.766 30.1064C112.58 33.2163 112.805 34.5274 113.08 34.7147C113.305 34.8713 113.755 34.9457 114.276 35.0329L114.55 35.0791C114.589 35.0868 114.623 35.1099 114.641 35.1432C114.659 35.1766 114.662 35.2177 114.649 35.2536C113.885 37.1241 112.678 39.3539 111.272 39.3539ZM108.4 35.1663C108.843 36.4493 109.92 39.0947 111.272 39.0947C112.554 39.0947 113.727 36.7854 114.348 35.3049L114.234 35.2844C113.66 35.1869 113.204 35.1125 112.932 34.9226C112.484 34.6121 112.339 33.0059 112.507 30.1475L112.155 29.8165L110.05 31.6767C110.006 32.0334 109.736 34.1451 109.521 34.6429C109.426 34.8559 109.099 35.0098 108.4 35.1663Z" fill="#3F4553"/>
<path d="M112.621 30.3706C112.344 30.3886 112.038 30.4578 111.823 30.5117C111.513 30.5887 110.912 30.9146 110.34 31.2507L109.925 31.6176C109.925 31.6176 109.804 32.6183 109.656 33.4779C110.174 33.2932 111.678 32.7107 112.574 31.864C112.577 31.3354 112.598 30.8145 112.621 30.3706Z" fill="#C6FF00"/>
<path d="M112.621 30.3706C112.344 30.3886 112.038 30.4578 111.823 30.5117C111.513 30.5887 110.912 30.9146 110.34 31.2507L109.925 31.6176C109.925 31.6176 109.804 32.6183 109.656 33.4779C110.174 33.2932 111.678 32.7107 112.574 31.864C112.577 31.3354 112.598 30.8145 112.621 30.3706Z" fill="#BFB2AA"/>
<path d="M109.695 68.5717C117.92 68.5717 124.588 61.965 124.588 53.8153C124.588 45.6655 117.92 39.0588 109.695 39.0588C101.47 39.0588 94.8023 45.6655 94.8023 53.8153C94.8023 61.965 101.47 68.5717 109.695 68.5717Z" fill="#FA6E5A"/>
<path d="M114.591 66.0827C106.367 66.0827 99.6989 59.4755 99.6989 51.3263C99.6989 46.5819 101.962 42.3636 105.474 39.6643C99.3053 41.4681 94.802 47.1182 94.802 53.8152C94.802 61.9644 101.47 68.5716 109.695 68.5716C113.131 68.5716 116.293 67.4144 118.812 65.4797C117.474 65.8697 116.057 66.0827 114.591 66.0827Z" fill="#E3604D"/>
<path d="M99.2456 48.3552C98.9841 48.3552 98.7458 48.1755 98.6863 47.9138C98.6138 47.6059 98.808 47.3006 99.1187 47.2313L103.226 46.2947L100.854 45.5609C100.551 45.466 100.382 45.1478 100.476 44.8476C100.569 44.5474 100.893 44.3806 101.196 44.473L105.595 45.8355C105.844 45.9124 106.01 46.1434 105.999 46.4025C105.989 46.6591 105.808 46.8772 105.554 46.9362L99.3751 48.3449C99.3311 48.3526 99.287 48.3552 99.2456 48.3552Z" fill="#3F4553"/>
<path d="M119.833 48.3552C119.789 48.3552 119.742 48.3501 119.698 48.3398L113.807 46.9312C113.553 46.8696 113.374 46.6489 113.367 46.3923C113.359 46.1357 113.527 45.9048 113.778 45.8304L118.401 44.4679C118.706 44.3781 119.025 44.55 119.115 44.8528C119.206 45.1556 119.033 45.4712 118.73 45.561L116.156 46.3205L119.97 47.2314C120.278 47.3058 120.47 47.6137 120.395 47.919C120.327 48.1808 120.092 48.3552 119.833 48.3552Z" fill="#3F4553"/>
<path d="M98.3186 50.7673C99.8205 57.1564 104.345 61.7981 109.695 61.7981C115.045 61.7981 119.571 57.1564 121.07 50.7673L119.095 50.4414C112.774 49.3945 106.336 49.4074 100.02 50.4799L98.3186 50.7673Z" fill="#3F4553"/>
<path d="M117.45 57.4539C115.488 56.1632 112.781 55.3652 109.788 55.3652C106.737 55.3652 103.985 56.1991 102.014 57.5334C104.088 59.8401 106.766 61.2386 109.695 61.2386C112.66 61.2386 115.366 59.8094 117.45 57.4539Z" fill="#4E5567"/>
<path d="M107.745 25.3902C107.745 25.3902 107.219 26.9528 106.769 27.8483C106.318 28.7413 106.994 31.497 107.52 32.3155C108.045 33.1341 109.022 32.9852 109.397 32.9108C109.773 32.8364 111.425 31.7947 112.028 31.1994C112.629 30.6041 112.929 30.3064 112.929 30.3064C112.929 30.3064 113.23 30.3064 113.53 29.7112C113.83 29.1159 112.629 27.7765 111.577 26.1369C110.526 24.4998 110.076 24.5742 110.076 24.5742L107.745 25.3902Z" fill="#FED9CE"/>
<path d="M108.833 33.0981C108.053 33.0981 107.634 32.7286 107.411 32.3822C106.87 31.5381 106.173 28.7412 106.652 27.7893C107.095 26.9143 107.618 25.3645 107.623 25.3491C107.636 25.3106 107.665 25.2824 107.704 25.2696L110.034 24.4511C110.143 24.4331 110.645 24.4408 111.689 26.0676C111.969 26.5038 112.256 26.9118 112.533 27.3069C113.331 28.4436 113.906 29.2647 113.649 29.7676C113.39 30.2808 113.116 30.3988 112.994 30.427L112.121 31.2917C111.505 31.9024 109.827 32.9596 109.426 33.0391C109.206 33.0802 109.009 33.0981 108.833 33.0981ZM107.849 25.4902C107.748 25.7879 107.289 27.1016 106.885 27.9048C106.455 28.7541 107.139 31.4842 107.631 32.2462C107.965 32.7671 108.553 32.9467 109.376 32.7851C109.7 32.7209 111.337 31.7048 111.94 31.107L112.841 30.2141C112.865 30.191 112.898 30.1756 112.932 30.1756C112.929 30.1756 113.165 30.1499 113.416 29.6521C113.603 29.2852 113.007 28.4359 112.318 27.4532C112.041 27.0554 111.754 26.6449 111.469 26.2061C110.599 24.8513 110.166 24.7153 110.096 24.7025L107.849 25.4902Z" fill="#3F4553"/>
<path d="M108.273 29.1032C108.257 29.1032 108.242 29.1007 108.226 29.0955C107.442 28.7953 107.512 28.5926 107.532 28.5285C107.584 28.3719 108.188 27.4893 108.371 27.2224C108.413 27.1634 108.493 27.148 108.55 27.1891C108.61 27.2301 108.625 27.3097 108.584 27.3661C108.239 27.8665 107.869 28.4258 107.789 28.5798C107.853 28.6465 108.084 28.7671 108.317 28.8569C108.384 28.8826 108.418 28.957 108.392 29.0237C108.374 29.0699 108.325 29.1032 108.273 29.1032Z" fill="#3F4553"/>
<path d="M110.896 27.9304C110.847 27.9304 110.8 27.9022 110.78 27.856C110.661 27.6045 110.505 27.4454 110.316 27.3813C110.062 27.2966 109.827 27.407 109.824 27.407C109.759 27.4377 109.682 27.4121 109.651 27.3505C109.62 27.2864 109.646 27.2094 109.708 27.1786C109.721 27.1709 110.042 27.0169 110.402 27.1401C110.658 27.2273 110.865 27.4326 111.015 27.7482C111.046 27.8124 111.018 27.8893 110.953 27.9201C110.933 27.9253 110.914 27.9304 110.896 27.9304Z" fill="#3F4553"/>
<path d="M108.118 27.217C108.076 27.217 108.037 27.199 108.012 27.1631C108.009 27.158 107.887 26.9963 107.706 26.9758C107.589 26.963 107.46 27.0169 107.328 27.1323C107.274 27.1785 107.193 27.176 107.144 27.1221C107.097 27.0682 107.1 26.9886 107.154 26.9399C107.343 26.7706 107.538 26.6987 107.737 26.7192C108.035 26.7526 108.216 27.0015 108.221 27.0117C108.263 27.0708 108.247 27.1503 108.19 27.1914C108.17 27.2093 108.144 27.217 108.118 27.217Z" fill="#3F4553"/>
<path d="M111.308 27.1143C111.254 27.1143 111.205 27.081 111.187 27.0271C110.824 25.9905 110.184 26.1342 110.159 26.1419C110.089 26.1572 110.019 26.1188 110.001 26.0495C109.982 25.9802 110.024 25.9109 110.091 25.893C110.099 25.8904 110.985 25.6723 111.43 26.9424C111.453 27.0091 111.417 27.0835 111.35 27.1066C111.337 27.1118 111.321 27.1143 111.308 27.1143Z" fill="#3F4553"/>
<path d="M107.501 26.6036C107.48 26.6036 107.462 26.5985 107.444 26.5908C107.379 26.56 107.354 26.483 107.387 26.4189C107.532 26.1289 107.726 25.957 107.965 25.9031C108.327 25.821 108.648 26.0597 108.661 26.0699C108.718 26.1136 108.729 26.1931 108.685 26.2495C108.641 26.306 108.56 26.3163 108.503 26.2726C108.501 26.2701 108.262 26.0956 108.019 26.152C107.861 26.188 107.726 26.3163 107.618 26.5318C107.594 26.578 107.548 26.6036 107.501 26.6036Z" fill="#3F4553"/>
<path d="M107.81 29.6879C107.81 29.6879 108.734 30.0446 109.918 29.3826C109.918 29.3826 109.301 30.2986 108.581 30.4012C107.861 30.5013 107.81 29.6879 107.81 29.6879Z" fill="#3F4553"/>
<path d="M99.4428 40.2825C99.4428 40.2825 96.1878 42.9895 95.6673 44.7317C95.1467 46.474 95.5378 50.4716 95.473 51.6956C95.4083 52.9195 96.2551 54.2743 96.6435 54.5334C97.0345 54.7926 97.0993 54.341 97.0345 53.8894C96.9698 53.4378 96.9698 51.1157 96.9698 51.1157C96.9698 51.1157 97.555 52.7912 97.6198 52.4705C97.6845 52.1472 97.6845 51.5673 97.4256 50.6641C97.1666 49.7609 96.514 48.4728 96.5788 48.2136C96.6435 47.9545 98.7255 44.0877 99.0518 42.8612" fill="#FED9CE"/>
<path d="M96.8428 54.7363C96.7703 54.7363 96.6797 54.7106 96.5709 54.6388C96.1618 54.3694 95.2736 52.9735 95.3409 51.688C95.359 51.3236 95.3383 50.7001 95.3124 49.9765C95.2528 48.2702 95.17 45.9327 95.5403 44.6959C96.066 42.9383 99.2201 40.2954 99.3547 40.1851C99.4091 40.1389 99.492 40.1466 99.536 40.2005C99.5826 40.2544 99.5748 40.3365 99.5205 40.3801C99.4894 40.4058 96.2913 43.0846 95.7863 44.7678C95.4289 45.9661 95.5092 48.2779 95.5688 49.9689C95.5947 50.6976 95.6154 51.3288 95.5973 51.7034C95.5351 52.8786 96.3508 54.1897 96.7108 54.4284C96.7859 54.4771 96.8377 54.4874 96.8532 54.4797C96.9024 54.4489 96.9516 54.2513 96.9024 53.9101C96.8377 53.4559 96.8351 51.2159 96.8351 51.1184C96.8351 51.0568 96.8817 51.0029 96.9438 50.9926C97.006 50.9824 97.0681 51.0183 97.0888 51.0773C97.2261 51.4725 97.3996 51.9164 97.5213 52.1781C97.5343 51.8779 97.498 51.4006 97.2986 50.7027C97.1872 50.3127 96.9956 49.8406 96.8273 49.4249C96.5476 48.7321 96.4052 48.3626 96.4492 48.1856C96.4725 48.0932 96.6409 47.7571 97.0189 47.0078C97.6508 45.7531 98.7047 43.6542 98.9249 42.8331C98.943 42.7638 99.0155 42.7228 99.0828 42.7407C99.1527 42.7587 99.1942 42.828 99.176 42.8973C98.9507 43.744 97.9279 45.7762 97.252 47.1207C96.9801 47.6621 96.7237 48.1702 96.703 48.2471C96.6797 48.36 96.8972 48.8963 97.0707 49.3274C97.2416 49.7507 97.4333 50.228 97.5498 50.6308C97.8424 51.6495 97.801 52.2371 97.7466 52.4962C97.7207 52.622 97.6301 52.6374 97.6016 52.6399C97.5239 52.6451 97.4177 52.6528 97.1018 51.8496C97.107 52.5681 97.1225 53.5919 97.1614 53.869C97.1976 54.1153 97.2235 54.5515 96.993 54.6926C96.9594 54.7183 96.9076 54.7363 96.8428 54.7363Z" fill="#3F4553"/>
<path d="M96.8195 54.6386C96.7677 54.6386 96.7159 54.6053 96.6978 54.554C96.6926 54.5437 96.2783 53.4019 96.0737 51.9753C96.0634 51.906 96.1126 51.8393 96.1825 51.829C96.2524 51.8187 96.3197 51.8675 96.3301 51.9368C96.5321 53.3352 96.9386 54.4513 96.9412 54.4642C96.9645 54.5309 96.9309 54.6053 96.8635 54.6284C96.848 54.6361 96.8325 54.6386 96.8195 54.6386Z" fill="#3F4553"/>
<path d="M96.356 54.3309C96.3094 54.3309 96.2628 54.3052 96.2395 54.259C96.2214 54.2257 95.8174 53.4123 95.5584 52.0806C95.5455 52.0113 95.5921 51.9446 95.662 51.9292C95.7319 51.9164 95.7993 51.96 95.8148 52.0319C96.066 53.3276 96.47 54.1359 96.4725 54.1436C96.5036 54.2077 96.4777 54.2847 96.4156 54.3155C96.3949 54.3283 96.3741 54.3309 96.356 54.3309Z" fill="#3F4553"/>
<path d="M120.903 40.2825C120.903 40.2825 124.158 42.9895 124.678 44.7317C125.199 46.474 124.808 50.4716 124.872 51.6956C124.937 52.9195 124.09 54.2743 123.702 54.5334C123.314 54.7926 123.246 54.341 123.311 53.8894C123.376 53.4378 123.376 51.1157 123.376 51.1157C123.376 51.1157 122.79 52.7912 122.726 52.4705C122.661 52.1497 122.661 51.5673 122.92 50.6641C123.181 49.7609 123.831 48.4728 123.767 48.2136C123.702 47.9545 121.62 44.0877 121.294 42.8612" fill="#FED9CE"/>
<path d="M123.503 54.7363C123.438 54.7363 123.389 54.7157 123.35 54.6926C123.122 54.5515 123.148 54.1153 123.182 53.869C123.22 53.5919 123.236 52.5655 123.241 51.8496C122.925 52.6502 122.824 52.6451 122.741 52.6399C122.713 52.6374 122.622 52.622 122.596 52.4962C122.545 52.2371 122.501 51.6495 122.793 50.6308C122.91 50.228 123.101 49.7507 123.272 49.3274C123.446 48.8963 123.661 48.36 123.637 48.2471C123.617 48.1727 123.36 47.6595 123.088 47.1181C122.412 45.7736 121.39 43.7414 121.167 42.8973C121.149 42.828 121.19 42.7587 121.26 42.7407C121.327 42.7228 121.4 42.7638 121.418 42.8331C121.636 43.6516 122.692 45.7531 123.321 47.0052C123.699 47.7571 123.868 48.0932 123.891 48.1856C123.935 48.3626 123.793 48.7321 123.513 49.4249C123.345 49.8406 123.156 50.3127 123.042 50.7027C122.84 51.4006 122.803 51.8779 122.819 52.1781C122.941 51.9138 123.112 51.4725 123.251 51.0773C123.272 51.0183 123.332 50.9824 123.397 50.9926C123.459 51.0029 123.505 51.0568 123.505 51.1184C123.505 51.2133 123.505 53.4533 123.438 53.9101C123.389 54.2513 123.438 54.4489 123.487 54.4797C123.503 54.4899 123.554 54.4797 123.63 54.4284C123.99 54.1897 124.805 52.8786 124.743 51.7034C124.722 51.3288 124.746 50.6976 124.772 49.9689C124.831 48.2805 124.911 45.9661 124.554 44.7678C124.049 43.0846 120.854 40.4083 120.82 40.3801C120.766 40.3339 120.758 40.2544 120.804 40.2005C120.851 40.1466 120.931 40.1389 120.986 40.1851C121.12 40.2954 124.274 42.9383 124.8 44.6959C125.17 45.9327 125.087 48.2702 125.028 49.9765C125.002 50.7001 124.981 51.3262 124.999 51.688C125.067 52.9735 124.179 54.3694 123.769 54.6388C123.663 54.7132 123.575 54.7363 123.503 54.7363Z" fill="#3F4553"/>
<path d="M123.508 54.536C123.497 54.536 123.487 54.536 123.474 54.5309C123.404 54.513 123.363 54.4437 123.381 54.3744C123.386 54.359 123.79 52.7938 123.79 51.7521C123.79 51.6802 123.847 51.6238 123.919 51.6238C123.992 51.6238 124.049 51.6802 124.049 51.7521C124.049 52.8272 123.65 54.3744 123.632 54.4385C123.619 54.4976 123.565 54.536 123.508 54.536Z" fill="#3F4553"/>
<path d="M123.971 54.4848C123.956 54.4848 123.943 54.4822 123.927 54.4771C123.86 54.454 123.826 54.3796 123.849 54.3128C123.855 54.2974 124.461 52.6424 124.461 52.0087C124.461 51.9368 124.518 51.8804 124.59 51.8804C124.663 51.8804 124.72 51.9368 124.72 52.0087C124.72 52.6861 124.119 54.3308 124.093 54.4001C124.075 54.454 124.023 54.4848 123.971 54.4848Z" fill="#3F4553"/>
<path d="M64.219 94.9976C75.9465 94.9976 85.4535 92.7816 85.4535 90.048C85.4535 87.3144 75.9465 85.0984 64.219 85.0984C52.4916 85.0984 42.9846 87.3144 42.9846 90.048C42.9846 92.7816 52.4916 94.9976 64.219 94.9976Z" fill="#F4A17C"/>
<path d="M65.4435 94.9995C77.8581 94.9995 87.922 92.7903 87.922 90.0652C87.922 87.34 77.8581 85.1309 65.4435 85.1309C53.029 85.1309 42.9651 87.34 42.9651 90.0652C42.9651 92.7903 53.029 94.9995 65.4435 94.9995Z" fill="#F4A17C"/>
<path d="M55.296 86.6071C55.296 86.6071 52.1471 88.2467 51.5541 89.096C50.9611 89.9453 51.7509 90.6201 52.9343 90.7022C54.1178 90.7843 58.9887 89.1601 59.429 88.9497C59.8718 88.7393 59.5507 87.4641 59.2296 86.8072C58.9111 86.1478 55.296 86.6071 55.296 86.6071Z" fill="#E49621"/>
<path d="M53.0251 90.8331C52.9888 90.8331 52.9551 90.8331 52.9241 90.8305C52.1394 90.7767 51.5205 90.4662 51.3056 90.0249C51.202 89.8093 51.1399 89.4604 51.4454 89.0242C52.0514 88.1595 55.1045 86.5635 55.234 86.4942C55.2469 86.4865 55.2624 86.4814 55.278 86.4814C55.8969 86.4018 59.0018 86.0477 59.3436 86.7508C59.5223 87.1177 59.6776 87.6181 59.7398 88.026C59.8252 88.5931 59.7398 88.942 59.4808 89.0652C59.0458 89.273 54.3949 90.8331 53.0251 90.8331ZM55.3349 86.7303C55.063 86.874 52.2042 88.3878 51.6578 89.1679C51.4687 89.4373 51.4299 89.6887 51.5386 89.912C51.7121 90.2712 52.2508 90.5252 52.9422 90.5739C54.1075 90.6586 58.9344 89.0421 59.3721 88.8343C59.5067 88.7701 59.5508 88.4828 59.486 88.0645C59.429 87.6796 59.2814 87.2075 59.1131 86.8611C58.9215 86.466 56.798 86.5481 55.3349 86.7303Z" fill="#3F4553"/>
<path d="M59.5918 87.908C58.3436 88.4494 54.8995 89.9094 53.7109 90.0607C52.7424 90.1839 51.8515 89.8221 51.3595 89.563C51.2793 90.1813 51.9784 90.6355 52.934 90.7022C54.1174 90.7843 58.9884 89.1601 59.4286 88.9497C59.672 88.8317 59.6824 88.3903 59.5918 87.908Z" fill="#F1BD54"/>
<path d="M53.0247 90.8333C52.9885 90.8333 52.9548 90.8333 52.9237 90.8307C52.2608 90.7845 51.717 90.5613 51.4322 90.2175C51.269 90.0199 51.1991 89.789 51.2276 89.5478C51.2328 89.5067 51.2587 89.4682 51.2975 89.4503C51.3337 89.4297 51.3804 89.4297 51.4166 89.4503C51.8594 89.6838 52.7451 90.0558 53.6928 89.9352C54.8789 89.7838 58.4654 88.2571 59.5375 87.7927C59.5737 87.7773 59.6152 87.7773 59.6488 87.7978C59.6825 87.8158 59.7084 87.8492 59.7162 87.8876C59.8379 88.5266 59.7576 88.9345 59.4831 89.0654C59.0455 89.2732 54.3946 90.8333 53.0247 90.8333ZM51.4917 89.7736C51.5124 89.8736 51.559 89.966 51.6315 90.0558C51.8672 90.3406 52.3566 90.5331 52.9393 90.5741C54.1046 90.6588 58.9315 89.0423 59.3692 88.8345C59.5012 88.7703 59.5427 88.4932 59.4883 88.0929C58.0252 88.7241 54.8685 90.043 53.7239 90.1893C52.8357 90.2996 52.0019 90.0122 51.4917 89.7736Z" fill="#3F4553"/>
<path d="M70.5463 86.6071C70.5463 86.6071 73.6952 88.2467 74.2882 89.096C74.8812 89.9453 74.0914 90.6201 72.908 90.7022C71.7245 90.7843 66.8536 89.1601 66.4133 88.9497C65.9705 88.7393 66.2916 87.4641 66.6127 86.8072C66.9338 86.1478 70.5463 86.6071 70.5463 86.6071Z" fill="#E49621"/>
<path d="M72.8199 90.8331C71.4474 90.8331 66.7992 89.2731 66.3589 89.0653C66.1026 88.9421 66.0145 88.5931 66.1 88.0261C66.1621 87.6181 66.3175 87.1177 66.4962 86.7508C66.838 86.0452 69.9429 86.4019 70.5618 86.4814C70.5773 86.484 70.5929 86.4891 70.6058 86.4942C70.7353 86.561 73.791 88.1569 74.3944 89.0242C74.6999 89.4604 74.6404 89.8094 74.5342 90.0249C74.3193 90.4688 73.7004 90.7767 72.9157 90.8306C72.8872 90.8306 72.8536 90.8331 72.8199 90.8331ZM68.239 86.5789C67.4543 86.5789 66.8302 86.6559 66.7293 86.8612C66.5609 87.2076 66.4133 87.6797 66.3564 88.0646C66.2916 88.4828 66.3356 88.7702 66.4703 88.8343C66.8976 89.0396 71.5096 90.5791 72.8096 90.5791C72.8432 90.5791 72.8717 90.5791 72.9002 90.5766C73.5916 90.5278 74.1276 90.2738 74.3037 89.9146C74.4125 89.6913 74.3711 89.4399 74.1846 89.1705C73.6408 88.3904 70.7793 86.8766 70.5074 86.7329C69.8082 86.6431 68.9563 86.5789 68.239 86.5789Z" fill="#3F4553"/>
<path d="M66.2523 87.908C67.5005 88.4494 70.9446 89.9094 72.1332 90.0607C73.1017 90.1839 73.9925 89.8221 74.4845 89.563C74.5648 90.1813 73.8656 90.6355 72.9101 90.7022C71.7267 90.7843 66.8557 89.1601 66.4155 88.9497C66.1695 88.8317 66.1591 88.3903 66.2523 87.908Z" fill="#F1BD54"/>
<path d="M72.8195 90.8332C71.4471 90.8332 66.7988 89.2731 66.3586 89.0653C66.0841 88.9344 66.0038 88.5264 66.1255 87.8875C66.1333 87.849 66.1566 87.8157 66.1928 87.7977C66.2291 87.7798 66.2679 87.7772 66.3042 87.7926C67.3763 88.257 70.9654 89.7837 72.1488 89.9351C73.0966 90.0557 73.9822 89.6836 74.4251 89.4501C74.4639 89.4296 74.5079 89.4296 74.5442 89.4501C74.583 89.4707 74.6089 89.5066 74.6141 89.5476C74.6452 89.7888 74.5753 90.0198 74.4095 90.2173C74.1247 90.5612 73.5809 90.7844 72.9179 90.8306C72.8869 90.8306 72.8532 90.8332 72.8195 90.8332ZM66.3534 88.0928C66.2964 88.4931 66.3404 88.7702 66.4725 88.8343C66.8998 89.0396 71.5118 90.5766 72.8118 90.5791C72.8454 90.5791 72.8739 90.5791 72.9024 90.5766C73.485 90.5355 73.9745 90.3405 74.2101 90.0583C74.2826 89.971 74.3292 89.8761 74.35 89.776C73.8424 90.0146 73.0112 90.3046 72.1152 90.1917C70.9706 90.0429 67.8165 88.724 66.3534 88.0928Z" fill="#3F4553"/>
<path d="M56.8547 54.5002C56.8547 54.5002 53.9881 66.7909 53.5893 68.5459C53.1905 70.301 52.8979 72.2742 53.364 73.4545C53.8301 74.6348 55.3243 86.2173 55.3243 86.2173L59.6178 87.377C59.6178 87.377 59.6722 79.9359 59.5298 77.0108C59.3873 74.0857 59.2216 70.3883 59.2216 70.3883L63.7844 59.1214L64.538 60.1093L67.9536 70.2086L65.9441 87.1358L70.0279 86.0761C70.0279 86.0761 73.5367 75.3096 74.109 73.0696C74.6787 70.8296 74.9532 69.3234 74.5078 68.2945C74.0624 67.2656 71.1724 55.7832 71.1724 55.7832L56.8547 54.5002Z" fill="#3F4553"/>
<path d="M59.6152 87.5027C59.6049 87.5027 59.5919 87.5001 59.5816 87.4975L55.2881 86.3377C55.2389 86.3249 55.2 86.2813 55.1949 86.23C55.1793 86.1145 53.6955 74.6501 53.2423 73.498C52.8539 72.5102 52.9238 70.8808 53.4624 68.5151C53.856 66.7805 56.6994 54.5925 56.7279 54.4694C56.7434 54.4078 56.8004 54.3642 56.8651 54.3693L71.1777 55.6523C71.232 55.6574 71.2786 55.6959 71.2916 55.7498C71.3201 55.8652 74.1841 67.2347 74.6218 68.2405C75.0698 69.272 74.8289 70.7423 74.2282 73.0977C73.6636 75.3172 70.1807 86.0042 70.147 86.1119C70.1341 86.153 70.1004 86.1864 70.0564 86.1966L65.9726 87.2563C65.9312 87.2666 65.8872 87.2563 65.8535 87.2281C65.8198 87.1999 65.8043 87.1588 65.8095 87.1152L67.8164 70.2188L64.4163 60.1657L63.8129 59.3754L59.3511 70.4087C59.3666 70.7525 59.522 74.2242 59.6593 77.003C59.8017 79.8974 59.7473 87.3025 59.7473 87.3769C59.7473 87.418 59.7292 87.4539 59.6955 87.477C59.6722 87.495 59.6437 87.5027 59.6152 87.5027ZM55.4409 86.1145L59.4884 87.2076C59.4961 86.0889 59.5298 79.6587 59.4003 77.0133C59.2579 74.0882 59.0921 70.3907 59.0921 70.3907C59.0921 70.3728 59.0947 70.3548 59.1025 70.3368L63.6653 59.07C63.6835 59.0264 63.7223 58.9956 63.7689 58.9905C63.8181 58.9853 63.8621 59.0033 63.8906 59.0418L64.6442 60.0297C64.6519 60.0399 64.6597 60.0528 64.6623 60.0656L68.0779 70.1649C68.0831 70.1829 68.0857 70.2009 68.0831 70.2214L66.0943 86.9613L69.9269 85.9657C70.2247 85.0522 73.4435 75.153 73.9822 73.0336C74.5674 70.7346 74.8056 69.3028 74.3887 68.3406C73.9589 67.3527 71.3589 57.0481 71.0689 55.8986L56.9583 54.6336C56.6735 55.8575 54.0917 66.9242 53.7188 68.569C53.1931 70.8834 53.118 72.464 53.4883 73.4031C53.9337 74.5475 55.2933 84.9778 55.4409 86.1145Z" fill="#3F4553"/>
<path d="M67.3188 84.5647C67.3136 84.5647 67.3084 84.5647 67.3033 84.5647C67.2333 84.557 67.1816 84.4928 67.1893 84.421C67.2049 84.2978 68.6835 72.0791 68.7612 71.3965C68.8026 71.0476 68.813 70.9424 69.0538 70.9295C69.1678 70.9244 69.4086 70.9116 69.9369 70.56C70.0637 70.4754 70.1466 70.4138 70.1984 70.3727C70.1285 70.3727 70.0404 70.3753 69.9653 70.3779C69.6442 70.3881 69.204 70.4035 68.8907 70.2675C68.163 69.9519 66.2415 63.5885 65.8635 62.3133C65.8427 62.2466 65.8816 62.1747 65.9515 62.1542C66.0188 62.1337 66.0913 62.1722 66.1121 62.2414C67.1919 65.8799 68.5696 69.8467 68.9943 70.0315C69.2558 70.1444 69.6624 70.1315 69.9576 70.1213C70.2968 70.111 70.4858 70.1033 70.5376 70.2573C70.5817 70.3907 70.4755 70.5113 70.0845 70.773C69.4966 71.1656 69.2092 71.181 69.0693 71.1861C69.0642 71.1861 69.059 71.1861 69.0538 71.1861C69.0435 71.2323 69.0331 71.3221 69.0227 71.4247C68.945 72.1098 67.4638 84.3286 67.4483 84.4518C67.4405 84.5159 67.3835 84.5647 67.3188 84.5647Z" fill="#4E5567"/>
<path d="M59.3663 81.881C59.3016 81.881 59.2446 81.8323 59.2369 81.7681L59.1281 80.8521C59.1203 80.7828 59.1721 80.7187 59.242 80.711C59.312 80.7033 59.3767 80.7546 59.3845 80.8239L59.4932 81.7399C59.501 81.8092 59.4492 81.8733 59.3793 81.881C59.3767 81.881 59.3715 81.881 59.3663 81.881Z" fill="#4E5567"/>
<path d="M59.0997 79.5972C59.035 79.5972 58.978 79.5484 58.9703 79.4843L58.0044 71.2657C57.8334 71.2298 57.4372 71.1426 56.9167 70.9989C56.8235 70.9732 56.6267 70.9193 56.6189 70.7654C56.6086 70.5935 56.8132 70.5114 57.2637 70.3317C57.6133 70.1932 58.051 70.0187 58.4498 69.7698C58.9262 69.4747 60.0579 67.0217 61.5521 63.042C61.578 62.9753 61.6505 62.942 61.7178 62.9676C61.7851 62.9933 61.8188 63.0651 61.7929 63.1319C60.7053 66.0262 59.2655 69.5645 58.5844 69.9879C58.1649 70.2471 57.6988 70.4344 57.357 70.5704C57.2094 70.6294 57.0488 70.6935 56.9478 70.7423C56.9582 70.7449 56.9685 70.7474 56.9815 70.7525C57.6729 70.9424 58.139 71.0322 58.1442 71.0348C58.1986 71.0451 58.2426 71.0912 58.2478 71.1451L59.224 79.456C59.2318 79.5253 59.18 79.5895 59.1101 79.5972C59.1101 79.5972 59.1049 79.5972 59.0997 79.5972Z" fill="#4E5567"/>
<path d="M62.1683 61.8746C62.1528 61.8746 62.1398 61.872 62.1243 61.8669C62.057 61.8438 62.0233 61.7694 62.0466 61.7026C62.2227 61.2202 62.3263 60.9252 62.3263 60.9252C62.3496 60.8585 62.4247 60.8225 62.492 60.8456C62.5593 60.8687 62.5956 60.9431 62.5723 61.0098C62.5723 61.0098 62.4687 61.3049 62.2926 61.7899C62.2719 61.8412 62.2227 61.8746 62.1683 61.8746Z" fill="#4E5567"/>
<path d="M65.527 34.5015C65.527 34.5015 58.5792 33.3699 55.7799 32.8721C52.9806 32.3743 50.5748 31.9048 50.5748 31.9048L49.3552 35.7767C49.3552 35.7767 54.9098 37.6293 56.3729 38.0629C57.836 38.4966 58.4135 38.7326 58.4135 38.7326C58.4135 38.7326 58.6051 48.0802 58.0043 50.0918C57.4035 52.1035 56.0518 56.1473 56.0518 56.1473L63.2093 60.1193L64.6465 57.9229L64.7579 59.9987C64.7579 59.9987 67.0082 59.8679 69.0359 59.2238C71.0635 58.5798 72.2909 57.8049 72.2909 57.8049L70.6828 50.8051L72.8762 41.7758C72.8762 41.7758 83.9285 39.5999 83.9932 38.8943C84.0579 38.1887 82.4731 35.6022 82.4731 35.6022L67.4977 34.6349L65.527 34.5015Z" fill="#FFF9F1"/>
<path d="M63.2099 60.2504C63.1892 60.2504 63.1659 60.2452 63.1477 60.235L55.9902 56.263C55.9358 56.2322 55.9099 56.168 55.9306 56.1116C55.9436 56.0705 57.2901 52.0472 57.8831 50.0586C58.4399 48.1907 58.3052 39.7669 58.2871 38.8226C58.0851 38.7456 57.4818 38.525 56.3372 38.1863C54.8896 37.7578 49.3712 35.918 49.3169 35.9001C49.2495 35.877 49.2133 35.8077 49.234 35.741L50.4537 31.8691C50.4744 31.8075 50.5365 31.7664 50.6013 31.7818C50.6246 31.7869 53.0381 32.2565 55.8037 32.7466C58.5357 33.2315 65.3048 34.3349 65.5431 34.3759L67.5086 34.5119L82.484 35.4793C82.5254 35.4818 82.5643 35.5049 82.5876 35.5408C82.7507 35.8103 84.1931 38.1863 84.1258 38.9124C84.1077 39.0997 84.0766 39.4461 78.4417 40.7316C75.9635 41.2961 73.462 41.799 72.9855 41.894L70.818 50.8156L72.4184 57.7845C72.4313 57.8384 72.408 57.8923 72.3614 57.9205C72.3485 57.9282 71.0951 58.7134 69.0752 59.3549C67.0554 59.9963 64.7895 60.1349 64.7662 60.1349C64.7325 60.1375 64.6989 60.1246 64.673 60.1015C64.6471 60.0784 64.6315 60.0477 64.629 60.0117L64.5383 58.3285L63.3186 60.1939C63.2927 60.2298 63.2513 60.2504 63.2099 60.2504ZM56.2077 56.0911L63.1659 59.9527L64.5357 57.859C64.5668 57.8128 64.6238 57.7922 64.6782 57.8051C64.7325 57.8205 64.7714 57.8667 64.774 57.9231L64.8801 59.868C65.3877 59.8296 67.2833 59.6525 68.995 59.1085C70.6989 58.5671 71.8435 57.9257 72.1439 57.7486L70.5565 50.8412C70.5513 50.8207 70.5513 50.8028 70.5565 50.7822L72.7498 41.7529C72.7628 41.7041 72.8016 41.6682 72.8508 41.6579C78.0092 40.6418 83.6234 39.323 83.8694 38.8765C83.9134 38.3608 82.8543 36.4851 82.3986 35.7333L67.4904 34.7711L65.5172 34.6351C65.512 34.6351 65.5094 34.6351 65.5042 34.6325C65.4343 34.6223 58.5254 33.4933 55.7571 33.0032C53.3281 32.5721 51.1736 32.1564 50.6634 32.0589L49.5163 35.7025C50.3346 35.9745 55.0838 37.5525 56.4097 37.9476C57.8624 38.3787 58.4399 38.6122 58.4632 38.6225C58.5098 38.643 58.5409 38.6866 58.5435 38.7379C58.5513 39.1203 58.7273 48.1291 58.1292 50.1356C57.5879 51.9446 56.4226 55.4522 56.2077 56.0911Z" fill="#3F4553"/>
<path d="M63.0953 34.0193L62.7924 38.4506L66.4618 37.0265L70.3616 40.0081L70.2373 34.1835L63.0953 34.0193Z" fill="white"/>
<path d="M70.3619 40.1364C70.3335 40.1364 70.305 40.1261 70.2817 40.1107L66.4413 37.1753L62.8393 38.5737C62.7978 38.5891 62.7512 38.584 62.715 38.5583C62.6787 38.5327 62.6606 38.4891 62.6632 38.4454L62.9661 34.0142C62.9713 33.9449 63.0361 33.8961 63.0982 33.8936L70.2376 34.0578C70.3076 34.0603 70.3619 34.1142 70.3645 34.1835L70.4888 40.0081C70.4888 40.0568 70.4629 40.103 70.4189 40.1261C70.4008 40.1312 70.3827 40.1364 70.3619 40.1364ZM66.4621 36.8982C66.4905 36.8982 66.519 36.9085 66.5423 36.9239L70.2273 39.7412L70.1108 34.3092L63.2173 34.1501L62.9351 38.2581L66.4154 36.9085C66.431 36.9008 66.4465 36.8982 66.4621 36.8982Z" fill="#3F4553"/>
<path d="M64.7891 57.6306C64.7865 57.6306 64.7814 57.6306 64.7788 57.6306C64.7063 57.6254 64.6545 57.5639 64.6596 57.492L66.0994 40.5212C66.1046 40.4494 66.1693 40.4006 66.2393 40.4032C66.3118 40.4083 66.3636 40.4699 66.3584 40.5417L64.9186 57.5125C64.9108 57.5818 64.8539 57.6306 64.7891 57.6306Z" fill="#3F4553"/>
<path d="M72.8766 41.9066C72.8507 41.9066 72.8248 41.8989 72.8041 41.8835C72.7523 41.8476 72.7316 41.7809 72.7601 41.7219L74.4925 38.0988C74.5236 38.0347 74.6012 38.009 74.666 38.0372C74.7307 38.068 74.7592 38.145 74.7281 38.2092L73.3505 41.0881L76.4942 37.755C76.5434 37.7037 76.6237 37.7011 76.6781 37.7499C76.7299 37.7986 76.7325 37.8782 76.6833 37.932L72.9724 41.8681C72.9465 41.8938 72.9102 41.9066 72.8766 41.9066Z" fill="#3F4553"/>
<path d="M58.4139 38.8635C58.375 38.8635 58.3362 38.8455 58.3103 38.8122L55.4669 35.1121C55.4229 35.0557 55.4333 34.9762 55.4902 34.9325C55.5472 34.8889 55.6275 34.8992 55.6715 34.9556L57.9192 37.8782L57.1346 35.9846C57.1087 35.9204 57.1398 35.8434 57.2045 35.8178C57.2693 35.7921 57.347 35.8229 57.3729 35.887L58.5304 38.6839C58.5537 38.7429 58.5304 38.8122 58.476 38.843C58.4579 38.8558 58.4346 38.8635 58.4139 38.8635Z" fill="#3F4553"/>
<path d="M64.7789 34.3784L66.2265 40.5314L68.8212 34.7248L67.4953 34.6401L65.5247 34.5041C65.5273 34.5016 65.245 34.4554 64.7789 34.3784Z" fill="white"/>
<path d="M66.2267 40.6597C66.2215 40.6597 66.2189 40.6597 66.2137 40.6597C66.1593 40.6546 66.1127 40.6161 66.0998 40.5622L64.6522 34.4092C64.6419 34.3681 64.6548 34.3245 64.6833 34.2911C64.7118 34.2578 64.7558 34.245 64.7998 34.2527L65.5482 34.3758L68.8317 34.5965C68.8732 34.599 68.912 34.6221 68.9353 34.6581C68.956 34.694 68.9612 34.7376 68.9431 34.7761L66.3484 40.5827C66.3251 40.6289 66.2784 40.6597 66.2267 40.6597ZM64.95 34.5375L66.2655 40.1286L68.6298 34.8402L65.5171 34.6298L64.95 34.5375Z" fill="#3F4553"/>
<path d="M64.7789 34.3784L66.2265 40.5314L68.8212 34.7248L67.4953 34.6401L65.5247 34.5041C65.5273 34.5016 65.245 34.4554 64.7789 34.3784Z" fill="#C6FF00"/>
<path d="M64.7789 34.3784L66.2265 40.5314L68.8212 34.7248L67.4953 34.6401L65.5247 34.5041C65.5273 34.5016 65.245 34.4554 64.7789 34.3784Z" fill="#FED9CE"/>
<path d="M86.7337 37.4908C86.7337 37.4908 86.8606 38.5146 86.2857 38.9636C85.7134 39.4127 83.2922 40.1901 82.6137 39.7873C81.9353 39.3844 80.9745 37.2522 81.35 35.7511C81.7255 34.2527 83.994 34.8095 83.994 34.8095C83.994 34.8095 86.2106 35.5125 86.7337 37.4908Z" fill="white"/>
<path d="M83.1804 40.026C82.9189 40.026 82.6988 39.9875 82.5486 39.8977C81.7924 39.4487 80.8524 37.2138 81.2253 35.7205C81.3936 35.0482 81.9374 34.6582 82.8024 34.5889C83.4316 34.5401 84.0013 34.6761 84.0246 34.6838C84.1256 34.7146 86.3242 35.4331 86.8576 37.455C86.8602 37.4601 86.8602 37.4653 86.8602 37.473C86.8654 37.5166 86.9871 38.5737 86.3656 39.0613C85.915 39.4179 84.224 40.026 83.1804 40.026ZM83.0846 34.8378C82.4502 34.8378 81.6681 35.0046 81.4739 35.782C81.1088 37.2395 82.0721 39.3153 82.6806 39.6771C83.2944 40.0414 85.6405 39.305 86.205 38.8637C86.6893 38.4839 86.6142 37.6064 86.6064 37.514C86.104 35.6358 83.9754 34.9404 83.9547 34.9327C83.9469 34.9302 83.5559 34.8378 83.0846 34.8378Z" fill="#575C69"/>
<path d="M84.6825 38.5762C83.6207 38.6352 82.6859 37.8809 82.4166 36.8622C81.7407 34.2861 80.0938 28.2229 79.4671 27.8072C78.6695 27.2812 78.0584 27.1478 78.0687 26.6602C78.0791 26.1753 78.1205 24.2303 78.1205 24.2303C78.1205 24.2303 78.4753 23.7018 78.7109 24.1944C78.9466 24.6845 78.8896 25.072 78.8896 25.072C78.8896 25.072 79.2806 23.9866 79.2392 23.6453C79.1978 23.3041 79.1175 22.3803 79.1227 22.1366C79.1278 21.8928 79.4515 21.6824 79.9306 22.1776C80.4097 22.6728 81.3445 23.7377 81.1632 24.2432C80.982 24.7487 80.6583 27.2453 80.6583 27.2453C80.6583 27.2453 86.6557 35.9693 86.5418 36.7442C86.4589 37.301 85.9747 38.5044 84.6825 38.5762Z" fill="#FED9CE"/>
<path d="M84.5659 38.707C83.5171 38.707 82.5719 37.9603 82.2923 36.8929C80.9094 31.62 79.7985 28.1792 79.3971 27.9123C79.1667 27.7609 78.9517 27.6429 78.7627 27.5377C78.281 27.2708 77.9314 27.0784 77.9418 26.6576L77.9936 24.2277C77.9936 24.2046 78.0014 24.1789 78.0143 24.1584C78.035 24.1251 78.2344 23.8377 78.4908 23.8556C78.6306 23.8659 78.7446 23.9608 78.83 24.1379C78.8844 24.2508 78.9233 24.3611 78.9543 24.4612C79.0501 24.1302 79.1278 23.7992 79.1123 23.6606C79.0709 23.3296 78.9906 22.3931 78.9958 22.1339C78.9983 21.9748 79.0968 21.8337 79.2444 21.7773C79.3738 21.7259 79.6509 21.7003 80.0264 22.0903C80.5858 22.6676 81.4921 23.7196 81.2875 24.2893C81.1244 24.7383 80.8421 26.868 80.7955 27.217C81.8624 28.7693 86.7878 35.9897 86.6738 36.7672C86.5806 37.4035 86.0445 38.63 84.6954 38.7044C84.6462 38.707 84.6048 38.707 84.5659 38.707ZM78.2474 24.2739L78.1982 26.6627C78.193 26.9167 78.4183 27.0527 78.887 27.3145C79.0812 27.4222 79.3013 27.5428 79.5396 27.6993C80.1481 28.0996 81.5076 32.885 82.5435 36.8288C82.8024 37.8218 83.6984 38.5017 84.6747 38.4479C85.8581 38.3811 86.3294 37.2958 86.4123 36.7287C86.49 36.2001 82.8568 30.6783 80.5495 27.3196C80.5314 27.2939 80.5236 27.2631 80.5288 27.2323C80.5417 27.1297 80.8551 24.7178 81.0389 24.202C81.1477 23.8967 80.6764 23.1372 79.8348 22.2674C79.6043 22.0287 79.4256 21.98 79.3324 22.0159C79.2728 22.039 79.2495 22.0954 79.2495 22.1391C79.2444 22.37 79.3195 23.2732 79.3635 23.6298C79.4075 23.9916 79.0501 25 79.0087 25.1155C78.9854 25.1771 78.9207 25.213 78.8559 25.1976C78.7912 25.1822 78.7498 25.1206 78.7601 25.0539C78.7601 25.0513 78.8067 24.6947 78.5944 24.2482C78.5555 24.1661 78.5089 24.1148 78.4701 24.1122C78.4157 24.1045 78.3095 24.1969 78.2474 24.2739Z" fill="#3F4553"/>
<path d="M80.174 25.1619C80.161 25.1619 80.1481 25.1593 80.1377 25.1568C80.0704 25.1362 80.0289 25.0644 80.0522 24.9977L80.3319 24.0714C80.2724 23.938 80.1066 23.5479 80.0885 23.1913C80.0781 22.9937 80.1584 22.9039 80.2258 22.8629C80.3993 22.7577 80.6427 22.8911 80.6893 22.9167C80.7514 22.9527 80.7696 23.0322 80.7333 23.0912C80.6971 23.1528 80.6168 23.1733 80.5572 23.1374C80.4795 23.0912 80.3811 23.0681 80.3578 23.081C80.3578 23.081 80.3397 23.1015 80.3449 23.1785C80.3656 23.5582 80.5831 24.0021 80.5857 24.0072C80.6012 24.0355 80.6038 24.0688 80.5935 24.0996L80.2983 25.0747C80.2801 25.126 80.2283 25.1619 80.174 25.1619Z" fill="#263238"/>
<path d="M79.7311 25.0463C79.7208 25.0463 79.7104 25.0463 79.7 25.0437C79.6301 25.0258 79.5887 24.9565 79.6042 24.8898L79.8217 24.0097C79.757 23.8711 79.5861 23.4324 79.6871 22.9705C79.7337 22.7627 79.8269 22.6241 79.9668 22.5625C80.1584 22.4753 80.3474 22.5754 80.3681 22.5856C80.4303 22.619 80.4536 22.6985 80.4199 22.7601C80.3863 22.8217 80.3086 22.8448 80.2438 22.8114C80.2413 22.8089 80.1454 22.7627 80.0729 22.796C79.9978 22.8294 79.959 22.9397 79.9409 23.0244C79.8399 23.4811 80.0703 23.9301 80.0729 23.9353C80.0885 23.9635 80.0911 23.9943 80.0833 24.0251L79.8554 24.9514C79.8425 25.0078 79.7881 25.0463 79.7311 25.0463Z" fill="#263238"/>
<path d="M79.3609 25.0204C79.3531 25.0204 79.3454 25.0204 79.3376 25.0178C79.2677 25.005 79.2211 24.9383 79.2314 24.869L79.4412 23.6964C79.4075 23.563 79.2677 22.9831 79.247 22.5674C79.2366 22.3724 79.3169 22.2569 79.3868 22.1928C79.5836 22.0106 79.9073 22.0465 79.9435 22.0516C80.0135 22.0619 80.0653 22.1235 80.0549 22.1953C80.0471 22.2646 79.9824 22.3159 79.9099 22.3057C79.8426 22.298 79.6535 22.2954 79.5603 22.3801C79.5189 22.4186 79.5007 22.475 79.5033 22.5546C79.5266 22.9908 79.6949 23.6553 79.6975 23.6605C79.7027 23.6784 79.7027 23.6964 79.7001 23.7143L79.4852 24.9126C79.4774 24.9768 79.423 25.0204 79.3609 25.0204Z" fill="#263238"/>
<path d="M68.5826 35.8232C77.4511 35.8232 84.6404 28.6995 84.6404 19.9121C84.6404 11.1246 77.4511 4.00098 68.5826 4.00098C59.714 4.00098 52.5247 11.1246 52.5247 19.9121C52.5247 28.6995 59.714 35.8232 68.5826 35.8232Z" fill="#FA6E5A"/>
<path opacity="0.3" d="M57.4996 19.2654C57.8207 11.5369 63.6576 5.32748 71.0922 4.19849C70.4863 4.10355 69.8699 4.03941 69.2433 4.01375C60.3818 3.65196 52.9031 10.4747 52.5354 19.2526C52.1703 28.0331 59.0559 35.4433 67.9148 35.8077C68.9766 35.8513 70.015 35.7897 71.0275 35.6358C63.0827 34.399 57.1604 27.4249 57.4996 19.2654Z" fill="#AC3E2F"/>
<path d="M58.8515 21.3413C58.8515 21.3413 70.6366 19.8044 80.3889 22.224C80.3889 22.224 79.4747 31.9231 69.2926 31.6998C60.4648 31.5074 58.8515 21.3413 58.8515 21.3413Z" fill="#3F4553"/>
<path d="M69.7819 16.3018C69.396 16.3018 69.062 16.0196 69.0128 15.6296C68.7667 13.7334 67.0266 12.3042 64.9627 12.3042C63.1241 12.3042 61.5056 13.4537 61.0265 15.0959C60.9074 15.5038 60.475 15.7399 60.0632 15.6219C59.6515 15.5038 59.4132 15.0779 59.5323 14.6674C60.203 12.3683 62.4353 10.7646 64.9627 10.7646C67.8034 10.7646 70.2065 12.7712 70.5535 15.4346C70.6079 15.8554 70.3075 16.2428 69.8828 16.2967C69.8492 16.2993 69.8155 16.3018 69.7819 16.3018Z" fill="#3F4553"/>
<path d="M81.0958 18.1287C80.6763 18.1287 80.3319 17.7977 80.319 17.3795C80.2724 15.6886 78.8662 14.2773 77.0483 14.0977C75.4299 13.9386 73.8994 14.8059 73.3297 16.2094C73.1692 16.6046 72.716 16.7945 72.3198 16.6379C71.921 16.4789 71.7294 16.0324 71.8873 15.6372C72.7134 13.5999 74.8964 12.3375 77.2011 12.5659C79.7933 12.8225 81.8002 14.8752 81.8701 17.3359C81.8831 17.7618 81.5438 18.1159 81.114 18.1262C81.1114 18.1287 81.1036 18.1287 81.0958 18.1287Z" fill="#3F4553"/>
<path d="M60.3846 21.6391C60.4804 22.024 61.1925 24.1306 65.3514 24.3025C69.9297 24.4898 74.5029 24.8464 76.8827 24.7746C78.307 24.731 78.988 23.5173 79.3065 22.5474C72.0972 20.9129 63.9841 21.3286 60.3846 21.6391Z" fill="white"/>
<path d="M72.338 30.9224C72.3406 28.6413 69.8701 26.7118 66.7342 26.5835C64.9966 26.5116 63.4195 27.012 62.3215 27.8562C63.896 29.6446 66.1774 31.0892 69.4506 31.161C70.5123 31.1841 71.4705 31.0943 72.338 30.9224Z" fill="#4E5567"/>
<path d="M54.8347 86.6635L59.9647 88.2595L60.0061 86.1631L54.6276 85.0649L54.8347 86.6635Z" fill="#4E5567"/>
<path d="M59.965 88.3878C59.9521 88.3878 59.9391 88.3853 59.9262 88.3827L54.7962 86.7867C54.747 86.7713 54.7134 86.7303 54.7056 86.6815L54.4984 85.0804C54.4932 85.0394 54.5088 84.9983 54.5399 84.9701C54.5709 84.9419 54.6124 84.929 54.6538 84.9393L60.0323 86.0375C60.0945 86.0503 60.1359 86.1042 60.1359 86.1658L60.0945 88.2621C60.0945 88.3032 60.0738 88.3391 60.0401 88.3647C60.0194 88.3801 59.9935 88.3878 59.965 88.3878ZM54.9516 86.5661L59.8381 88.0851L59.8744 86.2659L54.7781 85.2241L54.9516 86.5661Z" fill="#3F4553"/>
<path d="M65.3719 86.9743L66.0037 88.832L71.056 86.7947L70.6753 85.0627L65.3719 86.9743Z" fill="#4E5567"/>
<path d="M66.0037 88.9577C65.9856 88.9577 65.9674 88.9526 65.9493 88.9449C65.9156 88.9295 65.8923 88.9038 65.8794 88.8705L65.2475 87.0153C65.2242 86.9486 65.2605 86.8768 65.3252 86.8537L70.6286 84.9421C70.6649 84.9293 70.7037 84.9318 70.7348 84.9498C70.7685 84.9678 70.7918 84.9985 70.7996 85.0345L71.1802 86.7664C71.1932 86.828 71.1595 86.8896 71.1025 86.9127L66.0503 88.9475C66.0374 88.9552 66.0192 88.9577 66.0037 88.9577ZM65.535 87.0513L66.0814 88.6601L70.9057 86.7177L70.5794 85.2346L65.535 87.0513Z" fill="#3F4553"/>
<path d="M46.5411 33.3474C46.5411 33.3474 46.1967 34.3199 46.6602 34.8818C47.1238 35.4437 49.3197 36.7138 50.0681 36.4624C50.8165 36.2135 52.2149 34.3301 52.1734 32.788C52.1294 31.2434 49.7936 31.3075 49.7936 31.3075C49.7936 31.3075 47.4785 31.5256 46.5411 33.3474Z" fill="white"/>
<path d="M49.8476 36.621C48.8791 36.621 46.9731 35.4612 46.5588 34.9608C46.0564 34.3527 46.4009 33.3469 46.4164 33.3033C46.419 33.2981 46.4216 33.293 46.4242 33.2879C47.3823 31.4225 49.6844 31.189 49.7802 31.1787C50.6451 31.1608 52.2636 31.461 52.3025 32.7824C52.3465 34.3194 50.9455 36.3028 50.1091 36.5825C50.034 36.6081 49.946 36.621 49.8476 36.621ZM46.6598 33.3957C46.6313 33.4855 46.3698 34.3245 46.7608 34.7992C47.2166 35.3509 49.3504 36.5645 50.0288 36.3413C50.7021 36.1155 52.0875 34.2937 52.0461 32.7927C52.0073 31.3943 49.8217 31.4379 49.7984 31.4379C49.7828 31.4379 47.5558 31.6688 46.6598 33.3957Z" fill="#3F4553"/>
<path d="M47.7759 34.6966C48.8014 34.9789 49.876 34.44 50.3577 33.5009C51.5722 31.1275 54.4881 25.5518 55.1898 25.2798C56.0832 24.9334 56.7073 24.9334 56.8031 24.4562C56.8989 23.9789 57.277 22.0724 57.277 22.0724C57.277 22.0724 57.044 21.4823 56.7099 21.9134C56.3759 22.3419 56.3474 22.7344 56.3474 22.7344C56.3474 22.7344 56.1998 21.5926 56.3137 21.2668C56.4276 20.9435 56.7047 20.0557 56.7513 19.817C56.798 19.5784 56.5286 19.3039 55.9538 19.6862C55.3789 20.0685 54.2369 20.9101 54.3042 21.4438C54.3741 21.9775 54.1488 24.4844 54.1488 24.4844C54.1488 24.4844 46.4086 31.7382 46.3542 32.5208C46.3154 33.0775 46.5277 34.3528 47.7759 34.6966Z" fill="#FED9CE"/>
<path d="M48.3326 34.9019C48.1358 34.9019 47.939 34.8762 47.7422 34.8224C46.4396 34.4631 46.1807 33.1545 46.2247 32.5105C46.2791 31.7253 52.6468 25.7135 54.0244 24.4228C54.0555 24.0713 54.2368 21.9313 54.1746 21.4592C54.097 20.8614 55.2105 20.0249 55.8786 19.5784C56.3317 19.2782 56.5933 19.3629 56.7098 19.4398C56.8419 19.5271 56.9066 19.6836 56.8756 19.8427C56.8264 20.0967 56.5441 20.9948 56.4327 21.3104C56.3861 21.4438 56.3913 21.7825 56.4146 22.1263C56.4638 22.034 56.526 21.9365 56.6037 21.8364C56.7228 21.6824 56.8548 21.6132 56.9947 21.6337C57.2459 21.6696 57.3805 21.9929 57.3935 22.0288C57.4012 22.0519 57.4038 22.075 57.3987 22.1007L56.9299 24.4793C56.8471 24.8924 56.4664 25.0053 55.9381 25.1644C55.731 25.2259 55.4953 25.2978 55.2364 25.3978C54.7858 25.5723 52.9601 28.7001 50.4742 33.5574C50.0469 34.3939 49.2027 34.9019 48.3326 34.9019ZM47.8121 34.5735C48.7521 34.8326 49.775 34.3579 50.2437 33.4419C52.103 29.8086 54.4621 25.4209 55.1431 25.1592C55.4099 25.0566 55.6507 24.9847 55.863 24.9206C56.3784 24.7666 56.627 24.682 56.6762 24.4305L57.1423 22.0853C57.1009 21.998 57.0232 21.8903 56.961 21.8826C56.9196 21.8749 56.8678 21.9159 56.8108 21.9878C56.5053 22.3778 56.4742 22.737 56.4742 22.7396C56.469 22.8063 56.4146 22.8576 56.3473 22.8576C56.2722 22.8602 56.223 22.8114 56.2152 22.7447C56.1997 22.6241 56.0676 21.5618 56.1893 21.218C56.3084 20.8793 56.5778 20.012 56.6218 19.7862C56.6295 19.7426 56.6218 19.6836 56.5674 19.6477C56.4845 19.5938 56.3007 19.6015 56.0236 19.7862C55.0137 20.4585 54.3896 21.1 54.431 21.4207C54.5009 21.9621 54.286 24.3843 54.2782 24.4895C54.2756 24.5203 54.2601 24.5511 54.2394 24.5716C51.2614 27.3633 46.5225 31.9922 46.4862 32.5233C46.4422 33.0981 46.6701 34.2604 47.8121 34.5735Z" fill="#3F4553"/>
<path d="M55.3478 22.6831C55.3452 22.6831 55.3426 22.6831 55.3426 22.6831C55.2701 22.6805 55.2157 22.6189 55.2209 22.5496C55.2209 22.5419 55.2546 21.844 55.2365 21.5028C55.2157 21.1333 55.7699 19.7887 55.8346 19.6374C55.8605 19.5706 55.9382 19.5399 56.003 19.5681C56.0677 19.5937 56.1014 19.6707 56.0729 19.7349C55.8424 20.2891 55.4825 21.2539 55.4954 21.4899C55.5135 21.844 55.4799 22.5342 55.4799 22.5625C55.4747 22.6292 55.4177 22.6831 55.3478 22.6831Z" fill="#263238"/>
<path d="M54.9177 22.5395L54.6588 22.5344C54.6588 22.5344 54.6769 21.7851 54.6898 21.5054C54.7028 21.2206 54.9902 20.338 55.0213 20.2405C55.042 20.1737 55.1171 20.1353 55.1844 20.1583C55.2518 20.1789 55.2906 20.2533 55.2673 20.32C55.1818 20.5817 54.9566 21.3053 54.9462 21.5183C54.9358 21.7954 54.9177 22.5395 54.9177 22.5395Z" fill="#263238"/>
</svg>
