<svg width="167" height="30" viewBox="0 0 167 30" fill="none" xmlns="http://www.w3.org/2000/svg">
<g clip-path="url(#clip0_315_8)">
<path d="M87.5058 29.9997C87.5058 29.9997 87.502 29.9997 87.4935 29.9997C86.9924 29.9997 71.144 29.919 72.5941 20.9424C72.6036 20.8799 72.614 20.8174 72.6254 20.754C72.6472 20.6349 72.6728 20.5138 72.7013 20.3908C72.7554 20.1583 72.8105 19.9267 72.8664 19.6942C72.9025 19.5462 72.9386 19.3982 72.9756 19.2512C73.0097 19.1147 73.0439 18.9783 73.079 18.8409C73.1122 18.7112 73.1454 18.5815 73.1796 18.4527C73.1806 18.4479 73.1825 18.444 73.1834 18.4392C73.247 18.1971 73.3125 17.955 73.3808 17.7138C73.3893 17.6811 73.3979 17.6484 73.4074 17.6158C73.9018 15.8487 74.4873 14.1075 75.2048 12.4221C75.9877 10.5859 76.9737 8.93506 78.1192 7.30827C79.7838 4.94544 81.751 2.35968 84.2536 0.855885C85.2197 0.274546 86.368 -0.0905927 87.5001 0.0189489C88.6323 -0.0905927 89.7796 0.274546 90.7457 0.855885C93.2483 2.35968 95.2156 4.94544 96.8801 7.30827C98.0256 8.93506 99.0116 10.5859 99.7936 12.4221C100.682 14.5044 101.366 16.6722 101.927 18.8697C101.986 19.0975 102.043 19.3261 102.099 19.5548C102.101 19.5596 102.102 19.5644 102.102 19.5692C102.135 19.7019 102.167 19.8345 102.198 19.9671C102.213 20.0276 102.228 20.0872 102.241 20.1477C102.261 20.2284 102.279 20.3101 102.298 20.3908C104.498 29.9161 88.0173 29.9997 87.5058 29.9997Z" fill="url(#paint0_radial_315_8)"/>
<circle cx="91.5001" cy="8.00006" r="2" fill="#D7D9FF"/>
<path d="M87.5055 29.9998C87.5055 29.9998 87.5018 29.9998 87.4932 29.9998C86.9921 29.9998 71.1437 29.919 72.5938 20.9424C72.6033 20.8799 72.6137 20.8175 72.6251 20.7541C72.6469 20.6349 72.6726 20.5138 72.701 20.3908C72.7551 20.1583 72.8102 19.9267 72.8662 19.6942C72.9022 19.5462 72.9383 19.3982 72.9753 19.2512C73.0095 19.1148 73.0436 18.9783 73.0787 18.8409C73.112 18.7112 73.1452 18.5815 73.1793 18.4527C73.1803 18.4479 73.1822 18.4441 73.1831 18.4393C73.2467 18.1971 73.3122 17.955 73.3805 17.7138C73.4156 17.6869 73.4517 17.66 73.4868 17.6331C75.1571 16.3686 77.1073 14.6486 77.6235 13.1842C79.2017 8.71025 82.3382 11.2614 83.6127 12.5644C84.0179 12.9785 84.65 13.0612 85.1406 12.7566C85.8021 12.3453 86.7217 11.5516 87.6299 10.0363C88.3075 8.90627 89.7148 8.45946 90.8907 9.03311C92.7915 9.96133 95.9954 12.3367 101.254 18.0847C101.497 18.3509 101.722 18.6122 101.927 18.8698C101.985 19.0975 102.042 19.3262 102.098 19.5549C102.1 19.5597 102.101 19.5645 102.102 19.5693C102.134 19.7019 102.167 19.8345 102.198 19.9671C102.212 20.0276 102.227 20.0872 102.241 20.1477C102.261 20.2285 102.279 20.3101 102.298 20.3908C104.498 29.9162 88.0171 29.9998 87.5055 29.9998Z" fill="#8589EB"/>
<path opacity="0.15" d="M87.5055 30C87.5055 30 87.5018 30 87.4932 30C86.9921 30 71.1437 29.9193 72.5938 20.9426C72.6033 20.8802 72.6137 20.8177 72.6251 20.7543C72.6469 20.6351 72.6726 20.5141 72.701 20.3911C72.7551 20.1585 72.8102 19.9269 72.8662 19.6944C72.9022 19.5464 72.9383 19.3985 72.9753 19.2514C73.7374 19.0929 74.5715 19.1986 75.2007 20.0182C75.2634 20.0989 75.326 20.1787 75.3905 20.2565C75.7217 20.6563 76.0842 21.0108 76.4885 21.2837C76.777 21.4788 77.0864 21.6325 77.4214 21.7315C78.0193 21.9093 78.6988 21.9131 79.4807 21.671C80.4592 21.3692 81.5989 20.6822 82.9446 19.4667C86.9798 15.822 92.6511 18.4722 94.5045 20.9023C95.6661 22.4243 98.0898 22.0976 99.6775 21.6335C99.9613 21.5509 100.241 21.4576 100.514 21.3491C100.774 21.2453 101.028 21.129 101.273 20.9945C101.326 20.9657 101.379 20.9359 101.431 20.9051C101.576 20.8206 101.716 20.7303 101.854 20.6322C101.98 20.5419 102.107 20.442 102.179 20.3036C102.206 20.2546 102.224 20.2018 102.241 20.148C102.261 20.2287 102.279 20.3103 102.298 20.3911C104.498 29.9164 88.0171 30 87.5055 30Z" fill="white"/>
<path opacity="0.15" d="M87.5055 30.0001C87.5055 30.0001 87.5018 30.0001 87.4932 30.0001C86.9921 30.0001 71.1437 29.9194 72.5938 20.9427C72.6033 20.8803 72.6137 20.8178 72.6251 20.7544C72.6469 20.6352 72.6726 20.5142 72.701 20.3912C72.7551 20.1586 72.8102 19.9271 72.8662 19.6945C72.9022 19.5465 72.9383 19.3986 72.9753 19.2516C73.0095 19.1151 73.0436 18.9787 73.0787 18.8412C73.112 18.7115 73.1452 18.5818 73.1793 18.453C73.1803 18.4482 73.1822 18.4444 73.1831 18.4396C73.2467 18.1975 73.3122 17.9553 73.3805 17.7141C73.3891 17.6815 73.3976 17.6488 73.4071 17.6161C73.4337 17.6219 73.4602 17.6276 73.4868 17.6334C73.8683 17.7228 74.2479 17.8967 74.6142 18.184C75.2007 18.6443 75.753 19.3947 76.22 20.5507C76.2987 20.7448 76.3756 20.9514 76.4487 21.1695C76.462 21.2079 76.4743 21.2454 76.4885 21.2838C76.9051 22.4744 77.5989 23.7226 78.7775 24.2367C78.8933 24.2876 79.0148 24.3308 79.1401 24.3664C80.6708 24.7997 82.4103 23.9542 83.5985 23.025C83.9809 22.7261 84.3349 22.3889 84.7363 22.1179C87.4173 20.3066 90.7388 23.0413 92.3502 25.039C92.4252 25.1322 92.4992 25.2264 92.5723 25.3205C92.8475 25.677 93.1303 25.9586 93.4188 26.1709C95.9593 28.0533 98.9031 24.6671 100.839 21.6826C100.991 21.4501 101.135 21.2195 101.273 20.9946C101.486 20.6477 101.683 20.3133 101.861 20.0001C101.937 19.8665 102.009 19.7368 102.078 19.6128C102.086 19.5984 102.095 19.584 102.102 19.5696C102.134 19.7022 102.167 19.8348 102.198 19.9674C102.212 20.028 102.227 20.0875 102.241 20.1481C102.261 20.2288 102.279 20.3105 102.298 20.3912C104.498 29.9165 88.0171 30.0001 87.5055 30.0001Z" fill="white"/>
<path opacity="0.15" d="M87.5055 30C87.5055 30 87.5018 30 87.4932 30C86.9921 30 71.1437 29.9192 72.5938 20.9426C73.297 20.5256 74.3447 20.0749 75.3905 20.2565C75.6695 20.3055 75.9485 20.3987 76.22 20.5506C76.6451 20.7869 77.0541 21.1646 77.4214 21.7315C77.6302 22.0534 77.8257 22.4368 78.0031 22.8894C78.1948 23.3813 78.452 23.8464 78.7775 24.2365C79.2947 24.8573 79.9847 25.2878 80.8606 25.3368C82.2566 25.4146 83.5311 24.6718 84.6386 23.9079C87.1573 22.1716 89.303 25.3175 91.8586 25.9642C92.4015 26.1016 92.9215 26.166 93.4188 26.1708C96.2677 26.2006 98.3593 24.2634 99.5693 22.7231C99.9945 22.1822 100.311 21.6902 100.514 21.3491C100.689 21.0531 100.779 20.8715 100.779 20.8715C100.779 20.8715 101.196 20.1633 101.861 20C101.883 19.9932 101.906 19.9884 101.929 19.9846C102.015 19.9683 102.105 19.9625 102.198 19.9673C102.212 20.0278 102.227 20.0874 102.241 20.148C102.261 20.2287 102.279 20.3103 102.298 20.3911C104.498 29.9164 88.0171 30 87.5055 30Z" fill="white"/>
<path opacity="0.15" d="M87.5055 30.0001C87.5055 30.0001 87.5018 30.0001 87.4932 30.0001C86.9921 30.0001 71.1437 29.9193 72.5938 20.9427C72.6033 20.8802 72.6137 20.8178 72.6251 20.7544C72.6469 20.6352 72.6726 20.5141 72.701 20.3911C72.7551 20.1586 72.8102 19.927 72.8662 19.6945C72.9022 19.5465 72.9383 19.3985 72.9753 19.2515C73.0095 19.1151 73.0436 18.9786 73.0787 18.8412C73.112 18.7115 73.1452 18.5818 73.1793 18.453C73.1803 18.4482 73.1822 18.4444 73.1831 18.4396C73.65 18.306 74.1359 18.2099 74.6142 18.184C75.9239 18.1119 77.1737 18.5645 77.8133 20.199C78.136 21.0244 78.7206 21.451 79.4807 21.671C79.8936 21.7912 80.3576 21.8498 80.8606 21.8776C82.2566 21.9555 83.3888 20.9379 84.6386 20.4488C90.4351 18.1811 91.9592 21.844 94.421 22.7934C96.7204 23.6803 98.3878 23.4016 99.5693 22.7232C100.08 22.4302 100.499 22.0631 100.839 21.6826C101.073 21.4231 101.268 21.157 101.431 20.9052C101.657 20.5545 101.82 20.2307 101.929 19.9847C102.002 19.8204 102.051 19.6916 102.078 19.6128C102.087 19.5888 102.094 19.5696 102.098 19.5552C102.1 19.56 102.101 19.5648 102.102 19.5696C102.134 19.7022 102.167 19.8348 102.198 19.9674C102.212 20.0279 102.227 20.0875 102.241 20.148C102.261 20.2288 102.279 20.3104 102.298 20.3911C104.498 29.9165 88.0171 30.0001 87.5055 30.0001Z" fill="white"/>
</g>
<path d="M113.828 21V9.8H115.972L120.74 17.704H119.604L124.292 9.8H126.42L126.452 21H124.02L124.004 13.528H124.452L120.708 19.816H119.54L115.716 13.528H116.26V21H113.828ZM138.053 21V19.32L137.893 18.952V15.944C137.893 15.4107 137.728 14.9947 137.397 14.696C137.077 14.3973 136.581 14.248 135.909 14.248C135.451 14.248 134.997 14.3227 134.549 14.472C134.112 14.6107 133.739 14.8027 133.429 15.048L132.533 13.304C133.003 12.9733 133.568 12.7173 134.229 12.536C134.891 12.3547 135.563 12.264 136.245 12.264C137.557 12.264 138.576 12.5733 139.301 13.192C140.027 13.8107 140.389 14.776 140.389 16.088V21H138.053ZM135.429 21.128C134.757 21.128 134.181 21.016 133.701 20.792C133.221 20.5573 132.853 20.2427 132.597 19.848C132.341 19.4533 132.213 19.0107 132.213 18.52C132.213 18.008 132.336 17.56 132.581 17.176C132.837 16.792 133.237 16.4933 133.781 16.28C134.325 16.056 135.035 15.944 135.909 15.944H138.197V17.4H136.181C135.595 17.4 135.189 17.496 134.965 17.688C134.752 17.88 134.645 18.12 134.645 18.408C134.645 18.728 134.768 18.984 135.013 19.176C135.269 19.3573 135.616 19.448 136.053 19.448C136.469 19.448 136.843 19.352 137.173 19.16C137.504 18.9573 137.744 18.664 137.893 18.28L138.277 19.432C138.096 19.9867 137.765 20.408 137.285 20.696C136.805 20.984 136.187 21.128 135.429 21.128ZM150.008 21.128C148.995 21.128 148.206 20.872 147.64 20.36C147.075 19.8373 146.792 19.064 146.792 18.04V10.488H149.288V18.008C149.288 18.3707 149.384 18.6533 149.576 18.856C149.768 19.048 150.03 19.144 150.36 19.144C150.755 19.144 151.091 19.0373 151.368 18.824L152.04 20.584C151.784 20.7653 151.475 20.904 151.112 21C150.76 21.0853 150.392 21.128 150.008 21.128ZM145.464 14.312V12.392H151.432V14.312H145.464ZM161.288 21.128C160.306 21.128 159.442 20.936 158.696 20.552C157.96 20.168 157.389 19.6453 156.984 18.984C156.578 18.312 156.376 17.5493 156.376 16.696C156.376 15.832 156.573 15.0693 156.968 14.408C157.373 13.736 157.922 13.2133 158.616 12.84C159.309 12.456 160.093 12.264 160.968 12.264C161.81 12.264 162.568 12.4453 163.24 12.808C163.922 13.16 164.461 13.672 164.856 14.344C165.25 15.0053 165.448 15.8 165.448 16.728C165.448 16.824 165.442 16.936 165.432 17.064C165.421 17.1813 165.41 17.2933 165.4 17.4H158.408V15.944H164.088L163.128 16.376C163.128 15.928 163.037 15.5387 162.856 15.208C162.674 14.8773 162.424 14.6213 162.104 14.44C161.784 14.248 161.41 14.152 160.984 14.152C160.557 14.152 160.178 14.248 159.848 14.44C159.528 14.6213 159.277 14.8827 159.096 15.224C158.914 15.5547 158.824 15.9493 158.824 16.408V16.792C158.824 17.2613 158.925 17.6773 159.128 18.04C159.341 18.392 159.634 18.664 160.008 18.856C160.392 19.0373 160.84 19.128 161.352 19.128C161.81 19.128 162.21 19.0587 162.552 18.92C162.904 18.7813 163.224 18.5733 163.512 18.296L164.84 19.736C164.445 20.184 163.949 20.5307 163.352 20.776C162.754 21.0107 162.066 21.128 161.288 21.128Z" fill="#3F414E"/>
<path d="M0.856 21L5.848 9.8H8.408L13.416 21H10.696L6.6 11.112H7.624L3.512 21H0.856ZM3.352 18.6L4.04 16.632H9.8L10.504 18.6H3.352ZM18.242 21V9.128H20.738V21H18.242ZM31.9825 21.128C31.2572 21.128 30.6225 20.968 30.0785 20.648C29.5345 20.328 29.1078 19.8427 28.7985 19.192C28.4998 18.5307 28.3505 17.6987 28.3505 16.696C28.3505 15.6827 28.4945 14.8507 28.7825 14.2C29.0705 13.5493 29.4865 13.064 30.0305 12.744C30.5745 12.424 31.2252 12.264 31.9825 12.264C32.7932 12.264 33.5185 12.4507 34.1585 12.824C34.8092 13.1867 35.3212 13.6987 35.6945 14.36C36.0785 15.0213 36.2705 15.8 36.2705 16.696C36.2705 17.6027 36.0785 18.3867 35.6945 19.048C35.3212 19.7093 34.8092 20.2213 34.1585 20.584C33.5185 20.9467 32.7932 21.128 31.9825 21.128ZM26.8945 24.104V12.392H29.2785V14.152L29.2305 16.712L29.3905 19.256V24.104H26.8945ZM31.5505 19.08C31.9665 19.08 32.3345 18.984 32.6545 18.792C32.9852 18.6 33.2465 18.328 33.4385 17.976C33.6412 17.6133 33.7425 17.1867 33.7425 16.696C33.7425 16.1947 33.6412 15.768 33.4385 15.416C33.2465 15.064 32.9852 14.792 32.6545 14.6C32.3345 14.408 31.9665 14.312 31.5505 14.312C31.1345 14.312 30.7612 14.408 30.4305 14.6C30.0998 14.792 29.8385 15.064 29.6465 15.416C29.4545 15.768 29.3585 16.1947 29.3585 16.696C29.3585 17.1867 29.4545 17.6133 29.6465 17.976C29.8385 18.328 30.0998 18.6 30.4305 18.792C30.7612 18.984 31.1345 19.08 31.5505 19.08ZM41.7814 21V9.128H44.2774V14.776L43.7174 14.056C44.0267 13.48 44.4694 13.0373 45.0454 12.728C45.6214 12.4187 46.2774 12.264 47.0134 12.264C47.696 12.264 48.304 12.4027 48.8374 12.68C49.3814 12.9467 49.808 13.3627 50.1174 13.928C50.4267 14.4827 50.5814 15.1973 50.5814 16.072V21H48.0854V16.456C48.0854 15.7627 47.9307 15.2507 47.6214 14.92C47.3227 14.5893 46.896 14.424 46.3414 14.424C45.9467 14.424 45.5894 14.5093 45.2694 14.68C44.96 14.84 44.7147 15.0907 44.5334 15.432C44.3627 15.7733 44.2774 16.2107 44.2774 16.744V21H41.7814ZM61.9639 21V19.32L61.8039 18.952V15.944C61.8039 15.4107 61.6385 14.9947 61.3079 14.696C60.9879 14.3973 60.4919 14.248 59.8199 14.248C59.3612 14.248 58.9079 14.3227 58.4599 14.472C58.0225 14.6107 57.6492 14.8027 57.3399 15.048L56.4439 13.304C56.9132 12.9733 57.4785 12.7173 58.1399 12.536C58.8012 12.3547 59.4732 12.264 60.1559 12.264C61.4679 12.264 62.4865 12.5733 63.2119 13.192C63.9372 13.8107 64.2999 14.776 64.2999 16.088V21H61.9639ZM59.3399 21.128C58.6679 21.128 58.0919 21.016 57.6119 20.792C57.1319 20.5573 56.7639 20.2427 56.5079 19.848C56.2519 19.4533 56.1239 19.0107 56.1239 18.52C56.1239 18.008 56.2465 17.56 56.4919 17.176C56.7479 16.792 57.1479 16.4933 57.6919 16.28C58.2359 16.056 58.9452 15.944 59.8199 15.944H62.1079V17.4H60.0919C59.5052 17.4 59.0999 17.496 58.8759 17.688C58.6625 17.88 58.5559 18.12 58.5559 18.408C58.5559 18.728 58.6785 18.984 58.9239 19.176C59.1799 19.3573 59.5265 19.448 59.9639 19.448C60.3799 19.448 60.7532 19.352 61.0839 19.16C61.4145 18.9573 61.6545 18.664 61.8039 18.28L62.1879 19.432C62.0065 19.9867 61.6759 20.408 61.1959 20.696C60.7159 20.984 60.0972 21.128 59.3399 21.128Z" fill="#3F414E"/>
<defs>
<radialGradient id="paint0_radial_315_8" cx="0" cy="0" r="1" gradientUnits="userSpaceOnUse" gradientTransform="translate(87.5 14.9998) scale(14.9075 15.0942)">
<stop offset="2.23767e-07" stop-color="#8485E0"/>
<stop offset="1" stop-color="#7680FC"/>
</radialGradient>
<clipPath id="clip0_315_8">
<rect width="30" height="30" fill="white" transform="translate(72.5)"/>
</clipPath>
</defs>
</svg>
