<svg width="414" height="258" viewBox="0 0 414 258" fill="none" xmlns="http://www.w3.org/2000/svg">
<path d="M66.5835 225L-9 258H421L347.498 225H66.5835Z" fill="#8C96FF"/>
<path d="M180.48 163.64L166.2 186.84L193.59 219.37H221.21L246.96 186.29L231.02 163.64H180.48Z" fill="#3F4553"/>
<path d="M166.2 186.84C166.2 186.84 104.77 191.59 89.3599 207.68C73.9499 223.77 81.1999 241.24 96.2099 241.24C123.84 241.24 182.3 242.93 209.96 241.24L211.61 203.57L166.2 186.84Z" fill="#3F4553"/>
<path d="M245.37 186.04C245.37 186.04 309.7 191.59 325.11 207.68C340.52 223.77 331.64 234.43 318.26 241.24C299.43 250.83 231.56 249.24 196.36 237.59L202.87 203.57L245.37 186.04Z" fill="#3F4553"/>
<path d="M248.2 217.64L243.85 206.4L249.27 203.99C249.27 203.99 248.52 197.34 255.15 196.06C261.78 194.78 269.68 199.06 277.38 195.61C284.48 192.43 293.17 189.5 301.28 193.9C302.48 194.55 303.04 195.98 302.63 197.28L302.6 197.38C302.19 198.69 300.91 199.5 299.54 199.36C296.68 199.07 291.58 199.13 286.54 202.18C277.85 207.46 248.2 217.64 248.2 217.64Z" fill="#FEBBA0"/>
<path d="M298.81 218.28C298.81 218.28 255.88 210.65 165.45 209.47L156.72 221.31C156.72 221.31 179.22 234.17 200.34 238.82C221.46 243.47 294.37 258.11 326.93 235.56L298.81 218.28Z" fill="#3F4553"/>
<path d="M200.34 238.83C178.69 233.83 156.04 221.01 156.04 221.01L157.39 218.72" stroke="#6E758F" stroke-width="1.5925" stroke-miterlimit="10" stroke-linecap="round"/>
<path d="M165.45 209.47C165.45 209.47 264.8 207.2 291.31 222.58" stroke="#6E758F" stroke-width="1.5925" stroke-miterlimit="10" stroke-linecap="round"/>
<path d="M116.68 215.91C116.68 215.91 134.82 207.41 147.22 212.98" stroke="#6E758F" stroke-width="1.5925" stroke-miterlimit="10" stroke-linecap="round"/>
<path d="M158.81 219.35L165.44 209.25L158.81 205.66C158.81 205.66 156.49 199.85 149.99 198.05C143.48 196.26 138.85 199.15 131.44 195.11C124.61 191.38 116.17 187.79 107.75 191.54C106.51 192.09 105.83 193.47 106.14 194.8L106.16 194.9C106.47 196.24 107.68 197.14 109.05 197.11C111.92 197.04 117.01 197.5 121.79 200.94C130.04 206.88 158.81 219.35 158.81 219.35Z" fill="#FEBBA0"/>
<path d="M215.89 209.83L243.05 207.16" stroke="#6E758F" stroke-width="1.5925" stroke-miterlimit="10" stroke-linecap="round"/>
<path d="M181.35 198.06L196.5 209.03" stroke="#6E758F" stroke-width="1.5925" stroke-miterlimit="10" stroke-linecap="round"/>
<path d="M177.44 48.7701C178.08 55.0301 183.53 59.5901 189.61 58.9701C195.69 58.3501 200.1 52.7701 199.46 46.5201C198.82 40.2601 193.37 35.7001 187.29 36.3201C181.22 36.9301 176.81 42.5101 177.44 48.7701Z" fill="#3F4553"/>
<path d="M200.15 53.3202C200.15 53.3202 180.83 50.4002 177.79 32.1702C175.11 16.0602 185.92 3.15017 197.77 0.920166C197.78 0.920166 226.25 44.8002 200.15 53.3202Z" fill="#3F4553"/>
<path d="M200.59 2.65021C199.17 3.35021 197.82 4.27021 196.59 5.46021C185.58 16.0502 192.55 36.6102 202.41 45.8902C207.87 51.0202 215.85 53.4102 222.82 50.7902C233.01 46.9602 236.2 35.4202 234.13 25.1402C232.59 17.4802 228.34 10.2502 222.07 5.75021C215.8 1.26021 207.33 -0.63979 200.59 2.65021Z" fill="#FDBCA0"/>
<path d="M198.76 39.6902C196.83 41.6002 193.47 42.3802 190.89 41.4702C188.31 40.5602 186.19 38.1302 185.52 35.3102C184.92 32.7802 185.57 29.9002 187.43 28.3502C189.29 26.8002 192.64 26.9002 194.23 28.9102L198.76 39.6902Z" fill="#FDBCA0"/>
<path d="M195.94 32.9702L197.97 69.3102C198.24 76.0302 203.69 81.3702 210.41 81.5002C218.17 81.6602 224.26 74.8802 223.27 67.1802L219.17 33.4402L195.94 32.9702Z" fill="#FDBCA0"/>
<path d="M221.93 56.2201L221.42 51.2401C221.42 51.2401 211.42 54.3101 202.41 45.8801C202.41 45.8901 207.6 55.3601 221.93 56.2201Z" fill="#DF8370"/>
<path d="M191.97 27.4802C204.99 26.8102 216.87 18.0702 223.43 6.81021C223.43 6.81021 211.45 -4.55979 193.94 2.09021C179.43 7.59021 191.97 27.4802 191.97 27.4802Z" fill="#3F4553"/>
<path d="M193.4 35.8402C191.9 35.9902 190.59 35.1802 190.47 34.0302C190.38 33.1602 190.99 32.3502 191.93 31.9302" stroke="#444359" stroke-width="1.1144" stroke-miterlimit="10" stroke-linecap="round"/>
<path d="M224.68 33.0002C224.98 32.0902 225.5 31.3702 226.08 30.6902L226.36 31.5702C225.7 31.3202 225.34 30.9402 224.97 30.5702C224.62 30.1802 224.31 29.7902 224.03 29.3702C223.47 28.5402 223 27.6602 222.66 26.7302C223.36 27.4402 224 28.1702 224.67 28.8702C225.01 29.2102 225.33 29.5602 225.68 29.8602C226.01 30.1502 226.4 30.4502 226.67 30.5202L227.48 30.7102L226.95 31.4002C226.41 32.1102 225.81 32.7702 224.98 33.2502C224.88 33.3102 224.76 33.2702 224.7 33.1802C224.67 33.1102 224.67 33.0502 224.68 33.0002Z" fill="#444359"/>
<path d="M227.61 36.1802C227.21 37.0002 226.53 37.7102 225.65 38.1402C224.78 38.5902 223.7 38.6802 222.74 38.4002C221.76 38.1302 221 37.4902 220.35 36.8302C220.06 36.4702 219.77 36.1002 219.53 35.7202C219.32 35.3102 219.1 34.9102 218.94 34.4902C219.31 34.7702 219.63 35.0702 219.95 35.3702L220.94 36.1902C221.64 36.6502 222.3 37.1502 223.06 37.3302C223.79 37.5602 224.57 37.5502 225.34 37.3402C226.1 37.1202 226.86 36.6902 227.61 36.1802Z" fill="#444359"/>
<path d="M217.14 23.11C217.53 24.27 217.75 25.47 217.67 26.76C217.62 27.39 217.47 28.08 217 28.69C216.52 29.31 215.71 29.58 215 29.56C214.27 29.55 213.55 29.23 213.06 28.78C212.55 28.33 212.15 27.81 211.85 27.26C211.25 26.15 210.87 24.99 210.68 23.77C210.65 23.58 210.78 23.4 210.97 23.36C211.15 23.33 211.31 23.44 211.36 23.6L211.37 23.62C211.71 24.7 212.16 25.79 212.74 26.73C213.32 27.64 214.11 28.48 215.04 28.45C215.5 28.47 215.93 28.35 216.19 28.02C216.48 27.7 216.62 27.18 216.7 26.65C216.85 25.58 216.75 24.4 216.57 23.27V23.25C216.54 23.09 216.66 22.93 216.82 22.91C216.95 22.89 217.09 22.98 217.14 23.11Z" fill="#444359"/>
<path d="M231.66 20.8401C231.99 21.8201 232.17 22.8201 232.15 23.8901C232.14 24.4201 232.04 25.0001 231.7 25.5501C231.37 26.1301 230.63 26.4901 229.99 26.4601C229.32 26.4501 228.71 26.1001 228.32 25.6901C227.92 25.2701 227.61 24.8201 227.38 24.3401C226.93 23.3801 226.65 22.4001 226.51 21.3701C226.48 21.1801 226.62 21.0001 226.82 20.9701C226.99 20.9501 227.15 21.0501 227.2 21.2101L227.21 21.2301C227.5 22.1301 227.85 23.0501 228.3 23.8501C228.75 24.6301 229.36 25.3801 230.03 25.3401C230.37 25.3501 230.64 25.2501 230.82 24.9701C231.02 24.6901 231.12 24.2601 231.18 23.8101C231.28 22.9101 231.2 21.9201 231.09 20.9801V20.9601C231.07 20.8001 231.19 20.6501 231.35 20.6201C231.48 20.6201 231.62 20.7101 231.66 20.8401Z" fill="#444359"/>
<path d="M242.46 72.6104C242.37 66.5104 222.59 61.6304 222.59 61.6304C221.35 63.0004 219.22 65.3104 210.25 65.3104C201.67 65.3104 198.24 63.0904 196.9 61.6304H188.41C186.52 61.6304 184.79 62.7104 184 64.4304C166.99 101.64 176.55 143.2 180.47 163.63C180.83 165.51 216.33 164.24 232.34 165.51C235.8 165.8 242.8 94.7804 242.46 72.6104Z" fill="#FEE6C6"/>
<path d="M201.15 125.23C202.91 111.01 205.06 102.48 206.71 105.28C208.17 107.76 207.36 120.2 205.17 132.2C205.18 132.2 200.4 131.32 201.15 125.23Z" fill="#FEBBA0"/>
<path d="M212.77 125.23C211.01 111.01 208.86 102.48 207.21 105.28C205.75 107.76 206.56 120.2 208.75 132.2C208.74 132.2 213.52 131.32 212.77 125.23Z" fill="#FEBBA0"/>
<path d="M271.39 121.7H249.04L252.59 144.4L212.03 124.61C211.89 123.09 211.7 121.21 211.47 119.22C209.94 119.22 208.4 119.22 206.87 119.2C206.88 120.93 206.91 122.1 206.91 122.1C206.91 122.1 206.12 132.54 207.93 136.02C211.37 142.64 246.56 163.96 256.33 166.49C256.94 166.65 257.55 166.77 258.16 166.85C267.59 168.18 273.84 162.89 273.77 153.37L271.39 121.7Z" fill="#FEBBA0"/>
<path d="M202.05 119.12C201.7 121.36 201.39 123.52 201.15 125.23L161.76 143.47L163.42 121.71H141.07L138.7 153.4C138.64 162.92 144.89 168.2 154.31 166.88C154.92 166.79 155.53 166.67 156.14 166.52C165.91 163.99 198.64 146.3 205.63 135.98C207.7 132.93 206.72 122.66 206.72 122.66C206.72 122.66 206.72 121.24 206.68 119.22C205.14 119.19 203.6 119.16 202.05 119.12Z" fill="#FEBBA0"/>
<path d="M169.14 134.12C177.88 108.27 177.81 108.25 188.54 61.6404C181.36 62.1304 180.62 60.9604 174.96 63.9004C157.98 72.7204 141.99 101.69 137.28 134.12H169.14Z" fill="#FEE6C6"/>
<path d="M246.96 131.57C241.82 113.26 222.59 61.6403 222.59 61.6403C241.82 60.9903 268.06 86.0603 274.34 128.22L246.96 131.57Z" fill="#FEE6C6"/>
<path d="M242.47 91.1404L238.42 124.42" stroke="#EED2AD" stroke-width="1.5925" stroke-miterlimit="10" stroke-linecap="round"/>
<path d="M172.82 96.6003L176.04 132.2" stroke="#EED2AD" stroke-width="1.5925" stroke-miterlimit="10" stroke-linecap="round"/>
</svg>
