<svg width="140" height="123" viewBox="0 0 140 123" fill="none" xmlns="http://www.w3.org/2000/svg">
<path fill-rule="evenodd" clip-rule="evenodd" d="M43.8188 30.8274C45.8525 35.567 49.9914 37.2272 53.5609 36.4149C56.3657 35.7764 60.0169 29.8894 59.8879 27.1706C59.5024 19.0154 50.5365 3.4792 45.6571 2.44727C41.7149 5.48723 40.5978 23.3183 43.8188 30.8274Z" fill="#FEDEA6"/>
<path d="M51.8094 36.8186C50.4995 36.8186 49.1961 36.5025 48.0165 35.8869C46.1155 34.8944 44.5976 33.1732 43.6261 30.9088C42.1209 27.3992 41.4366 21.2837 41.8426 14.9474C42.1618 9.95271 43.298 4.00226 45.5283 2.28109L45.6049 2.22144L45.6993 2.24174C50.691 3.2978 59.7055 18.9 60.0961 27.1593C60.2314 30.0177 56.5023 35.9568 53.6069 36.6168C53.0158 36.7526 52.412 36.8186 51.8094 36.8186ZM45.7096 2.67204C43.9733 4.11522 42.6558 8.80654 42.2613 14.974C41.8605 21.2494 42.5307 27.2925 44.0116 30.745C45.7325 34.756 48.9459 36.3959 51.849 36.3959C52.4209 36.3959 52.9801 36.3325 53.515 36.2106C56.2023 35.5988 59.8063 29.8438 59.6799 27.1783C59.5037 23.4402 57.433 17.717 54.2771 12.24C51.1825 6.86959 47.9131 3.22291 45.7096 2.67204Z" fill="#F5C371"/>
<path d="M45.7927 2.37786L45.3847 2.47168L53.2909 36.4401L53.6989 36.3463L45.7927 2.37786Z" fill="#F9CF88"/>
<path d="M48.7659 15.4818L48.4276 15.2355C48.4531 15.2013 50.9834 11.7615 52.6852 9.49072L53.021 9.73951C51.3205 12.009 48.7914 15.4475 48.7659 15.4818Z" fill="#F9CF88"/>
<path d="M53.8212 11.2818L48.8676 17.0676L49.1865 17.3375L54.1401 11.5516L53.8212 11.2818Z" fill="#F9CF88"/>
<path d="M41.9857 19.5129L41.7808 19.876L50.6576 24.8288L50.8625 24.4657L41.9857 19.5129Z" fill="#F9CF88"/>
<path d="M59.033 23.1928L51.9681 30.3484L52.2669 30.64L59.3318 23.4844L59.033 23.1928Z" fill="#F9CF88"/>
<path d="M42.424 25.2344L42.2771 25.6243L51.6827 29.1262L51.8296 28.7363L42.424 25.2344Z" fill="#F9CF88"/>
<path d="M47.6539 12.0611C46.9263 11.4011 45.0087 9.65196 42.9291 7.65283L43.2202 7.35327C45.296 9.34733 47.2109 11.0939 47.9374 11.7526L47.6539 12.0611Z" fill="#F9CF88"/>
<path fill-rule="evenodd" clip-rule="evenodd" d="M44.3053 26.3278C43.5381 25.5548 42.7031 24.7793 41.8159 24.0101C33.5815 16.8716 20.8801 10.2979 16.2038 11.7804C13.7488 17.67 23.7641 38.4229 32.167 44.7682C37.4714 48.7728 43.1551 48.0061 46.6199 44.8405C47.2008 44.3099 47.7191 43.7108 48.1633 43.0571C50.3681 39.8077 50.7345 35.171 47.765 30.5165C46.9071 29.1685 45.7211 27.7533 44.3053 26.3278Z" fill="#FEDEA6"/>
<path d="M39.7196 47.7079C37.0973 47.7079 34.4508 46.7534 32.0405 44.9345C28.1327 41.9834 23.4896 35.5696 19.9252 28.1938C17.1242 22.3994 14.6245 15.0248 16.0097 11.7005L16.0467 11.6117L16.1399 11.5825C18.3855 10.8704 22.5155 11.8985 27.7676 14.4765C32.7006 16.8983 37.871 20.3165 41.9524 23.854C42.8537 24.6359 43.695 25.4191 44.4534 26.1819C45.9292 27.667 47.1024 29.0873 47.9425 30.4036C50.6911 34.7129 50.8379 39.4854 48.3369 43.1727C47.8863 43.8378 47.3552 44.4509 46.7616 44.9929C44.9436 46.6531 42.5754 47.6152 40.0898 47.7015C39.9672 47.7054 39.8434 47.7079 39.7196 47.7079ZM16.3608 11.9506C15.3152 14.672 16.8178 20.8052 20.3018 28.0135C23.8394 35.3323 28.4353 41.6889 32.2933 44.6019C37.6935 48.6789 43.3082 47.5822 46.4781 44.687C47.0488 44.1653 47.5569 43.5776 47.9897 42.9404C50.3949 39.3953 50.2443 34.7928 47.5888 30.627C46.7654 29.3361 45.61 27.9386 44.1559 26.4751C43.4052 25.7199 42.5716 24.9431 41.6779 24.1688C33.8227 17.3578 21.1175 10.5848 16.3608 11.9506Z" fill="#F5C371"/>
<path d="M16.3584 11.6396L16.0495 11.9207L46.4679 44.9821L46.7769 44.7011L16.3584 11.6396Z" fill="#F5C371"/>
<path d="M18.577 24.8745L18.5616 24.4582C22.218 24.3198 27.7241 24.1612 27.779 24.1599L27.7905 24.5762C27.7356 24.5788 22.232 24.7374 18.577 24.8745Z" fill="#F5C371"/>
<path d="M29.4157 25.9586L19.6465 26.9604L19.6895 27.3746L29.4587 26.3727L29.4157 25.9586Z" fill="#F5C371"/>
<path d="M37.0888 20.44L35.8985 33.3918L36.3155 33.4297L37.5059 20.4779L37.0888 20.44Z" fill="#F5C371"/>
<path d="M41.3033 38.8983L28.5371 41.125L28.6095 41.5351L41.3756 39.3084L41.3033 38.8983Z" fill="#F5C371"/>
<path d="M42.8549 25.0729L39.7366 37.5256L40.143 37.6262L43.2613 25.1735L42.8549 25.0729Z" fill="#F5C371"/>
<path d="M24.4879 21.0388C24.3156 19.7923 23.8483 16.4998 23.2381 12.8683L23.6517 12.7998C24.2632 16.4363 24.7318 19.734 24.9041 20.9829L24.4879 21.0388Z" fill="#F5C371"/>
<path fill-rule="evenodd" clip-rule="evenodd" d="M111.572 93.8868C106.488 92.879 102.775 95.3401 101.434 98.7279C100.381 101.39 103.207 107.709 105.537 109.139C112.524 113.426 130.484 114.839 134.096 111.416C133.797 106.465 119.625 95.4823 111.572 93.8868Z" fill="#FEDEA6"/>
<path d="M124.987 113.541C118.236 113.541 109.768 111.981 105.427 109.316C102.979 107.814 100.152 101.4 101.24 98.6517C101.947 96.8646 103.284 95.3808 105.002 94.4758C106.899 93.4755 109.185 93.2027 111.614 93.6837C115.378 94.4288 120.84 97.3215 125.872 101.231C129.838 104.313 134.137 108.604 134.306 111.407L134.313 111.503L134.243 111.571C132.812 112.921 129.239 113.541 124.987 113.541ZM109.344 93.869C105.383 93.869 102.666 96.1817 101.628 98.8041C100.62 101.355 103.362 107.561 105.646 108.962C108.849 110.927 114.769 112.459 121.098 112.962C127.305 113.454 132.178 112.83 133.879 111.332C133.66 109.092 130.51 105.363 125.613 101.557C120.63 97.6858 115.233 94.8248 111.531 94.0912C110.766 93.9388 110.036 93.869 109.344 93.869Z" fill="#F5C371"/>
<path d="M101.571 98.495L101.418 98.8828L134.08 111.574L134.232 111.186L101.571 98.495Z" fill="#F5C371"/>
<path d="M123.884 113.343C122.961 110.666 121.534 106.65 121.52 106.609L121.914 106.471C121.928 106.511 123.355 110.529 124.28 113.208L123.884 113.343Z" fill="#F5C371"/>
<path d="M120.142 105.793L119.738 105.902L121.745 113.233L122.149 113.124L120.142 105.793Z" fill="#F5C371"/>
<path d="M121.814 98.4006L112.691 102.889L112.876 103.262L121.999 98.7738L121.814 98.4006Z" fill="#F5C371"/>
<path d="M107.37 100.845L106.96 100.925L108.912 110.763L109.322 110.683L107.37 100.845Z" fill="#F5C371"/>
<path d="M116.766 95.5539L108.549 101.297L108.79 101.637L117.007 95.8946L116.766 95.5539Z" fill="#F5C371"/>
<path d="M125.083 108.032L124.987 107.627C125.948 107.401 128.489 106.815 131.314 106.237L131.398 106.645C128.579 107.221 126.043 107.807 125.083 108.032Z" fill="#F5C371"/>
<path fill-rule="evenodd" clip-rule="evenodd" d="M110.68 87.7547C106.305 90.5179 105.329 94.8475 106.714 98.2187C107.803 100.866 114.238 103.495 116.915 102.928C124.946 101.228 138.911 89.9125 139.145 84.9572C135.489 81.5821 117.611 83.3769 110.68 87.7547Z" fill="#FEDEA6"/>
<path d="M116.066 103.215C112.958 103.215 107.539 100.771 106.522 98.2976C105.791 96.5193 105.726 94.5291 106.339 92.6937C107.016 90.6679 108.477 88.8997 110.569 87.5797C113.807 85.5335 119.767 83.872 126.121 83.2425C131.13 82.7462 137.22 82.896 139.289 84.805L139.361 84.871L139.356 84.9674C139.116 90.0357 125.093 101.41 116.959 103.131C116.691 103.188 116.391 103.215 116.066 103.215ZM130.918 83.4062C129.457 83.4062 127.858 83.4887 126.162 83.6563C119.869 84.2795 113.98 85.9181 110.793 87.9312C106.362 90.73 105.65 95.0761 106.91 98.1402C107.953 100.678 114.248 103.28 116.873 102.724C120.553 101.944 125.899 98.9856 130.824 95.0012C135.653 91.0943 138.743 87.2953 138.932 85.0449C137.686 83.9787 134.781 83.4062 130.918 83.4062Z" fill="#F5C371"/>
<path d="M139.073 84.6912L106.643 97.9539L106.803 98.3389L139.233 85.0762L139.073 84.6912Z" fill="#F5C371"/>
<path d="M133.101 93.3638C130.574 92.0628 126.751 90.1398 126.713 90.1195L126.902 89.7476C126.94 89.7666 130.764 91.6909 133.293 92.9932L133.101 93.3638Z" fill="#F5C371"/>
<path d="M125.154 90.4813L124.938 90.8379L131.482 94.7607L131.698 94.4042L125.154 90.4813Z" fill="#F5C371"/>
<path d="M121.214 83.9755L117.736 93.4863L118.129 93.6286L121.607 84.1177L121.214 83.9755Z" fill="#F5C371"/>
<path d="M112.473 95.6715L112.232 96.012L120.479 101.784L120.72 101.443L112.473 95.6715Z" fill="#F5C371"/>
<path d="M115.591 85.4008L113.64 95.1956L114.051 95.2764L116.002 85.4817L115.591 85.4008Z" fill="#F5C371"/>
<path d="M130.277 88.7004L129.926 88.4732C130.464 87.6507 131.892 85.4814 133.535 83.1218L133.88 83.3592C132.241 85.715 130.815 87.8791 130.277 88.7004Z" fill="#F5C371"/>
<path fill-rule="evenodd" clip-rule="evenodd" d="M58.9999 43.0002C22.9999 30.0002 4.96124 38.0287 0.766715 64.4617C-3.42781 90.8948 21.8462 116.323 59.0001 121.5C88.7611 125.647 119 107 124 63.0002C129 19.0002 94.9999 56.0001 58.9999 43.0002Z" fill="#F5C371"/>
<path fill-rule="evenodd" clip-rule="evenodd" d="M54.4718 42.7317C54.1424 42.7888 53.8143 42.8522 53.4862 42.9182C52.6449 43.0858 51.8061 43.2686 50.9712 43.464C49.8005 43.7382 48.6362 44.0378 47.4809 44.3678C46.1634 44.7435 44.8561 45.1585 43.5692 45.6295C42.193 46.1334 40.8232 46.7045 39.5248 47.3849C39.498 47.3989 39.4661 47.3887 39.452 47.362C39.438 47.3354 39.4482 47.3037 39.475 47.2897C40.7772 46.6055 42.1509 46.0331 43.5322 45.5279C44.8203 45.057 46.1315 44.6407 47.4502 44.2637C48.6069 43.9337 49.7737 43.6329 50.9457 43.3587C51.7819 43.1632 52.6219 42.9792 53.4645 42.8129C53.7926 42.7482 54.122 42.6834 54.4526 42.6263C54.482 42.6212 54.5101 42.6403 54.5152 42.6695C54.5216 42.6987 54.5011 42.7266 54.4718 42.7317Z" fill="white"/>
<path d="M39.5001 47.4186C39.4708 47.4186 39.4427 47.4034 39.4273 47.3755C39.4171 47.3564 39.4146 47.3348 39.421 47.3133C39.4273 47.2929 39.4414 47.2752 39.4605 47.265C40.6351 46.6481 41.9628 46.0719 43.5215 45.502C44.7395 45.0564 46.0225 44.6427 47.4421 44.2377C48.563 43.9179 49.7401 43.6133 50.9389 43.3327C51.798 43.1322 52.6457 42.9481 53.459 42.7869C53.7564 42.7273 54.1037 42.66 54.4471 42.6004C54.4688 42.5965 54.4905 42.6016 54.5084 42.6143C54.5262 42.627 54.5377 42.6461 54.5416 42.6664C54.5454 42.6879 54.5403 42.7095 54.5275 42.7273C54.5148 42.7451 54.4956 42.7565 54.4752 42.7603C54.1369 42.8187 53.7896 42.8872 53.4909 42.9456C52.6789 43.1068 51.8338 43.2896 50.9772 43.4914C49.7822 43.7707 48.6077 44.0753 47.4881 44.3951C46.071 44.8001 44.7931 45.2126 43.579 45.6556C42.0279 46.2229 40.7065 46.7967 39.5384 47.4097C39.5269 47.4148 39.5129 47.4186 39.5001 47.4186ZM54.4624 42.6524C54.4611 42.6524 54.4599 42.6524 54.4573 42.6524C54.1139 42.7121 53.7679 42.7793 53.4705 42.839C52.6585 43.0002 51.8121 43.1842 50.9529 43.3848C49.7554 43.6653 48.5796 43.9699 47.4587 44.2898C46.0404 44.6947 44.7586 45.1085 43.542 45.5527C41.9857 46.1227 40.6593 46.6976 39.4873 47.3133C39.481 47.3158 39.4771 47.3221 39.4746 47.3285C39.472 47.3348 39.4733 47.3424 39.4759 47.3488C39.4822 47.3615 39.4988 47.3666 39.5116 47.3589C40.6823 46.7446 42.0062 46.1696 43.5598 45.601C44.7752 45.1567 46.0544 44.7442 47.4728 44.3393C48.5937 44.0194 49.7682 43.7148 50.9644 43.4356C51.8223 43.235 52.6687 43.051 53.4807 42.8898C53.7794 42.8301 54.1266 42.7628 54.4662 42.7032C54.4726 42.7019 54.479 42.6981 54.4828 42.693C54.4867 42.6879 54.4879 42.6803 54.4867 42.674C54.4854 42.6676 54.4816 42.6613 54.4764 42.6575C54.4726 42.6537 54.4675 42.6524 54.4624 42.6524Z" fill="white"/>
<path fill-rule="evenodd" clip-rule="evenodd" d="M86.8765 30.9709C89.6992 26.093 91.6014 20.9791 92.1874 19.315C92.3763 17.4123 89.1757 11.3426 89.1757 11.3426C86.3748 11.4898 76.6442 11.9277 72.4312 11.1864C72.4312 11.1864 69.8039 9.67218 67.7485 11.3756C65.6931 13.079 69.2332 15.4259 69.2332 15.4259L54.4624 42.6777C62.8372 52.3674 69.9941 47.0681 69.9941 47.0681L72.1261 40.709C77.0067 42.7792 81.4137 39.0716 84.862 34.1455C85.4709 33.1846 86.1705 32.0663 86.8765 30.9709Z" fill="#FDBCA0"/>
<path fill-rule="evenodd" clip-rule="evenodd" d="M76.7514 111.155L72.735 116.599L90.8558 116.675C86.8216 113.42 76.7514 111.155 76.7514 111.155Z" fill="#FDBCA0"/>
<path fill-rule="evenodd" clip-rule="evenodd" d="M86.8765 30.9708C86.2496 32.0548 85.5768 33.1261 84.8632 34.1466C82.8027 37.4036 82.1771 39.6122 82.1771 40.521C82.1771 41.4298 82.638 44.3682 82.638 44.3682L88.0395 44.254C88.0395 44.254 88.0395 41.3537 88.4953 39.9155C88.9523 38.4774 91.8452 26.1386 90.9311 25.9863C90.7192 25.9508 90.3898 26.197 89.9825 26.6349C89.9966 26.6438 89.6532 27.0132 89.4502 27.2594C88.697 28.205 87.7803 29.5695 86.8765 30.9708Z" fill="#FDBCA0"/>
<path fill-rule="evenodd" clip-rule="evenodd" d="M68.6242 2.06528C58.7264 7.66667 39.5001 47.3359 39.5001 47.3359C45.3854 44.2465 54.4624 42.6776 54.4624 42.6776L69.2332 15.4259C69.2332 15.4259 65.6931 13.0789 67.7485 11.3756C69.8039 9.67216 72.4312 11.1864 72.4312 11.1864C76.6441 11.9277 86.3747 11.4885 89.1757 11.3426C89.1757 11.3426 92.3763 17.4123 92.1873 19.315C91.6001 20.979 89.6991 26.0943 86.8765 30.9709C88.5617 28.3575 90.289 25.8798 90.9324 25.9864C91.8465 26.1375 88.9523 38.4775 88.4965 39.9156C88.0395 41.3538 88.0408 44.2541 88.0408 44.2541L89.1821 44.23C89.1821 44.23 89.7438 49.4163 90.4166 56.8328C90.7319 60.3005 91.0703 64.2569 91.3881 68.3974C92.4733 67.0024 94.8517 63.706 94.9691 61.4899C95.1211 58.6136 97.862 34.9946 96.6441 18.9469C95.4249 2.89793 88.4965 4.03395 88.4965 4.03395C88.4965 4.03395 78.5221 -3.53612 68.6242 2.06528Z" fill="#3F4553"/>
<path fill-rule="evenodd" clip-rule="evenodd" d="M84.8631 34.1467C81.4149 39.0729 77.0079 42.7805 72.1272 40.7103L69.9952 47.0694C69.9952 47.0694 78.762 50.2883 80.737 54.5265C81.42 48.4047 82.0251 44.3823 82.0251 44.3823L82.6392 44.3696C82.6392 44.3696 82.1783 41.4299 82.1783 40.5224C82.177 39.6123 82.8013 37.4037 84.8631 34.1467Z" fill="#3F4553"/>
<path fill-rule="evenodd" clip-rule="evenodd" d="M35.845 97.0986C34.3258 96.9641 32.767 96.8549 31.1712 96.7724C32.1887 95.677 33.6288 92.8846 35.1582 89.4727C35.3612 91.7905 35.6765 95.2556 35.845 97.0986ZM36.7987 49.0749C31.6206 53.3143 8.16988 89.6504 16.3928 107.516C16.3928 107.516 22.7888 113.875 72.735 116.6L76.7514 111.156L77.7612 109.788C77.7612 109.788 74.3896 107.441 67.9131 104.728C67.9131 104.728 69.5638 101.124 71.4865 96.8029C71.4865 96.8029 78.3714 109.486 84.6142 112.967C76.3211 104.945 78.8323 71.5871 80.7371 54.5278C78.7634 50.2896 69.9953 47.0707 69.9953 47.0707C69.9953 47.0707 62.8385 52.37 54.4637 42.6802C54.4637 42.6802 45.3867 44.249 39.5014 47.3385C38.4826 47.8703 37.5609 48.4504 36.7987 49.0749Z" fill="#63A6DC"/>
<path fill-rule="evenodd" clip-rule="evenodd" d="M80.7358 54.5264C78.831 71.5858 76.3199 104.944 84.613 112.966C84.613 112.966 90.8558 118.113 92.3788 102.974C93.1307 95.4967 92.3597 81.0788 91.3868 68.3986C91.069 64.2581 90.7307 60.3017 90.4153 56.834C89.7425 49.4175 89.1808 44.2312 89.1808 44.2312L88.0395 44.2553L82.638 44.3696L82.0239 44.3822C82.0239 44.3822 81.4188 48.4046 80.7358 54.5264Z" fill="#63A6DC"/>
<path fill-rule="evenodd" clip-rule="evenodd" d="M72.9393 65.1087C73.1997 66.015 73.4576 66.9213 73.7142 67.8288C74.2721 69.8026 74.8236 71.7789 75.3611 73.759C75.8564 75.5779 76.3441 77.4018 76.7948 79.2322C76.9582 79.8985 77.119 80.57 77.2582 81.2427C77.3054 81.4737 77.3514 81.706 77.3871 81.9383C77.4088 82.0805 77.4331 82.2391 77.4331 82.3838C77.4331 82.5374 77.3731 82.7507 77.3322 82.8992C77.2505 83.1911 77.1509 83.4805 77.0501 83.7661C76.7399 84.6432 76.3913 85.5126 76.0415 86.3745C75.5743 87.5232 75.093 88.6656 74.6053 89.8054C74.0576 91.0874 73.501 92.3656 72.9418 93.6412C72.4758 94.7036 72.006 95.7647 71.5336 96.8246C71.5222 96.8512 71.4902 96.8639 71.4622 96.8525C71.4353 96.8411 71.4226 96.8094 71.4341 96.7814C71.9052 95.7216 72.375 94.6604 72.8409 93.598C73.4014 92.3224 73.9567 91.0442 74.5044 89.7622C74.9908 88.6224 75.4734 87.4813 75.9394 86.3326C76.2892 85.472 76.6365 84.6038 76.9467 83.7293C77.0475 83.4462 77.1458 83.1581 77.2263 82.87C77.2646 82.7342 77.3233 82.526 77.3233 82.3838C77.3233 82.2455 77.3003 82.0919 77.2786 81.9548C77.2429 81.7238 77.1969 81.4928 77.1497 81.2643C77.0118 80.5929 76.8509 79.9239 76.6875 79.2576C76.2381 77.4285 75.7492 75.6045 75.2551 73.7869C74.7164 71.8081 74.1661 69.8318 73.6082 67.858C73.3516 66.9505 73.095 66.0442 72.8333 65.1379C72.8256 65.11 72.8422 65.0795 72.8703 65.0719C72.9022 65.0643 72.9316 65.0808 72.9393 65.1087Z" fill="#A7D1F3"/>
<path d="M71.4852 96.883C71.4737 96.883 71.4635 96.8805 71.452 96.8754C71.4112 96.8576 71.392 96.8094 71.4099 96.7675C71.9103 95.6442 72.3699 94.6033 72.8168 93.5841C73.4372 92.1688 73.9823 90.9148 74.4802 89.7496C75.0534 88.4079 75.5105 87.3176 75.9152 86.3212C76.2343 85.5355 76.602 84.6216 76.9212 83.7191C77.0169 83.4475 77.1178 83.1556 77.2007 82.8611C77.239 82.724 77.2965 82.5196 77.2965 82.3826C77.2965 82.2442 77.2722 82.0856 77.2518 81.9574C77.2135 81.7124 77.1663 81.4712 77.1242 81.2681C76.9837 80.5903 76.819 79.9036 76.662 79.2626C76.2075 77.4133 75.7045 75.5398 75.2296 73.792C74.7368 71.9781 74.1981 70.0387 73.5827 67.8631C73.3402 67.005 73.0785 66.081 72.8078 65.1442C72.8014 65.1239 72.804 65.1011 72.8155 65.0821C72.8257 65.063 72.8436 65.0491 72.864 65.0427C72.8844 65.0364 72.9074 65.0389 72.9266 65.0503C72.9457 65.0605 72.9597 65.0782 72.9661 65.0986C73.2419 66.0543 73.5125 67.0101 73.7411 67.8187C74.3551 69.9917 74.8939 71.9312 75.3879 73.7488C75.8641 75.4979 76.3671 77.3727 76.8216 79.2233C76.9799 79.8656 77.1446 80.5548 77.285 81.2339C77.3271 81.4395 77.3756 81.6832 77.4139 81.9307C77.4331 82.0564 77.4599 82.229 77.4599 82.38C77.4599 82.5387 77.3986 82.757 77.3578 82.9017C77.2735 83.2013 77.1727 83.4957 77.0756 83.7699C76.7552 84.6762 76.3863 85.5926 76.0671 86.3796C75.6624 87.3773 75.2054 88.4676 74.6309 89.8105C74.1304 90.9795 73.5866 92.2348 72.9661 93.6476C72.5193 94.6643 72.0597 95.7064 71.558 96.831C71.5465 96.8652 71.5171 96.883 71.4852 96.883ZM72.8883 65.0973C72.8857 65.0973 72.8831 65.0973 72.8806 65.0986C72.8742 65.1011 72.8678 65.1049 72.8653 65.1112C72.8614 65.1176 72.8614 65.1239 72.8627 65.1303C73.1334 66.0683 73.3951 66.9911 73.6376 67.8504C74.253 70.026 74.7917 71.9655 75.2845 73.7793C75.7594 75.5271 76.2624 77.4006 76.7169 79.2512C76.8739 79.8922 77.0399 80.5789 77.179 81.258C77.2212 81.4623 77.2697 81.7035 77.308 81.9497C77.3284 82.0792 77.3527 82.2391 77.3527 82.3826C77.3527 82.5273 77.2939 82.7354 77.2556 82.8738C77.1714 83.1721 77.0705 83.4653 76.9748 83.7382C76.6543 84.6419 76.2867 85.5571 75.9675 86.3428C75.5628 87.3404 75.1058 88.4295 74.5326 89.7724C74.0334 90.9389 73.4896 92.193 72.8691 93.6082C72.4223 94.6275 71.9614 95.6683 71.4622 96.7916C71.4559 96.8043 71.4622 96.8195 71.475 96.8259C71.4878 96.831 71.5031 96.8259 71.5095 96.8132C72.0099 95.6886 72.4708 94.6465 72.9163 93.6298C73.5355 92.2183 74.0806 90.963 74.5798 89.794C75.1543 88.4511 75.6101 87.3607 76.016 86.3631C76.3352 85.5761 76.7041 84.6609 77.0246 83.7559C77.1216 83.483 77.2225 83.1886 77.3067 82.8916C77.3463 82.7494 77.4063 82.5361 77.4063 82.3838C77.4063 82.2366 77.3795 82.0665 77.3603 81.9434C77.322 81.6971 77.2735 81.4534 77.2314 81.2491C77.091 80.57 76.9263 79.8821 76.768 79.2398C76.3135 77.3892 75.8105 75.5157 75.3343 73.7666C74.8402 71.9502 74.3015 70.0107 73.6874 67.8377C73.4589 67.0292 73.1883 66.0734 72.9125 65.1176C72.9112 65.1113 72.9061 65.1062 72.8997 65.1024C72.8972 65.0986 72.8921 65.0973 72.8883 65.0973Z" fill="#A7D1F3"/>
<path fill-rule="evenodd" clip-rule="evenodd" d="M31.2887 96.7243C37.0068 97.02 42.707 97.6953 48.3242 98.7945C53.7934 99.8645 59.2038 101.339 64.4279 103.275C66.3697 103.995 68.2897 104.779 70.1741 105.636C71.5835 106.277 72.975 106.96 74.3385 107.694C75.2015 108.158 76.0556 108.643 76.8892 109.158C77.1918 109.346 77.4995 109.539 77.7918 109.742C77.8046 109.751 77.8123 109.762 77.8135 109.778C77.8161 109.793 77.8123 109.806 77.8033 109.818L72.7784 116.632C72.7606 116.656 72.7274 116.661 72.7031 116.643C72.6789 116.626 72.6737 116.593 72.6916 116.568L77.6846 109.799C77.4076 109.609 77.1178 109.426 76.8318 109.25C76.0007 108.736 75.1479 108.251 74.2874 107.787C72.9265 107.055 71.5363 106.373 70.1294 105.734C68.2476 104.877 66.3301 104.094 64.3909 103.375C59.1719 101.442 53.7666 99.9699 48.3038 98.8999C42.6572 97.7943 36.9276 97.1178 31.1789 96.8258C31.1725 96.8271 31.1661 96.8258 31.1597 96.8246C29.5371 96.7421 27.9145 96.69 26.2906 96.6685C26.2612 96.6685 26.237 96.6431 26.237 96.6139C26.237 96.5847 26.2625 96.5606 26.2919 96.5606C27.9119 96.5821 29.5307 96.6342 31.1495 96.7167C31.3729 96.473 31.5746 96.1975 31.761 95.9259C32.0138 95.5553 32.2487 95.1694 32.4734 94.781C33.0543 93.7745 33.5802 92.7248 34.082 91.6776C34.6948 90.3981 35.2756 89.1022 35.8386 87.7999C36.4527 86.3808 37.0476 84.9529 37.6298 83.5198C38.9613 80.2438 40.2329 76.9398 41.4674 73.6257C42.0342 72.1013 42.5985 70.5743 43.1436 69.0423C43.1538 69.0143 43.1845 68.9991 43.2126 69.0093C43.2406 69.0194 43.256 69.0499 43.2457 69.0778C42.7006 70.6098 42.1376 72.1381 41.5695 73.6625C40.335 76.9779 39.0634 80.2819 37.7319 83.5604C37.1498 84.9935 36.5548 86.4227 35.9395 87.8418C35.3752 89.1441 34.7943 90.4413 34.1815 91.722C33.6785 92.7717 33.1513 93.824 32.5691 94.833C32.3432 95.224 32.1083 95.6124 31.8529 95.9856C31.678 96.2382 31.4917 96.4933 31.2887 96.7243Z" fill="#A7D1F3"/>
<path fill-rule="evenodd" clip-rule="evenodd" d="M72.4196 11.2399C72.4145 11.2387 72.4094 11.2374 72.4043 11.2336C72.2664 11.1536 72.1068 11.0838 71.9613 11.0229C71.6038 10.8744 71.2259 10.7614 70.8455 10.6929C69.7348 10.4923 68.6663 10.6878 67.7841 11.4189C67.4126 11.7273 67.1534 12.117 67.1598 12.612C67.1662 13.1096 67.4394 13.5932 67.7369 13.9778C68.0215 14.3472 68.3701 14.6835 68.7301 14.9793C68.8986 15.1189 69.0812 15.2611 69.2637 15.3816C69.288 15.3981 69.2956 15.4311 69.279 15.4565C69.2624 15.4806 69.2293 15.4883 69.2037 15.4718C69.0173 15.3486 68.8322 15.2039 68.6611 15.0618C68.2948 14.7597 67.9411 14.4182 67.6513 14.0425C66.9517 13.1375 66.7347 12.1487 67.7152 11.3351C68.6216 10.5837 69.7233 10.3806 70.8646 10.5862C71.2527 10.6561 71.6383 10.7716 72.0034 10.9226C72.1515 10.9835 72.3111 11.0546 72.4515 11.1346C72.9724 11.226 73.4996 11.2882 74.0256 11.3377C74.6537 11.3973 75.2844 11.4379 75.9138 11.4684C77.3398 11.5369 78.7709 11.556 80.1982 11.5522C82.4221 11.5471 84.6499 11.4874 86.8725 11.3961C87.6359 11.3643 88.4007 11.3313 89.1641 11.2907C89.1718 11.2894 89.1781 11.2882 89.1858 11.2894C89.4386 11.2755 89.6901 11.2615 89.9416 11.2463C89.9709 11.245 89.9965 11.2666 89.999 11.297C90.0003 11.3262 89.9786 11.3516 89.948 11.3542C89.7207 11.3681 89.4922 11.3808 89.2649 11.3935C89.4692 11.7832 89.6658 12.1779 89.8599 12.5727C90.308 13.4853 90.7369 14.4094 91.1301 15.3461C91.4378 16.0797 91.7327 16.835 91.9599 17.5966C92.0774 17.9913 92.2217 18.5231 92.2485 18.9852C92.2766 18.9039 92.3046 18.8214 92.3315 18.7402C92.3404 18.7123 92.371 18.697 92.3991 18.7059C92.4272 18.7148 92.4425 18.7453 92.4336 18.7732C92.3723 18.9598 92.3072 19.1464 92.2408 19.3317C92.2408 19.333 92.2408 19.333 92.2395 19.3342C92.2357 19.3444 92.228 19.3533 92.2191 19.3596C92.2089 19.366 92.1974 19.3698 92.1846 19.3685C92.1795 19.3685 92.1744 19.3672 92.1706 19.3647C92.1604 19.3609 92.1514 19.3533 92.1451 19.3444C92.1387 19.3342 92.1348 19.3228 92.1361 19.3101C92.1591 19.074 92.1285 18.8125 92.0889 18.579C92.034 18.2591 91.9497 17.9393 91.8565 17.6283C91.6293 16.8705 91.3369 16.1178 91.0306 15.388C90.6386 14.4525 90.2097 13.5297 89.7628 12.6197C89.5624 12.2109 89.3581 11.8022 89.1475 11.3999C88.3917 11.4405 87.6334 11.4735 86.8776 11.5039C84.6537 11.5953 82.4247 11.655 80.1995 11.6601C78.7709 11.6639 77.3372 11.6448 75.9099 11.5763C75.278 11.5458 74.6461 11.5052 74.0167 11.4456C73.4843 11.3948 72.9507 11.3326 72.4247 11.2399C72.4209 11.2399 72.4209 11.2399 72.4196 11.2399Z" fill="white"/>
<path d="M92.1873 19.3964C92.1847 19.3964 92.1821 19.3964 92.1783 19.3964C92.1707 19.3951 92.163 19.3938 92.1566 19.3913C92.1413 19.3849 92.1273 19.3748 92.1183 19.3596C92.1081 19.3443 92.103 19.3253 92.1055 19.3075C92.1247 19.1133 92.1094 18.8823 92.0583 18.584C92.0098 18.3048 91.937 18.0039 91.8272 17.6371C91.6332 16.9872 91.3791 16.298 91.0025 15.4006C90.6425 14.5438 90.2289 13.6388 89.7361 12.6336C89.5727 12.301 89.3569 11.8656 89.1284 11.4303C88.4773 11.4645 87.7815 11.4963 86.8764 11.5343C84.4252 11.6346 82.2396 11.6854 80.197 11.6905C78.5361 11.6943 77.1726 11.6676 75.9062 11.6067C75.204 11.5724 74.5849 11.5305 74.0116 11.476C73.3899 11.4176 72.8831 11.3516 72.4171 11.2703H72.4133C72.4056 11.2691 72.3967 11.2653 72.3903 11.2614C72.2409 11.1751 72.0673 11.1002 71.9499 11.052C71.586 10.901 71.2119 10.7905 70.8392 10.7233C69.6736 10.5126 68.6229 10.7613 67.8008 11.443C67.3871 11.7857 67.1803 12.1791 67.1867 12.6145C67.1918 13.027 67.3846 13.4802 67.7573 13.9638C68.0139 14.2963 68.3472 14.6314 68.7467 14.9614C68.9523 15.1303 69.1208 15.2585 69.2778 15.3625C69.2957 15.374 69.3085 15.393 69.3123 15.4146C69.3161 15.4362 69.3123 15.4577 69.3008 15.4755C69.2753 15.5123 69.2242 15.5225 69.1872 15.4984C69.0251 15.3905 68.8514 15.2597 68.6421 15.0871C68.2323 14.7495 67.8914 14.4055 67.6271 14.0628C66.7986 12.9902 66.8216 12.0408 67.6948 11.3173C68.5552 10.604 69.6519 10.3437 70.8673 10.5621C71.2515 10.6319 71.6371 10.7448 72.0111 10.901C72.1975 10.9784 72.3405 11.0457 72.458 11.1129C72.915 11.1929 73.4142 11.2576 74.0257 11.3148C74.5938 11.3681 75.2117 11.4112 75.9126 11.4442C77.1752 11.5052 78.5361 11.5305 80.1944 11.528C82.2345 11.5229 84.4176 11.4722 86.8675 11.3719C87.7867 11.3338 88.4926 11.3021 89.159 11.2665C89.1642 11.264 89.1756 11.264 89.1859 11.2653C89.4323 11.2513 89.6838 11.2373 89.9365 11.2221C89.9582 11.2208 89.9799 11.2284 89.9953 11.2424C90.0119 11.2564 90.0221 11.2767 90.0233 11.2983C90.0259 11.3427 89.9914 11.382 89.9467 11.3846C89.7335 11.3973 89.5203 11.41 89.3059 11.4214C89.4757 11.7463 89.6544 12.1017 89.8804 12.5637C90.3744 13.5703 90.7893 14.4778 91.1506 15.3397C91.5298 16.2434 91.7864 16.939 91.9817 17.5927C92.0826 17.9291 92.2153 18.4114 92.26 18.8531C92.2728 18.8138 92.2868 18.7744 92.2996 18.7351C92.306 18.7148 92.3213 18.6982 92.3405 18.6881C92.3596 18.6779 92.3826 18.6767 92.403 18.683C92.4234 18.6894 92.44 18.7046 92.4502 18.7236C92.4605 18.7427 92.4617 18.7655 92.4553 18.7858C92.3928 18.975 92.3264 19.1653 92.2626 19.3443C92.2549 19.3634 92.2447 19.3761 92.2294 19.3862C92.2192 19.3913 92.2039 19.3964 92.1873 19.3964ZM89.1616 11.3706L89.1705 11.3871C89.4029 11.8288 89.6212 12.2718 89.7872 12.6082C90.2799 13.6135 90.6949 14.5197 91.0549 15.3778C91.4328 16.2777 91.6868 16.9695 91.8821 17.6206C91.9919 17.99 92.066 18.2933 92.1145 18.5751C92.1668 18.8798 92.1821 19.1133 92.163 19.3139C92.163 19.3202 92.1643 19.3253 92.1668 19.3304C92.1694 19.3354 92.1745 19.338 92.1796 19.3405L92.1873 19.3418C92.1949 19.3418 92.2 19.3405 92.2039 19.338C92.209 19.3354 92.2115 19.3304 92.2141 19.3253C92.2779 19.145 92.3443 18.9559 92.4068 18.7655C92.4094 18.7592 92.4081 18.7516 92.4056 18.7452C92.403 18.7389 92.3966 18.7338 92.3902 18.7325C92.3839 18.73 92.3762 18.7312 92.3698 18.7338C92.3634 18.7363 92.3583 18.7427 92.3571 18.749C92.3302 18.8315 92.3022 18.9128 92.2741 18.9953L92.2281 19.1285L92.2204 18.9876C92.1936 18.518 92.043 17.9735 91.9332 17.6054C91.7379 16.953 91.4825 16.2599 91.1047 15.3575C90.7434 14.4969 90.3285 13.5906 89.8357 12.5853C89.6008 12.1055 89.4169 11.7412 89.242 11.4061L89.2216 11.3681L89.265 11.3655C89.4923 11.3528 89.7208 11.3401 89.948 11.3262C89.9621 11.3249 89.9736 11.3135 89.9723 11.2983C89.9723 11.2919 89.9684 11.2856 89.9633 11.2805C89.9582 11.2754 89.9518 11.2729 89.9442 11.2741C89.6927 11.2894 89.4399 11.3033 89.1884 11.3173C89.1795 11.316 89.1756 11.316 89.1731 11.3173C88.5016 11.3541 87.7956 11.3858 86.8751 11.4239C84.424 11.5242 82.2409 11.575 80.1995 11.58C78.5399 11.5839 77.1777 11.5572 75.9138 11.4963C75.2117 11.462 74.5938 11.4201 74.0244 11.3655C73.4091 11.3071 72.9086 11.2424 72.4477 11.1624L72.4388 11.1586C72.3226 11.0926 72.1809 11.0254 71.9945 10.9479C71.623 10.7943 71.2426 10.6814 70.8621 10.6128C69.6634 10.3958 68.5821 10.6535 67.7356 11.3554C66.6671 12.2413 67.1139 13.2949 67.6756 14.0234C67.9374 14.3623 68.2757 14.7038 68.6816 15.0389C68.8897 15.2102 69.0621 15.341 69.2217 15.4463C69.2331 15.4539 69.2497 15.4514 69.2574 15.4387C69.2612 15.4324 69.2625 15.426 69.2612 15.4197C69.26 15.4133 69.2561 15.407 69.2497 15.4032C69.0914 15.2978 68.9204 15.1696 68.7136 14.9983C68.3101 14.6657 67.9744 14.3268 67.7152 13.9917C67.3335 13.4979 67.1382 13.0334 67.1331 12.6094C67.1267 12.1576 67.3412 11.7489 67.7676 11.3947C68.6025 10.703 69.6685 10.4504 70.8519 10.6636C71.2285 10.7309 71.6064 10.8439 71.9741 10.9962C72.0928 11.0457 72.269 11.1206 72.4209 11.2094C72.4235 11.2107 72.426 11.2119 72.4286 11.2119C72.8946 11.2945 73.3988 11.3592 74.0193 11.4176C74.5912 11.4709 75.2104 11.514 75.9113 11.5483C77.1764 11.6092 78.5399 11.6359 80.1995 11.6321C82.2422 11.627 84.4265 11.5762 86.8764 11.476C87.7892 11.4392 88.4888 11.4061 89.145 11.3719L89.1616 11.3706Z" fill="#F0A38B"/>
<path fill-rule="evenodd" clip-rule="evenodd" d="M80.6991 54.3291C80.957 52.0342 81.2366 49.7419 81.5417 47.4534C81.6783 46.4265 81.8174 45.3984 81.9719 44.374C81.9757 44.3474 81.9974 44.3284 82.0242 44.3284L82.5758 44.3169C82.4724 43.6569 82.3779 42.9931 82.2923 42.3305C82.2489 41.9878 82.2068 41.6438 82.1736 41.3011C82.1481 41.046 82.1225 40.7781 82.1225 40.5217C82.1225 40.2158 82.1838 39.8846 82.254 39.5888C82.3651 39.1166 82.5221 38.6495 82.6958 38.1964C82.9371 37.5719 83.2192 36.9614 83.5243 36.3661C83.9188 35.5981 84.3541 34.8493 84.8163 34.1194C84.8316 34.094 84.8661 34.0864 84.8903 34.1029C84.9159 34.1181 84.9235 34.1524 84.9069 34.1765C84.4473 34.9038 84.0133 35.6489 83.6201 36.4143C83.3162 37.0071 83.0353 37.6138 82.7953 38.2345C82.623 38.6825 82.4672 39.1458 82.3575 39.6129C82.2898 39.901 82.2285 40.2247 82.2285 40.5217C82.2285 40.7743 82.254 41.0383 82.2783 41.2897C82.3115 41.6324 82.3536 41.9751 82.397 42.3165C82.4826 42.9829 82.577 43.6505 82.6817 44.3144L89.1773 44.1773C89.2054 44.1773 89.2296 44.1976 89.2322 44.2255C89.3599 45.4047 89.4799 46.5852 89.5986 47.7656C89.9037 50.7853 90.1922 53.8074 90.4667 56.8296C90.8165 60.6819 91.1421 64.5381 91.4382 68.3942C91.4408 68.4234 91.4178 68.45 91.3885 68.4513C91.3591 68.4538 91.3323 68.431 91.331 68.4018C91.0348 64.5457 90.7093 60.6908 90.3595 56.8385C90.085 53.8163 89.7965 50.7941 89.4914 47.7745C89.3739 46.6105 89.2552 45.4466 89.1301 44.2839L82.0676 44.4337C81.9157 45.4428 81.7791 46.4557 81.6451 47.4661C81.3336 49.8104 81.0476 52.1586 80.7846 54.5094C80.7897 54.5246 80.7872 54.5398 80.7795 54.5525C80.7476 54.8343 80.717 55.1174 80.6863 55.3991C80.2791 59.1182 79.9267 62.8448 79.6395 66.5753C79.3114 70.8376 79.0688 75.11 78.9488 79.3837C78.8505 82.9124 78.8365 86.4486 78.959 89.9773C79.0177 91.6527 79.1084 93.3295 79.2424 95.0011C79.3688 96.57 79.5322 98.1363 79.7518 99.6937C79.9522 101.119 80.1999 102.541 80.5178 103.945C80.7999 105.192 81.1395 106.435 81.5698 107.642C82.2349 109.51 83.2013 111.529 84.6478 112.929C84.6695 112.949 84.6695 112.983 84.649 113.005C84.6286 113.026 84.5941 113.026 84.5724 113.006C83.1132 111.595 82.1391 109.564 81.4676 107.679C81.0361 106.468 80.6953 105.222 80.4118 103.969C80.094 102.561 79.8463 101.137 79.6446 99.709C79.425 98.149 79.2603 96.5801 79.1352 95.01C79.0011 93.3371 78.9105 91.6591 78.8518 89.9823C78.7279 86.4524 78.7433 82.9137 78.8416 79.3825C78.9603 75.1075 79.2041 70.8338 79.5322 66.5689C79.8195 62.8372 80.1706 59.1093 80.5791 55.389C80.611 55.1021 80.6429 54.8153 80.6748 54.5284C79.905 52.8948 78.1675 51.4961 76.6904 50.5124C75.2733 49.568 73.7337 48.7557 72.1851 48.0474C71.663 47.8088 71.1344 47.5803 70.6021 47.3645C70.394 47.2807 70.1846 47.197 69.974 47.1195C69.9459 47.1094 69.9318 47.0789 69.9421 47.051L72.0638 40.7223C71.8762 40.4989 71.6974 40.2539 71.5289 40.0178C71.0681 39.3718 70.6455 38.6927 70.2587 37.9984C69.0024 35.7428 68.1024 33.2677 67.6556 30.7266C67.6505 30.6974 67.6696 30.6695 67.699 30.6644C67.7283 30.6593 67.7564 30.6784 67.7615 30.7075C68.2071 33.236 69.1033 35.701 70.3531 37.9451C70.7374 38.6343 71.1574 39.3108 71.617 39.9544C71.7894 40.1955 71.9732 40.4481 72.166 40.6741C72.1724 40.6817 72.1762 40.6893 72.1775 40.6982C72.1787 40.7071 72.1787 40.7159 72.1762 40.7261L70.0608 47.0358C70.2561 47.1081 70.4502 47.1855 70.6429 47.2642C71.1766 47.48 71.7064 47.7098 72.2311 47.9484C73.786 48.6592 75.3308 49.4741 76.7517 50.421C78.202 51.3882 79.8871 52.7412 80.6991 54.3291Z" fill="#F0A38B"/>
<path d="M84.6129 113.047C84.5912 113.047 84.5708 113.04 84.5555 113.025C83.3133 111.823 82.2958 110.077 81.4443 107.687C81.046 106.568 80.7 105.353 80.3885 103.975C80.0911 102.658 79.8396 101.263 79.6212 99.7123C79.4132 98.2348 79.2459 96.6977 79.1106 95.0108C78.9816 93.4102 78.8897 91.7652 78.8272 89.9818C78.7123 86.7083 78.7084 83.2406 78.817 79.3807C78.9293 75.3405 79.1553 71.1493 79.5076 66.5659C79.7859 62.9459 80.1383 59.1837 80.5545 55.386C80.5851 55.1016 80.617 54.8173 80.6489 54.533C80.0285 53.2231 78.6931 51.8789 76.6786 50.5347C75.379 49.6678 73.9057 48.863 72.1771 48.0723C71.6422 47.8273 71.1098 47.5976 70.5954 47.3907C70.4064 47.3145 70.1855 47.2257 69.9685 47.1457C69.9264 47.1305 69.9047 47.0835 69.92 47.0416L72.0367 40.7269C71.8516 40.506 71.6741 40.2623 71.5094 40.0326C71.069 39.4157 70.6413 38.7353 70.2379 38.0106C68.9523 35.703 68.0765 33.2533 67.6323 30.7299C67.6284 30.7083 67.6335 30.6867 67.6463 30.669C67.6591 30.6512 67.6782 30.6398 67.6986 30.636C67.7433 30.6284 67.7855 30.6576 67.7931 30.702C68.2336 33.2063 69.1042 35.6395 70.3809 37.9306C70.7817 38.6503 71.2056 39.3243 71.6435 39.9374C71.8145 40.1773 71.9997 40.4298 72.1912 40.6558C72.2001 40.6659 72.2065 40.6786 72.209 40.6926C72.2116 40.7066 72.2116 40.7218 72.2065 40.7345L70.1 47.0188C70.2762 47.0848 70.4511 47.1546 70.6579 47.2371C71.1737 47.4452 71.7086 47.6763 72.2461 47.9225C73.9823 48.7158 75.4632 49.5256 76.7705 50.3976C78.6944 51.6796 80.0106 52.9692 80.6834 54.2334C80.9439 51.9182 81.2247 49.636 81.5158 47.4491C81.6396 46.5174 81.7852 45.4359 81.946 44.3697C81.9524 44.3304 81.9856 44.3012 82.0252 44.2999L82.5448 44.2885C82.4439 43.6437 82.3507 42.9862 82.2665 42.3325C82.2128 41.92 82.1771 41.6027 82.1477 41.3019C82.1247 41.0721 82.0967 40.7853 82.0967 40.52C82.0967 40.261 82.1388 39.9627 82.2282 39.5807C82.3277 39.1555 82.4733 38.6998 82.6712 38.1845C82.8958 37.6019 83.1678 37.0015 83.501 36.3516C83.875 35.6205 84.2989 34.8856 84.7942 34.1024C84.8057 34.0846 84.8236 34.072 84.8453 34.0669C84.867 34.0618 84.8887 34.0656 84.9066 34.077C84.9257 34.0885 84.9385 34.1062 84.9423 34.1278C84.9474 34.1494 84.9436 34.171 84.9321 34.1887C84.4393 34.9668 84.0193 35.6979 83.6465 36.4252C83.3159 37.0713 83.0465 37.6653 82.8231 38.2429C82.6278 38.7506 82.4848 39.1999 82.3865 39.6175C82.2996 39.9881 82.2588 40.275 82.2588 40.52C82.2588 40.7776 82.2856 41.048 82.3086 41.2854C82.3379 41.5824 82.375 41.8984 82.4273 42.3109C82.5116 42.9697 82.606 43.6336 82.7082 44.2847L89.1795 44.1476C89.2216 44.1463 89.2587 44.1781 89.2625 44.22C89.3953 45.4512 89.5216 46.6925 89.6289 47.76C89.9251 50.6972 90.2174 53.7473 90.497 56.8253C90.8583 60.8096 91.1851 64.7 91.4685 68.3911C91.4698 68.4127 91.4634 68.4343 91.4494 68.4508C91.4353 68.4673 91.4149 68.4775 91.3932 68.4787C91.3715 68.48 91.3498 68.4736 91.3332 68.4597C91.3166 68.4457 91.3064 68.4254 91.3051 68.4038C91.0217 64.7115 90.6949 60.8211 90.3336 56.8406C90.054 53.76 89.7617 50.7111 89.4655 47.7778C89.3608 46.7344 89.2369 45.521 89.1067 44.3139L82.0941 44.4624C81.9384 45.5032 81.7954 46.5605 81.6754 47.4719C81.3741 49.7363 81.0843 52.1036 80.8149 54.5089C80.8187 54.5266 80.8175 54.5457 80.8085 54.5622C80.7766 54.8427 80.746 55.1232 80.7153 55.4037C80.2991 59.2015 79.9468 62.9611 79.6685 66.5786C79.3161 71.1595 79.0914 75.3481 78.9791 79.3858C78.8719 83.2419 78.8757 86.7071 78.9893 89.9768C79.0519 91.7576 79.1438 93.4013 79.2727 94.9994C79.408 96.6825 79.574 98.217 79.7821 99.6907C80.0004 101.237 80.2506 102.627 80.5468 103.939C80.857 105.311 81.2017 106.519 81.5975 107.633C82.4286 109.966 83.4614 111.74 84.6691 112.908C84.6844 112.923 84.6934 112.943 84.6934 112.965C84.6934 112.987 84.6857 113.007 84.6704 113.023C84.6563 113.039 84.6359 113.047 84.6129 113.047C84.6142 113.047 84.6142 113.047 84.6129 113.047ZM67.7101 30.6918C67.7089 30.6918 67.7076 30.6918 67.705 30.6918C67.6986 30.6931 67.6923 30.6969 67.6884 30.702C67.6846 30.7083 67.6833 30.7147 67.6846 30.721C68.1276 33.238 69.0021 35.6814 70.2851 37.9839C70.6873 38.7061 71.1149 39.3852 71.5541 40.0008C71.7201 40.2344 71.9001 40.4806 72.0878 40.704L72.098 40.7154L72.0929 40.7307L69.9711 47.0594C69.966 47.0733 69.9736 47.0873 69.9864 47.0924C70.2047 47.1723 70.4256 47.2612 70.6145 47.3374C71.129 47.5455 71.6626 47.7753 72.1988 48.0202C73.9312 48.811 75.4058 49.6183 76.7092 50.4865C78.7365 51.8383 80.0796 53.1926 80.7026 54.5139L80.7064 54.5216L80.7051 54.5292C80.6732 54.816 80.6413 55.1029 80.6094 55.3898C80.1932 59.1875 79.8408 62.9484 79.5625 66.5684C79.2102 71.1506 78.9842 75.3418 78.8719 79.3807C78.7646 83.2394 78.7684 86.7058 78.8821 89.978C78.9446 91.7614 79.0378 93.4051 79.1655 95.0057C79.3008 96.6901 79.4668 98.2272 79.6749 99.7034C79.8932 101.253 80.1434 102.646 80.4421 103.961C80.7536 105.337 81.0983 106.55 81.4966 107.667C82.3443 110.048 83.358 111.787 84.5938 112.983C84.5989 112.988 84.604 112.993 84.6129 112.99C84.6193 112.99 84.627 112.988 84.6308 112.983C84.6359 112.978 84.6385 112.971 84.6385 112.964C84.6385 112.957 84.6359 112.95 84.6308 112.946C83.4001 111.755 82.3916 110.023 81.5464 107.649C81.1494 106.533 80.8047 105.323 80.4932 103.949C80.1957 102.635 79.9455 101.244 79.7272 99.6958C79.5191 98.2208 79.3531 96.685 79.2178 95.0006C79.0902 93.4013 78.997 91.7576 78.9344 89.9755C78.8195 86.7045 78.8157 83.2381 78.9242 79.3807C79.0365 75.3431 79.2625 71.1531 79.6149 66.571C79.8932 62.9522 80.2455 59.1926 80.6617 55.3936C80.6923 55.1118 80.7243 54.8287 80.7549 54.5469L80.7587 54.5355C80.7626 54.5292 80.7638 54.5216 80.7613 54.5152L80.76 54.5101L80.7613 54.5038C81.0307 52.0959 81.3205 49.7262 81.6217 47.4605C81.7443 46.5428 81.8873 45.4753 82.0443 44.4269L82.0482 44.404H82.0711L89.1591 44.2542L89.1616 44.2796C89.2931 45.4969 89.417 46.7192 89.5229 47.7702C89.8191 50.7035 90.1115 53.7536 90.391 56.8342C90.7523 60.8147 91.0791 64.7064 91.3626 68.3988C91.3626 68.4051 91.3664 68.4115 91.3715 68.4165C91.3766 68.4216 91.383 68.4229 91.3907 68.4229C91.397 68.4229 91.4034 68.4191 91.4085 68.414C91.4136 68.4089 91.4149 68.4026 91.4149 68.395C91.1315 64.7051 90.8047 60.8135 90.4434 56.8304C90.1638 53.7524 89.8714 50.7035 89.5753 47.7664C89.468 46.6989 89.3416 45.4575 89.2089 44.2263C89.2076 44.2123 89.1961 44.2047 89.1821 44.2035L82.6609 44.3418L82.6571 44.3177C82.5537 43.6589 82.458 42.9862 82.3724 42.3186C82.3188 41.906 82.2831 41.5887 82.2537 41.2917C82.2307 41.0518 82.2039 40.7802 82.2039 40.52C82.2039 40.2699 82.2448 39.9792 82.3328 39.6048C82.4311 39.1847 82.5754 38.7328 82.772 38.2225C82.9954 37.6437 83.2661 37.0472 83.598 36.3998C83.9708 35.6725 84.3921 34.9389 84.8861 34.1595C84.89 34.1532 84.8912 34.1468 84.89 34.1405C84.8887 34.1341 84.8849 34.1278 84.8785 34.124C84.8721 34.1202 84.8657 34.1189 84.8593 34.1202C84.8529 34.1215 84.8466 34.1253 84.8427 34.1316C84.3487 34.9135 83.9261 35.6471 83.552 36.3757C83.2188 37.0243 82.9482 37.6222 82.7248 38.2035C82.5269 38.715 82.3826 39.1694 82.2831 39.5921C82.1937 39.9704 82.1528 40.2648 82.1528 40.5187C82.1528 40.7814 82.1809 41.0658 82.2039 41.2955C82.2333 41.5951 82.2703 41.9124 82.3226 42.3249C82.4082 42.9888 82.5026 43.6564 82.6048 44.3114L82.6099 44.3431L82.0264 44.3558C82.0137 44.3558 82.0035 44.3647 82.0009 44.3774C81.8401 45.4436 81.6945 46.525 81.5707 47.4567C81.2758 49.6716 80.9924 51.9842 80.7281 54.3312L80.7179 54.4238L80.6758 54.3413C80.0196 53.0606 78.6957 51.7494 76.7386 50.4459C75.4338 49.5751 73.9555 48.7678 72.2218 47.9758C71.6843 47.7308 71.1507 47.4998 70.6349 47.2917C70.4192 47.2041 70.2379 47.1317 70.0541 47.0645L70.0285 47.0556L70.0375 47.0302L72.1516 40.718C72.1529 40.7142 72.1529 40.7091 72.1529 40.7053C72.1516 40.7015 72.1503 40.6977 72.1478 40.6939C71.955 40.4667 71.7686 40.2128 71.5975 39.9716C71.1596 39.3573 70.7332 38.6808 70.3324 37.9598C69.0532 35.6624 68.1799 33.2241 67.7382 30.7134C67.7344 30.7007 67.7229 30.6918 67.7101 30.6918Z" fill="#A7D1F3"/>
<path fill-rule="evenodd" clip-rule="evenodd" d="M87.2148 18.6627C87.2901 18.8607 87.3808 19.06 87.4701 19.2517C87.6642 19.6655 87.885 20.078 88.1404 20.4588C88.2923 20.686 88.4595 20.9081 88.6497 21.1048C88.6702 21.1264 88.6689 21.1607 88.6485 21.181C88.6268 21.2013 88.5923 21.2013 88.5719 21.1797C88.3778 20.9779 88.2055 20.7507 88.051 20.5184C87.7931 20.1326 87.5697 19.7162 87.3731 19.2974C87.2825 19.1032 87.1918 18.9014 87.1139 18.7008C87.1037 18.6729 87.1178 18.6424 87.1446 18.631C87.1727 18.6208 87.2033 18.6348 87.2148 18.6627Z" fill="#3F4553"/>
<path d="M88.6101 21.2991C88.6089 21.2991 88.6076 21.2991 88.6063 21.2991C88.5642 21.2978 88.5246 21.2813 88.4952 21.2508C88.3165 21.0642 88.1416 20.8446 87.9629 20.5756C87.7229 20.2163 87.4982 19.8127 87.2773 19.3405C87.1624 19.0968 87.082 18.9102 87.0156 18.7363C87.0003 18.697 87.0016 18.6538 87.0194 18.6158C87.0373 18.5777 87.068 18.5485 87.1075 18.5333C87.1471 18.518 87.1905 18.5193 87.2288 18.5371C87.2671 18.5548 87.2965 18.5853 87.3118 18.6246C87.3756 18.7909 87.4535 18.9712 87.5646 19.2072C87.779 19.6655 87.9961 20.0551 88.2271 20.4004C88.3969 20.653 88.5591 20.8599 88.725 21.0325C88.785 21.096 88.7838 21.1962 88.7199 21.2559C88.6906 21.2838 88.6523 21.2991 88.6101 21.2991Z" fill="#3F4553"/>
<path fill-rule="evenodd" clip-rule="evenodd" d="M80.4741 16.4338C80.6656 16.4732 80.8584 16.5087 81.0512 16.543C81.4686 16.6179 81.8899 16.6852 82.3099 16.7385C82.5844 16.7727 82.8614 16.8019 83.1385 16.8184C83.3555 16.8311 83.5904 16.8375 83.8062 16.8121C83.8355 16.8083 83.8623 16.8299 83.8662 16.8591C83.87 16.8882 83.8483 16.9149 83.8189 16.9187C83.5968 16.9454 83.3555 16.9377 83.1321 16.9251C82.8525 16.9098 82.5729 16.8794 82.2959 16.8451C81.8733 16.7918 81.4507 16.7245 81.0307 16.6496C80.838 16.6153 80.6439 16.5798 80.4511 16.5405C80.4218 16.5341 80.4026 16.5062 80.409 16.477C80.4167 16.4465 80.446 16.4275 80.4741 16.4338Z" fill="#3F4553"/>
<path d="M83.478 17.0405C83.3568 17.0405 83.2367 17.0354 83.1282 17.0291C82.878 17.0151 82.6099 16.9885 82.2844 16.9479C81.895 16.8984 81.4801 16.8349 81.0141 16.7511C80.8533 16.7219 80.6426 16.6838 80.432 16.6407C80.3464 16.6229 80.2915 16.5391 80.3081 16.4541C80.3171 16.4122 80.3413 16.3767 80.3771 16.3538C80.4128 16.331 80.4549 16.3234 80.4958 16.331C80.695 16.3716 80.8979 16.4084 81.0703 16.4401C81.5299 16.5226 81.9397 16.5861 82.324 16.6343C82.6431 16.675 82.9035 16.7003 83.1461 16.713C83.3478 16.7245 83.5827 16.7333 83.7959 16.708C83.8381 16.7029 83.8789 16.7143 83.9134 16.741C83.9466 16.7676 83.9683 16.8044 83.9734 16.8463C83.9836 16.9326 83.921 17.0113 83.8342 17.0215C83.7155 17.0354 83.5955 17.0405 83.478 17.0405Z" fill="#3F4553"/>
<path fill-rule="evenodd" clip-rule="evenodd" d="M86.4562 24.0926C86.4601 24.2449 86.4767 24.4049 86.4958 24.5546C86.5367 24.877 86.6056 25.2058 86.7167 25.5117C86.8137 25.777 86.9542 26.0549 87.1622 26.2504C87.1839 26.2707 87.1852 26.305 87.1648 26.3266C87.1444 26.3482 87.1099 26.3494 87.0882 26.3291C86.8661 26.1209 86.718 25.8315 86.6146 25.5485C86.5009 25.2363 86.4307 24.8986 86.3886 24.5686C86.3682 24.415 86.3516 24.2513 86.3477 24.0952C86.3465 24.066 86.3707 24.0406 86.4001 24.0406C86.4307 24.0393 86.455 24.0634 86.4562 24.0926Z" fill="#3F4553"/>
<path d="M87.1253 26.4472C87.0857 26.4472 87.0474 26.4332 87.0168 26.404C86.8138 26.2136 86.6453 25.9369 86.5163 25.584C86.4104 25.2934 86.3325 24.9557 86.284 24.5826C86.2597 24.3909 86.2457 24.2373 86.2431 24.099C86.2419 24.0571 86.2572 24.0165 86.2865 23.986C86.3159 23.9555 86.3555 23.9378 86.3976 23.9378C86.4397 23.9352 86.4806 23.9517 86.5112 23.9809C86.5419 24.0101 86.5597 24.0495 86.561 24.0913C86.5636 24.2183 86.5763 24.3617 86.5993 24.5432C86.644 24.8948 86.7168 25.2083 86.8151 25.4774C86.9261 25.7846 87.0678 26.0194 87.2338 26.1755C87.2976 26.2352 87.3002 26.3355 87.2402 26.3989C87.2095 26.4307 87.1674 26.4472 87.1253 26.4472Z" fill="#3F4553"/>
<path fill-rule="evenodd" clip-rule="evenodd" d="M77.6794 20.418C77.784 20.4967 77.9028 20.5716 78.0151 20.6402C78.3036 20.8153 78.6088 20.9702 78.9203 21.1009C79.8573 21.4969 80.8863 21.695 81.9051 21.5807C81.9345 21.5769 81.9613 21.5985 81.9651 21.6277C81.9689 21.6569 81.9472 21.6835 81.9179 21.6873C80.8812 21.8041 79.8344 21.6036 78.8794 21.1999C78.5628 21.0667 78.2539 20.9093 77.9602 20.7316C77.8453 20.6618 77.7228 20.5843 77.6155 20.5031C77.5913 20.4853 77.5874 20.451 77.6053 20.4282C77.6219 20.4041 77.6551 20.4003 77.6794 20.418Z" fill="#3F4553"/>
<path d="M81.3293 21.8231C80.5123 21.8231 79.6621 21.6441 78.8373 21.295C78.5105 21.1567 78.1977 20.9968 77.9054 20.8191C77.7956 20.7518 77.6667 20.6718 77.5518 20.5855C77.4815 20.5322 77.4688 20.4332 77.5211 20.3646C77.5467 20.3316 77.5837 20.3101 77.6258 20.3037C77.6679 20.2974 77.7101 20.3088 77.7433 20.3342C77.8467 20.4129 77.9667 20.4878 78.0701 20.55C78.3484 20.7188 78.6484 20.8724 78.9612 21.0044C79.9404 21.4182 80.954 21.5819 81.8923 21.4765C81.9345 21.4715 81.9753 21.4842 82.0085 21.5095C82.0417 21.5362 82.0621 21.573 82.0672 21.6149C82.0775 21.7012 82.0149 21.7799 81.9281 21.7901C81.7315 21.8129 81.5311 21.8231 81.3293 21.8231Z" fill="#3F4553"/>
<path fill-rule="evenodd" clip-rule="evenodd" d="M76.2995 32.6377C76.5229 32.7418 76.7833 32.9881 76.9403 33.1696C77.4344 33.7395 77.714 34.482 77.8518 35.2131C77.8569 35.2423 77.8378 35.2703 77.8084 35.2753C77.7791 35.2804 77.751 35.2614 77.7459 35.2322C77.6106 34.5201 77.3399 33.7941 76.8586 33.2394C76.7335 33.0947 76.5905 32.9589 76.4348 32.8472C76.3812 32.8091 76.3148 32.7634 76.2548 32.7355C76.228 32.7228 76.2165 32.691 76.2292 32.6644C76.2395 32.6365 76.2726 32.625 76.2995 32.6377Z" fill="#3F4553"/>
<path d="M77.7994 35.3793C77.7241 35.3793 77.6577 35.326 77.6437 35.2511C77.493 34.4578 77.1943 33.785 76.7794 33.3065C76.6492 33.1567 76.5126 33.0298 76.3734 32.9295C76.33 32.8978 76.2649 32.8534 76.21 32.828C76.1717 32.8102 76.1424 32.7785 76.1283 32.7391C76.1143 32.6998 76.1155 32.6566 76.1334 32.6185C76.1513 32.5805 76.1832 32.5513 76.2228 32.5373C76.2624 32.5233 76.3058 32.5246 76.3441 32.5424C76.5815 32.6528 76.8483 32.9029 77.0194 33.0996C77.4764 33.6276 77.7918 34.3308 77.9552 35.1914C77.9628 35.2333 77.9539 35.2752 77.9309 35.3095C77.9067 35.3437 77.8709 35.3678 77.8288 35.3755C77.8186 35.3793 77.8084 35.3793 77.7994 35.3793ZM76.2968 32.6401C76.2968 32.6401 76.2981 32.6401 76.2968 32.6401C76.2968 32.6401 76.2981 32.6401 76.2968 32.6401Z" fill="#3F4553"/>
<path fill-rule="evenodd" clip-rule="evenodd" d="M84.0933 26.2287C83.838 27.0461 83.5699 27.8636 83.289 28.6734C83.1014 29.2154 82.906 29.7637 82.6865 30.293C82.6111 30.4745 82.5307 30.6624 82.4362 30.8337C82.3979 30.9035 82.3111 31.0622 82.2205 31.0724C81.9626 31.1003 81.6983 30.9975 81.4826 30.8655C81.0664 30.6116 80.7026 30.1889 80.4204 29.8005C80.4026 29.7764 80.4089 29.7434 80.4319 29.7256C80.4562 29.7079 80.4894 29.7142 80.5072 29.7371C80.7804 30.1128 81.1366 30.5278 81.5388 30.7728C81.7341 30.8908 81.9754 30.9898 82.2077 30.9645C82.246 30.9518 82.3341 30.7944 82.3533 30.7588C82.4452 30.5888 82.5231 30.4047 82.5971 30.2257C82.8128 29.7053 83.0031 29.1671 83.1882 28.6353C83.469 27.8268 83.7359 27.0106 83.9912 26.1944C84.0001 26.1665 84.0308 26.15 84.0589 26.1589C84.0869 26.1703 84.1023 26.2008 84.0933 26.2287Z" fill="#3F4553"/>
<path d="M82.135 31.1828C81.9154 31.1828 81.6728 31.1054 81.4277 30.9569C81.069 30.7385 80.7115 30.3806 80.3349 29.864C80.3106 29.8297 80.3004 29.7878 80.3068 29.7472C80.3132 29.7053 80.3362 29.6685 80.3707 29.6444C80.4421 29.5936 80.5404 29.6089 80.5928 29.6799C80.9388 30.1547 81.2758 30.4936 81.5937 30.6878C81.7405 30.7766 81.9562 30.8782 82.1643 30.8667C82.1873 30.8375 82.2282 30.7741 82.2601 30.7132C82.352 30.5431 82.4312 30.3539 82.5001 30.1902C82.7222 29.652 82.9201 29.0897 83.0886 28.6061C83.3618 27.8179 83.6325 26.9979 83.8904 26.1678C83.9031 26.1272 83.9299 26.0942 83.9682 26.0751C84.0053 26.0548 84.0487 26.051 84.0895 26.0637C84.1291 26.0764 84.1623 26.1031 84.1827 26.1411C84.2031 26.178 84.207 26.2211 84.1942 26.2617C83.935 27.0944 83.6631 27.9182 83.3886 28.7089C83.2163 29.2078 83.012 29.7853 82.7835 30.3349C82.7082 30.5151 82.6265 30.7068 82.5282 30.8858C82.4478 31.0305 82.3584 31.1638 82.2333 31.1777C82.2001 31.1803 82.1682 31.1828 82.135 31.1828Z" fill="#3F4553"/>
</svg>
