<svg width="164" height="130" viewBox="0 0 164 130" fill="none" xmlns="http://www.w3.org/2000/svg">
<g clip-path="url(#clip0_319_1004)">
<path d="M150.386 24.3394H147V41.3394H150.386V24.3394Z" fill="#9BA3FF"/>
<path d="M155.693 30.0537H152.307V41.3392H155.693V30.0537Z" fill="#9BA3FF"/>
<path d="M161.007 35.4395H157.621V41.3395H161.007V35.4395Z" fill="#9BA3FF"/>
</g>
<g clip-path="url(#clip1_319_1004)">
<path d="M85.5 129.339C104.554 129.339 120 126.653 120 123.339C120 120.026 104.554 117.339 85.5 117.339C66.4462 117.339 51 120.026 51 123.339C51 126.653 66.4462 129.339 85.5 129.339Z" fill="#808AFF"/>
</g>
<path d="M79.6817 45.4957C79.6817 45.4957 78.3301 60.4362 83.9284 60.2111C89.9338 59.9665 88.3185 45.4957 88.3185 45.4957C87.5336 43.1632 87.221 41.7801 87.5727 39.3335H80.2809C80.6326 41.7801 80.4633 43.1632 79.6817 45.4957Z" fill="#FDBCA0"/>
<path d="M80.4274 42.2233C81.2546 42.4713 82.0883 42.6996 82.9514 42.7714C83.7688 42.8399 84.609 42.7877 85.4232 42.6996C86.1006 42.6246 86.8236 42.5039 87.501 42.2788C87.3935 41.3915 87.4098 40.4781 87.5759 39.3298H80.2841C80.4437 40.4553 80.4925 41.3556 80.4274 42.2233Z" fill="#F0A38B"/>
<path d="M83.9283 41.3722C86.0093 41.3722 88.0122 40.5502 89.4777 39.0691C91.2233 37.3076 92.5912 35.3438 92.9918 33.0375C93.5063 30.0755 92.5065 27.1167 90.3245 24.7354H77.5288C75.3468 27.1134 74.347 30.0755 74.8615 33.0375C75.2621 35.3438 76.6332 37.3076 78.3755 39.0691C79.8443 40.5469 81.8472 41.3722 83.9283 41.3722Z" fill="#FDBCA0"/>
<path d="M84.5635 47.2376C84.2997 47.528 84.0522 47.8444 83.8177 48.1608C83.5344 47.9651 83.3097 47.727 83.0622 47.4823C83.0394 47.4595 82.9938 47.4823 83.0035 47.5149C83.1436 47.8998 83.4367 48.213 83.7363 48.4805C83.8014 48.536 83.8926 48.5425 83.9578 48.4805C84.2737 48.1706 84.583 47.8085 84.8273 47.4366C84.9315 47.2833 84.6905 47.0974 84.5635 47.2376Z" fill="#DF8370"/>
<path d="M91.6046 46.6666C89.6603 46.833 87.7421 47.1494 85.8499 47.6322C85.736 47.6616 85.7848 47.8345 85.8988 47.8084C87.7812 47.3908 89.6831 47.107 91.6046 46.9765C91.8065 46.9635 91.8032 46.6503 91.6046 46.6666Z" fill="#DF8370"/>
<path d="M76.2491 46.6666C78.1933 46.833 80.1115 47.1494 82.0037 47.6322C82.1177 47.6616 82.0688 47.8345 81.9549 47.8084C80.0725 47.3908 78.1705 47.107 76.2491 46.9765C76.0504 46.9635 76.0504 46.6503 76.2491 46.6666Z" fill="#DF8370"/>
<path d="M76.5844 19.8096C73.865 21.3689 71.9501 23.8253 71.9175 27.1265C71.8849 30.8486 76.4118 36.7759 76.3499 36.6291C74.8453 33.0081 74.4512 28.0236 78.2062 25.5281C78.5808 25.2802 79.0497 25.1366 79.3852 24.8463C79.3754 22.8792 78.2909 20.9742 76.5844 19.8096Z" fill="#3F4553"/>
<path d="M91.0049 19.8096C93.7242 21.3689 95.6392 23.8253 95.6718 27.1265C95.7043 30.8486 93.48 34.1597 91.2654 36.9716C91.8288 35.7451 93.1348 28.0203 89.3798 25.5281C89.0052 25.2802 88.5363 25.1366 88.2008 24.8463C88.2139 22.8792 89.3016 20.9741 91.0049 19.8096Z" fill="#424495"/>
<path d="M130.05 17.8392C127.973 16.8051 125.546 16.5833 123.286 17.0433C122.192 17.2651 121.156 17.6533 120.169 18.1785C119.515 18.5243 118.85 19.0201 118.088 19.0788C117.163 19.1473 116.353 18.5438 115.665 18.0089C113.529 16.3452 111.357 14.887 108.608 14.4858C107.279 14.29 105.794 14.4336 104.765 15.2491C103.71 13.8529 102.137 12.858 100.404 12.4926C98.1116 12.0098 95.9328 12.6981 94.1319 14.0813C93.1158 13.5822 91.3376 12.8645 91.1129 12.8025C84.3389 10.9366 75.0898 15.6699 76.2882 23.6523C77.3174 30.5126 85.99 33.6834 91.9987 32.2741C93.2949 34.7305 96.4018 35.3014 98.7955 34.0226C98.9779 34.1629 99.1602 34.3032 99.3459 34.4402C103.166 37.2456 107.611 39.0692 112.412 38.2406C114.236 37.9241 115.942 37.2652 117.512 36.3192C119.003 37.4414 120.967 37.7969 122.775 36.9292C124.12 36.2866 125.022 35.0991 125.344 33.7551C125.367 33.7551 125.39 33.7551 125.413 33.7551C129.405 33.7062 133.639 31.7196 134.659 27.5277C135.587 23.7176 133.522 19.5649 130.05 17.8392Z" fill="#4E5567"/>
<path d="M111.897 16.5963C113.21 17.6695 113.988 19.1408 113.171 20.762C112.506 22.0832 111.311 23.0455 110.441 24.2166C109.422 25.5867 109.246 27.345 110.917 28.3465C112.562 29.3317 114.623 28.1051 115.994 27.1754C117.688 26.0239 119.505 22.6932 120.964 21.2644C127.445 14.9196 133.88 21.7015 133.906 21.7244C133.066 20.0737 131.724 18.6743 130.05 17.8392C127.972 16.8051 125.546 16.5833 123.286 17.0432C122.192 17.265 121.156 17.6532 120.169 18.1784C119.515 18.5242 118.85 19.0201 118.088 19.0788C117.163 19.1473 116.352 18.5438 115.665 18.0088C113.529 16.3451 111.357 14.8869 108.608 14.4857C107.308 14.2965 105.859 14.4335 104.833 15.2034C107.071 14.3324 110.103 15.1251 111.897 16.5963Z" fill="#3F4553"/>
<path d="M129.158 32.6787C127.572 32.8647 126.087 32.7766 124.628 32.1274C123.999 33.7618 122.713 35.4124 120.895 35.6701C119.674 35.843 118.231 35.4613 117.981 34.1663C109.396 41.1668 99.7722 33.3572 98.844 31.8926C96.167 33.6411 92.793 31.5076 91.7932 28.7772C89.7545 29.5699 87.4032 29.3253 85.4231 28.4738C81.7332 26.8917 79.688 22.5302 80.9776 18.6809C82.0524 15.4808 84.915 13.2919 88.0871 12.4013C81.9025 12.3655 75.2621 16.815 76.2879 23.6524C77.3171 30.5127 85.9865 33.6835 91.9984 32.2742C93.2946 34.7306 96.4015 35.3015 98.7952 34.0227C98.9776 34.163 99.1599 34.3033 99.3456 34.4403C103.166 37.2457 107.611 39.0692 112.412 38.2407C114.235 37.9242 115.942 37.2653 117.512 36.3193C119.003 37.4414 120.967 37.797 122.774 36.9293C124.12 36.2866 125.022 35.0992 125.344 33.7552C125.367 33.7552 125.39 33.7552 125.412 33.7552C127.318 33.7324 129.275 33.2659 130.916 32.3329C130.34 32.5058 129.741 32.6102 129.158 32.6787Z" fill="#3F4553"/>
<path d="M81.642 34.786C80.5022 34.9752 78.6491 35.0372 77.5972 33.9085C77.3887 33.6834 77.1054 33.9379 77.3659 34.163C77.4083 34.1989 77.4506 34.2315 77.4929 34.2641C77.3692 34.3 77.2389 34.3163 77.1021 34.3065C77.0989 34.3065 77.0989 34.3098 77.1021 34.313C77.2682 34.3685 77.4376 34.3848 77.6037 34.3522C77.6069 34.3554 77.6102 34.3587 77.6134 34.3587C77.4701 34.4533 77.2975 34.4925 77.1282 34.5479C77.1249 34.5479 77.1249 34.5512 77.1282 34.5544C77.3366 34.574 77.5548 34.5479 77.7274 34.437C77.747 34.45 77.7665 34.4566 77.786 34.4696C77.6558 34.5707 77.5092 34.6458 77.3431 34.6849C77.3268 34.6882 77.3301 34.7143 77.3464 34.7143C77.5581 34.7241 77.76 34.6719 77.9293 34.5544C77.9652 34.574 78.0042 34.5903 78.0401 34.6099C77.9196 34.698 77.7958 34.7763 77.6558 34.8415C77.6427 34.848 77.6493 34.8709 77.6623 34.8709C77.8479 34.8774 78.0108 34.7828 78.1573 34.6719C78.2029 34.6947 78.2485 34.711 78.2973 34.7306C78.2355 34.7926 78.1638 34.8513 78.0954 34.91C78.0857 34.9198 78.0954 34.9328 78.1085 34.9328C78.2257 34.9035 78.3332 34.8545 78.4244 34.786C79.4698 35.2166 80.6943 35.2297 81.743 34.8513C81.8537 34.8056 81.769 34.7665 81.642 34.786Z" fill="#3F4553"/>
<path d="M86.3219 34.786C87.4618 34.9752 89.3148 35.0372 90.3668 33.9085C90.5752 33.6834 90.8585 33.9379 90.598 34.163C90.5557 34.1989 90.5133 34.2315 90.471 34.2641C90.598 34.3 90.725 34.3163 90.8618 34.3065C90.865 34.3065 90.865 34.3098 90.8618 34.313C90.6957 34.3685 90.5263 34.3848 90.3603 34.3522C90.357 34.3554 90.3537 34.3587 90.3505 34.3587C90.4938 34.4533 90.6664 34.4925 90.8357 34.5479C90.839 34.5479 90.839 34.5512 90.8357 34.5544C90.6273 34.574 90.4091 34.5479 90.2365 34.437C90.217 34.45 90.1974 34.4566 90.1779 34.4696C90.3081 34.5707 90.4547 34.6458 90.6208 34.6849C90.6371 34.6882 90.6338 34.7143 90.6175 34.7143C90.4058 34.7241 90.2039 34.6719 90.0346 34.5544C89.9988 34.574 89.9597 34.5903 89.9238 34.6099C90.0443 34.698 90.1681 34.7763 90.3081 34.8415C90.3212 34.848 90.3147 34.8709 90.3016 34.8709C90.116 34.8774 89.9532 34.7828 89.8066 34.6719C89.761 34.6947 89.7154 34.711 89.6698 34.7306C89.7317 34.7926 89.8034 34.8513 89.8717 34.91C89.8815 34.9198 89.8717 34.9328 89.8587 34.9328C89.7415 34.9035 89.634 34.8545 89.5428 34.786C88.4974 35.2166 87.2729 35.2297 86.2209 34.8513C86.1135 34.8056 86.1949 34.7665 86.3219 34.786Z" fill="#3F4553"/>
<path d="M84.7001 37.1643C84.166 37.4416 83.6352 37.5525 83.0848 37.2197C83.0457 37.1969 83.0001 37.2523 83.0359 37.285C83.5081 37.7058 84.3484 37.8134 84.8206 37.3209C84.8988 37.236 84.8011 37.1121 84.7001 37.1643Z" fill="#3F4553"/>
<path d="M85.9213 39.0886C85.2536 39.2876 84.5958 39.3626 83.9444 39.3332C83.2931 39.3626 82.6352 39.2876 81.9676 39.0886C81.9513 39.0821 81.9383 39.1114 81.9546 39.1179C82.5961 39.392 83.2703 39.5388 83.9444 39.5551C84.6186 39.5388 85.2927 39.392 85.9343 39.1179C85.9506 39.1114 85.9375 39.0853 85.9213 39.0886Z" fill="#3F4553"/>
<path d="M80.883 36.3845C80.8277 36.3584 80.7691 36.3356 80.7104 36.3193C79.9647 36.1268 79.0821 35.7615 78.3037 35.8952C77.7533 35.9898 77.6263 36.6586 77.939 37.0533C78.2744 37.4774 78.9323 37.5981 79.4403 37.6372C79.9516 37.6763 80.7528 37.7318 81.1338 37.3306C81.479 36.9685 81.2445 36.5607 80.883 36.3845Z" fill="#FBAD8B"/>
<path d="M86.9795 36.3845C87.0348 36.3584 87.0934 36.3356 87.1521 36.3193C87.8979 36.1268 88.7804 35.7615 89.5588 35.8952C90.1092 35.9898 90.2362 36.6586 89.9235 37.0533C89.5881 37.4774 88.9302 37.5981 88.4222 37.6372C87.9109 37.6763 87.1097 37.7318 86.7287 37.3306C86.3835 36.9685 86.6212 36.5607 86.9795 36.3845Z" fill="#FBAD8B"/>
<path d="M74.0931 31.5009C73.3212 31.3868 72.494 31.7064 72.6341 32.6231C72.7448 33.3538 73.5297 34.0813 74.7282 33.8627C74.4025 33.1059 74.1778 32.3099 74.0931 31.5009Z" fill="#F9CDB9"/>
<path d="M73.3472 32.2188C73.5589 32.0427 73.8878 31.9644 74.1712 32.01C74.1549 31.922 74.1451 31.8306 74.1321 31.7425C73.7445 31.7067 73.2886 31.8665 73.0671 32.147C72.7219 32.5874 72.9825 33.0768 73.3635 33.3769C73.4189 33.4225 73.497 33.3508 73.4449 33.2953C73.1681 33.0017 72.976 32.5287 73.3472 32.2188Z" fill="#F8C4AB"/>
<path d="M74.3244 32.7079C74.1225 32.5252 73.8587 32.4241 73.5558 32.4372C73.4874 32.4404 73.4613 32.5546 73.5395 32.5644C73.8163 32.6035 74.0541 32.7471 74.2006 32.9689C74.0313 33.0602 73.9075 33.2592 74.0801 33.4223C74.2169 33.5528 74.4188 33.5822 74.611 33.5626C74.5035 33.2821 74.4025 32.9982 74.3244 32.7079Z" fill="#F8C4AB"/>
<path d="M74.0248 33.6508C74.0216 33.6475 74.0151 33.6508 74.0183 33.654C74.1421 33.9607 74.318 34.6783 73.8946 34.8251C73.6112 34.923 73.5852 34.5576 73.6275 34.3652C73.6666 34.189 73.7643 34.0063 73.8457 33.8498C73.8457 33.8498 73.6503 33.8073 73.4712 33.716C73.2269 33.9248 73.139 34.2347 73.1814 34.5609C73.2204 34.8578 73.4093 35.184 73.7448 35.1938C74.0444 35.2035 74.2593 34.9458 74.3049 34.6718C74.357 34.3162 74.2137 33.9411 74.0248 33.6508Z" fill="#FDCA27"/>
<path d="M136.345 89.8311C134.515 87.6487 130.555 87.4726 127.956 87.2018C120.143 86.3863 112.132 86.5885 104.315 87.2214C100.424 87.5378 96.5514 88.0108 92.6955 88.6339C89.9044 89.0873 86.7878 89.4037 84 90.2975C81.2122 89.4037 78.0955 89.084 75.3045 88.6339C71.4518 88.0075 67.5763 87.5345 63.6845 87.2214C55.8684 86.5885 47.8536 86.3863 40.0439 87.2018C37.4483 87.4726 33.4849 87.6487 31.6546 89.8311C29.8862 91.9384 32.0682 94.4926 33.7487 95.8334C36.0707 97.6863 39.0181 98.5997 41.8319 99.3989C45.3654 100.397 48.9804 101.076 52.6149 101.591C68.8823 103.888 77.7145 102.195 86.2178 102.09C86.5435 102.504 86.8496 102.935 87.1297 103.382C95.7503 103.437 106.823 102.749 115.382 101.591C119.02 101.098 122.631 100.4 126.165 99.3989C128.982 98.6029 131.926 97.6895 134.248 95.8334C135.929 94.4926 138.111 91.9384 136.345 89.8311Z" fill="#93BFA8"/>
<path d="M124.803 91.3414C125.074 90.9957 126.712 90.5683 127.357 90.2812C124.318 90.5259 121.267 90.8913 118.235 91.2044C112.467 91.7981 106.693 93.3281 101.228 95.2429C98.6129 96.1596 96.0042 97.1219 93.4054 98.0875C91.3471 98.8509 89.3117 99.686 87.3804 100.727C87.6768 100.635 87.9731 100.544 88.2695 100.456C91.3504 99.549 103.905 92.7474 127.152 91.9091C126.614 91.7916 124.699 91.4752 124.803 91.3414Z" fill="#66A986"/>
<path d="M43.5384 90.8619C43.2681 90.5162 41.6299 90.0888 40.9851 89.8018C44.0236 90.0464 47.0752 90.4118 50.1072 90.7249C55.8749 91.3186 61.649 92.8486 67.1138 94.7634C69.729 95.6801 72.3376 96.6424 74.9365 97.608C76.9947 98.3714 79.0302 99.2065 80.9614 100.247C80.6651 100.156 80.3687 100.064 80.0723 99.9763C76.9915 99.0694 64.4368 92.2679 41.1903 91.4296C41.7244 91.3121 43.6393 90.9957 43.5384 90.8619Z" fill="#66A986"/>
<path d="M91.8585 98.0745C90.5493 97.5493 89.1652 97.5362 87.8918 98.081C85.7164 99.0172 83.0491 97.5819 80.7889 97.8396C78.7079 98.0778 77.441 100.449 79.0335 101.963C79.4178 102.328 83.2803 103.731 89.3997 100.873C90.0706 100.56 90.7252 100.381 91.484 100.391C91.6599 100.394 91.826 100.56 92.0116 100.541C92.4089 100.492 92.7346 100.42 92.9561 100.035C93.4771 99.1282 92.6076 98.3746 91.8585 98.0745Z" fill="#FDB597"/>
<path d="M76.5844 102.886C77.6884 102.009 79.0139 101.598 80.385 101.758C82.7363 102.032 84.8825 99.8916 87.1231 99.4904C89.1847 99.1218 91.0768 101.03 89.9826 102.942C89.7188 103.402 86.4164 105.852 79.7369 104.866C79.0041 104.759 78.3267 104.775 77.6037 105C77.4376 105.052 77.3236 105.261 77.138 105.294C76.744 105.362 76.4118 105.385 76.0893 105.082C75.3338 104.361 75.9526 103.389 76.5844 102.886Z" fill="#FDBCA0"/>
<path d="M120.967 49.2958C120.214 49.684 119.423 50.1211 118.684 50.5289C119.075 50.2092 121.244 47.9975 122.087 47.4527C122.178 47.394 121.963 46.4969 119.745 48.2715C119.084 48.8 118.303 49.335 117.681 49.9124C118.472 48.4085 119.133 46.8851 120.169 45.5085C120.211 45.453 120.198 45.3911 120.162 45.3487C119.951 45.1823 119.42 45.3715 119.182 45.6259C118.759 46.0761 117.15 47.8181 116.368 49.6547C116.381 49.0251 116.326 48.004 115.88 47.7952C115.6 47.6615 115.134 47.8377 114.834 47.8605C114.245 47.9029 113.473 47.9877 112.923 47.7528C112.841 47.7202 112.636 47.6941 112.711 47.9649C112.962 48.8522 114.199 48.9631 114.968 49.1588C115.228 49.7917 114.496 50.829 114.033 51.1422C113.281 51.6543 112.183 51.152 112.372 50.1472C112.538 49.2632 113.066 48.862 112.6 47.9942C112.447 47.7072 111.789 47.4462 111.936 47.9094C112.314 49.0936 111.229 50.0885 111.089 51.2335C110.978 52.1404 111.457 52.9461 111.939 53.6736C111.91 53.7486 111.887 53.8237 111.861 53.8954C111.206 55.0306 110.698 56.2278 110.33 57.4805C111.17 57.7578 113.639 57.5816 113.629 57.5621C113.639 57.5816 113.926 55.8266 114.584 55.0861C115.303 54.2738 116.209 53.6475 117.075 53.0081C118.895 51.6609 120.745 50.3528 122.621 49.0805C122.729 49.012 122.641 48.4314 120.967 49.2958Z" fill="#FDBCA0"/>
<path d="M47.2314 49.2958C47.9837 49.684 48.7751 50.1211 49.5144 50.5289C49.1236 50.2092 46.9546 47.9975 46.1111 47.4527C46.0199 47.394 46.2349 46.4969 48.4527 48.2715C49.1138 48.8 49.8954 49.335 50.5174 49.9124C49.7261 48.4085 49.0649 46.8851 48.0293 45.5085C47.987 45.453 48 45.3911 48.0358 45.3487C48.2475 45.1823 48.7784 45.3715 49.0161 45.6259C49.4395 46.0761 51.0483 47.8181 51.8299 49.6547C51.8169 49.0251 51.8722 48.004 52.3184 47.7952C52.5985 47.6615 53.0642 47.8377 53.3638 47.8605C53.9533 47.9029 54.7251 47.9877 55.2755 47.7528C55.3569 47.7202 55.5621 47.6941 55.4872 47.9649C55.2364 48.8522 53.9989 48.9631 53.2303 49.1588C52.9698 49.7917 53.7025 50.829 54.165 51.1422C54.9173 51.6543 56.0148 51.152 55.8259 50.1472C55.6598 49.2632 55.1322 48.862 55.5979 47.9942C55.751 47.7072 56.4089 47.4462 56.2623 47.9094C55.8845 49.0936 56.969 50.0885 57.1091 51.2335C57.2198 52.1404 56.7411 52.9461 56.2591 53.6736C56.2884 53.7486 56.3112 53.8237 56.3372 53.8954C56.9918 55.0306 57.4999 56.2278 57.8679 57.4805C57.0276 57.7578 54.559 57.5816 54.5688 57.5621C54.559 57.5816 54.2725 55.8266 53.6146 55.0861C52.8949 54.2738 51.9895 53.6475 51.1232 53.0081C49.3027 51.6609 47.4529 50.3528 45.577 49.0805C45.4695 49.012 45.5575 48.4314 47.2314 49.2958Z" fill="#FDBCA0"/>
<path d="M109.451 56.3258C108.23 59.4802 104.088 71.126 102.358 76.0649C101.329 73.4226 98.5479 61.9497 96.2063 48.6304C95.4768 44.4908 90.8164 45.0812 88.3218 45.4955C88.1426 48.2748 85.4493 55.98 84.0033 55.9963C82.5574 55.98 79.6914 48.8196 79.6849 45.4955C77.1935 45.0812 72.5299 44.4908 71.8004 48.6304C69.4555 61.9497 66.6776 73.4258 65.6484 76.0649C63.9158 71.126 59.7765 59.4802 58.5553 56.3258C56.9888 57.0663 55.2562 57.474 53.5269 57.5751C54.8654 61.1407 59.2848 86.3895 65.7982 86.3895C68.6218 86.3895 70.4098 83.3851 73.2887 72.2547C73.432 74.1141 73.4809 77.6862 73.4092 81.4409C73.3571 84.1452 71.491 87.2703 68.9931 86.6668C68.4883 86.5461 67.8304 86.9278 68.4557 87.6063C68.6251 87.7922 68.8433 87.9292 69.068 88.0336C73.0575 89.9257 73.2138 92.7539 75.5684 94.4013C76.9916 95.3963 78.7437 95.7094 80.4144 96.0487C82.2252 96.414 84.0913 96.6881 85.9346 96.4108C88.9992 95.9508 91.3798 93.8989 93.9168 92.294C95.3335 91.3969 96.773 90.6792 98.4372 90.4346C102.72 89.805 102.436 86.7777 101.541 86.8397C98.5414 87.0452 94.591 83.2155 94.5682 79.0008C94.5519 76.1954 94.6073 73.7064 94.718 72.2547C97.5969 83.3851 99.3849 86.3895 102.208 86.3895C108.722 86.3895 113.141 61.1407 114.48 57.5751C112.75 57.474 111.018 57.063 109.451 56.3258Z" fill="#F2EDE4"/>
<path d="M92.2203 67.3517C92.1877 67.3745 92.1616 67.3973 92.1356 67.4202C91.6047 67.9388 91.1911 68.5619 90.67 69.0904C90.149 69.6156 89.4748 70.056 88.7355 70.0527C86.9606 70.0429 86.0715 67.9095 85.0033 66.8232C83.3619 65.1595 81.7694 68.9501 80.5481 69.6939C79.2943 70.4572 78.4443 69.9972 77.5194 69.0936C76.9527 68.5391 76.4707 67.916 75.9464 67.3223C75.8096 67.1657 75.4969 67.3321 75.5816 67.5343C76.1939 69.0088 77.578 71.4554 79.405 71.4946C80.5253 71.5174 81.4437 70.8748 82.1797 70.0853C82.5412 69.6971 83.5378 67.6126 84.1859 67.8867C84.3064 67.9388 84.3911 68.0465 84.4725 68.1509C84.7949 68.575 85.0945 69.0219 85.4397 69.4264C85.6189 69.6352 86.1367 69.9809 86.1367 70.268C86.8694 71.015 87.8758 71.6022 88.9147 71.475C89.9764 71.3445 90.8166 70.5127 91.4321 69.6352C91.8685 69.0121 92.2365 68.3401 92.5264 67.6355C92.5687 67.5343 92.6045 67.4071 92.5296 67.3256C92.4482 67.2407 92.3245 67.2799 92.2203 67.3517Z" fill="#D9C9AC"/>
<g clip-path="url(#clip2_319_1004)">
<path d="M151.99 84.2946L163.135 80.5589L157.548 64.1592L146.403 67.8949C145.966 68.0406 145.729 68.5101 145.88 68.9431L150.933 83.7725C151.08 84.2056 151.553 84.4403 151.99 84.2946Z" fill="#3F4553"/>
<path d="M151.998 83.9709L163.421 80.1422L158.038 64.3455L146.615 68.1742C146.333 68.2673 146.182 68.5709 146.276 68.8542L151.312 83.635C151.41 83.9143 151.716 84.064 151.998 83.9709Z" fill="#DDDDE3"/>
<path d="M152.239 83.8899L163.662 80.0611L158.279 64.2644L146.856 68.0932C146.574 68.1863 146.423 68.4898 146.517 68.7731L151.553 83.5539C151.651 83.8332 151.957 83.987 152.239 83.8899Z" fill="#E2E5FF"/>
<path d="M152.855 84.0032L164 80.2675L158.413 63.8718L147.268 67.6075C146.831 67.7532 146.594 68.2227 146.745 68.6558L151.798 83.4852C151.945 83.9182 152.418 84.1489 152.855 84.0032Z" fill="#4E5567"/>
<path d="M157.789 64.0813L157.549 64.1616L163.136 80.5615L163.376 80.4812L157.789 64.0813Z" fill="#3F4553"/>
<path d="M159.381 76.8919L159.63 76.3658L160.152 76.6329L156.071 64.6568C155.997 64.4464 155.814 64.4626 155.602 64.5354C155.389 64.6083 155.23 64.7054 155.304 64.9159L159.381 76.8919Z" fill="#93BFA8"/>
<path d="M134.338 68.4295L141.84 59.6091L140.323 58.341L132.822 67.1614L134.338 68.4295Z" fill="#3F4553"/>
<path d="M132.821 67.1584L134.335 68.4253L132.147 69.6192C132.074 69.6597 131.976 69.5747 132 69.4978L132.821 67.1584Z" fill="#F2EDE4"/>
<path d="M132.151 69.6231L132.743 69.2993L132.229 68.8662L132.009 69.4976C131.98 69.5745 132.078 69.6595 132.151 69.6231Z" fill="#3F4553"/>
<path d="M133.836 68.0093L141.337 59.189L140.822 58.7584L133.321 67.5788L133.836 68.0093Z" fill="#4E5567"/>
</g>
<g clip-path="url(#clip3_319_1004)">
<path d="M51.5028 -16.6606C41.8335 -16.6606 34 -8.82713 34 0.842112C34 10.5058 41.8335 18.3449 51.5028 18.3449C61.1665 18.3449 69.0055 10.5114 69.0055 0.842112C69 -8.82713 61.1665 -16.6606 51.5028 -16.6606ZM51.5028 15.3846C43.4708 15.3846 36.9603 8.87409 36.9603 0.842112C36.9603 -7.18986 43.4708 -13.7003 51.5028 -13.7003C59.5347 -13.7003 66.0452 -7.18986 66.0452 0.842112C66.0452 8.87409 59.5347 15.3846 51.5028 15.3846Z" fill="#808AFF"/>
<path d="M64.9209 6.44887C68.0195 -0.961061 64.5244 -9.47989 57.1145 -12.5785C49.7046 -15.6771 41.1857 -12.182 38.0872 -4.77209C34.9886 2.63784 38.4836 11.1567 45.8935 14.2553C53.3035 17.3538 61.8223 13.8588 64.9209 6.44887Z" fill="#AEB4FC"/>
<path d="M64.7382 0.868761C64.7382 -0.151087 63.1506 -0.156599 63.1506 0.868761C63.1506 1.89412 64.7382 1.89412 64.7382 0.868761Z" fill="#808AFF"/>
<path d="M51.469 14.0776C52.4888 14.0776 52.4943 12.49 51.469 12.49C50.4491 12.49 50.4436 14.0776 51.469 14.0776Z" fill="#808AFF"/>
<path d="M38.2618 0.808945C38.2618 1.82879 39.8495 1.8343 39.8495 0.808945C39.8495 -0.2109 38.2618 -0.216413 38.2618 0.808945Z" fill="#808AFF"/>
<path d="M57.7544 5.09213C57.6607 5.09213 57.567 5.07008 57.4843 5.01496L51.2274 1.2939C51.0675 1.20018 50.9683 1.02378 50.9683 0.836344V-9.16365C50.9683 -9.45583 51.2053 -9.69287 51.4975 -9.69287C51.7897 -9.69287 52.0267 -9.45583 52.0267 -9.16365V0.538661L58.0245 4.10536C58.2781 4.2542 58.3608 4.57946 58.2064 4.83304C58.1127 4.99842 57.9363 5.09213 57.7544 5.09213Z" fill="#808AFF"/>
</g>
<path d="M16.6207 36.7458L16.2715 34.7648L14.2463 35.1099C13.925 34.185 13.4013 33.3705 12.7239 32.7078L13.9111 31.0443L12.249 29.8916L11.0688 31.5482C10.2168 31.1341 9.26706 30.9063 8.27541 30.9132L7.91925 28.9045L5.915 29.2497L6.26417 31.2514C5.32839 31.5689 4.50434 32.0866 3.83392 32.7561L2.15091 31.5827L0.984669 33.2255L2.6607 34.392C2.24169 35.2341 2.01124 36.1729 2.01822 37.153L0 37.4982L0.349173 39.4792L2.37438 39.1341C2.69562 40.059 3.21938 40.8735 3.89677 41.5361L2.70959 43.1996L4.37165 44.3524L5.55186 42.6958C6.40384 43.1099 7.35359 43.3377 8.34524 43.3308L8.7014 45.3394L10.7057 44.9943L10.3565 42.9926C11.2923 42.6751 12.1163 42.1574 12.7867 41.4878L14.4697 42.6612L15.636 41.0184L13.96 39.8519C14.379 39.0098 14.6094 38.0711 14.6024 37.0909L16.6207 36.7458ZM8.63157 38.9615C7.605 39.141 6.62731 38.4576 6.44574 37.4429C6.26417 36.4283 6.95553 35.4619 7.9821 35.2825C9.00867 35.103 9.98636 35.7863 10.1679 36.801C10.3495 37.8157 9.66512 38.782 8.63157 38.9615Z" fill="#9BA3FF"/>
<path d="M35.7278 32.7492V30.2574H33.1788C32.9903 29.0564 32.5224 27.952 31.838 26.9994L33.6467 25.2117L31.8659 23.4515L30.0642 25.2324C29.1075 24.549 27.9971 24.0727 26.782 23.8726V21.3394H24.2609V23.8588C23.0458 24.0451 21.9215 24.5076 20.9647 25.1841L19.156 23.3963L17.3752 25.1564L19.177 26.9373C18.4856 27.8829 18.0037 28.9804 17.8012 30.1815H15.2383V32.6733H17.7873C17.9758 33.8743 18.4437 34.9787 19.1281 35.9313L17.3194 37.719L19.1001 39.4792L20.9019 37.6983C21.8586 38.3817 22.969 38.8579 24.1841 39.0581V41.5913H26.7051V39.0719C27.9203 38.8855 29.0376 38.4231 30.0013 37.7466L31.8101 39.5344L33.5908 37.7742L31.7891 35.9934C32.4805 35.0477 32.9623 33.9502 33.1648 32.7492H35.7278ZM25.483 33.7846C24.1911 33.7846 23.1366 32.7492 23.1366 31.4653C23.1366 30.1884 24.1841 29.1461 25.483 29.1461C26.775 29.1461 27.8295 30.1815 27.8295 31.4653C27.8225 32.7423 26.775 33.7846 25.483 33.7846Z" fill="#AEB4FC"/>
<g opacity="0.3">
<path d="M153.995 14.2365L135.266 10.0271C135.082 9.98703 134.966 9.80358 135.009 9.62013L137.367 -0.880106C137.407 -1.06356 137.591 -1.1803 137.774 -1.13694L156.503 3.07583C156.687 3.11585 156.803 3.29931 156.76 3.48276L154.398 13.983C154.358 14.1631 154.178 14.2799 153.995 14.2365Z" fill="#ECECEC"/>
<path d="M135.319 9.78012C135.269 9.77011 135.239 9.72008 135.253 9.67338L137.614 -0.826848C137.624 -0.876881 137.674 -0.906901 137.721 -0.893559L156.45 3.31921C156.5 3.32922 156.53 3.37925 156.517 3.42595L154.155 13.9262C154.145 13.9762 154.095 14.0062 154.048 13.9929L135.319 9.78012Z" fill="#F5F4F5"/>
<path d="M153.867 2.47991L140.414 -0.54541L140.359 -0.30135L153.812 2.72397L153.867 2.47991Z" fill="#706F6E"/>
<path d="M139.105 0.964361L138.485 0.824269C138.408 0.807592 138.358 0.730874 138.375 0.650822L138.471 0.213868C138.488 0.137151 138.565 0.0871183 138.645 0.103796L139.265 0.243887C139.342 0.260565 139.392 0.337282 139.375 0.417335L139.279 0.854289C139.259 0.931006 139.182 0.981038 139.105 0.964361Z" fill="#585857"/>
<path d="M138.511 0.700831C138.501 0.697496 138.494 0.687489 138.498 0.677483L138.594 0.240528C138.598 0.230522 138.608 0.22385 138.618 0.227186L139.238 0.367279C139.248 0.370614 139.255 0.380621 139.252 0.390627L139.155 0.82758C139.152 0.837587 139.141 0.844258 139.131 0.840923L138.511 0.700831Z" fill="#5E5E5D"/>
<path d="M140.242 1.21802L139.622 1.07793C139.545 1.06125 139.495 0.984536 139.512 0.904484L139.609 0.467531C139.625 0.390814 139.702 0.34078 139.782 0.357458L140.402 0.497551C140.479 0.514228 140.529 0.590946 140.512 0.670998L140.416 1.10795C140.396 1.188 140.319 1.2347 140.242 1.21802Z" fill="#585857"/>
<path d="M139.649 0.957667C139.639 0.954332 139.632 0.944324 139.635 0.934317L139.732 0.497364C139.735 0.487358 139.745 0.480686 139.755 0.484022L140.376 0.624115C140.386 0.62745 140.392 0.637457 140.389 0.647463L140.292 1.08442C140.289 1.09442 140.279 1.10109 140.269 1.09776L139.649 0.957667Z" fill="#5E5E5D"/>
<path d="M141.38 1.47462L140.759 1.33452C140.683 1.31785 140.633 1.24113 140.649 1.16108L140.746 0.724123C140.763 0.647406 140.839 0.597372 140.92 0.61405L141.54 0.754143C141.617 0.77082 141.667 0.847537 141.65 0.92759L141.553 1.36454C141.533 1.44126 141.457 1.49129 141.38 1.47462Z" fill="#585857"/>
<path d="M140.786 1.21109C140.776 1.20775 140.769 1.19774 140.773 1.18774L140.87 0.750782C140.873 0.740776 140.883 0.734104 140.893 0.73744L141.513 0.877533C141.523 0.880868 141.53 0.890875 141.527 0.900881L141.43 1.33784C141.427 1.34784 141.417 1.35451 141.407 1.35118L140.786 1.21109Z" fill="#5E5E5D"/>
<path d="M142.517 1.72803L141.897 1.58794C141.82 1.57126 141.77 1.49455 141.787 1.41449L141.884 0.977539C141.9 0.900822 141.977 0.85079 142.057 0.867468L142.677 1.00756C142.754 1.02424 142.804 1.10095 142.788 1.18101L142.691 1.61796C142.671 1.69801 142.594 1.74805 142.517 1.72803Z" fill="#585857"/>
<path d="M141.924 1.46792C141.914 1.46459 141.907 1.45458 141.91 1.44457L142.007 1.00762C142.01 0.997612 142.02 0.99094 142.03 0.994276L142.651 1.13437C142.661 1.1377 142.667 1.14771 142.664 1.15772L142.567 1.59467C142.564 1.60468 142.554 1.61135 142.544 1.60801L141.924 1.46792Z" fill="#5E5E5D"/>
<path d="M143.651 1.98487L143.031 1.84478C142.954 1.8281 142.904 1.75138 142.921 1.67133L143.018 1.23438C143.034 1.15766 143.111 1.10763 143.191 1.1243L143.811 1.2644C143.888 1.28107 143.938 1.35779 143.921 1.43784L143.825 1.8748C143.808 1.95485 143.731 2.00155 143.651 1.98487Z" fill="#585857"/>
<path d="M143.061 1.72476C143.051 1.72142 143.044 1.71141 143.048 1.70141L143.145 1.26445C143.148 1.25445 143.158 1.24778 143.168 1.25111L143.788 1.3912C143.798 1.39454 143.805 1.40455 143.802 1.41455L143.705 1.85151C143.702 1.86151 143.692 1.86818 143.682 1.86485L143.061 1.72476Z" fill="#5E5E5D"/>
<path d="M144.789 2.24171L144.168 2.10161C144.092 2.08494 144.042 2.00822 144.058 1.92817L144.155 1.49121C144.172 1.4145 144.248 1.36446 144.329 1.38114L144.949 1.52123C145.026 1.53791 145.076 1.61463 145.059 1.69468L144.962 2.13163C144.946 2.20835 144.869 2.25838 144.789 2.24171Z" fill="#585857"/>
<path d="M144.198 1.97817C144.188 1.97484 144.182 1.96483 144.185 1.95483L144.282 1.51787C144.285 1.50786 144.295 1.50119 144.305 1.50453L144.925 1.64462C144.935 1.64796 144.942 1.65796 144.939 1.66797L144.842 2.10492C144.839 2.11493 144.829 2.1216 144.819 2.11827L144.198 1.97817Z" fill="#5E5E5D"/>
<path d="M145.926 2.49537L145.306 2.35528C145.229 2.3386 145.179 2.26188 145.196 2.18183L145.293 1.74487C145.309 1.66816 145.386 1.61812 145.466 1.6348L146.086 1.77489C146.163 1.79157 146.213 1.86829 146.197 1.94834L146.1 2.38529C146.083 2.46535 146.003 2.51538 145.926 2.49537Z" fill="#585857"/>
<path d="M145.336 2.23525C145.326 2.23192 145.319 2.22191 145.322 2.21191L145.419 1.77495C145.422 1.76494 145.433 1.75827 145.443 1.76161L146.063 1.9017C146.073 1.90504 146.08 1.91504 146.076 1.92505L145.98 2.362C145.976 2.37201 145.966 2.37868 145.956 2.37535L145.336 2.23525Z" fill="#5E5E5D"/>
<path d="M147.064 2.7522L146.443 2.61211C146.367 2.59543 146.317 2.51872 146.333 2.43866L146.43 2.00171C146.447 1.92499 146.523 1.87496 146.604 1.89164L147.224 2.03173C147.301 2.04841 147.351 2.12512 147.334 2.20518L147.237 2.64213C147.217 2.72218 147.141 2.76888 147.064 2.7522Z" fill="#585857"/>
<path d="M146.473 2.49185C146.463 2.48851 146.457 2.4785 146.46 2.4685L146.557 2.03154C146.56 2.02154 146.57 2.01487 146.58 2.0182L147.2 2.15829C147.21 2.16163 147.217 2.17164 147.214 2.18164L147.117 2.6186C147.114 2.6286 147.104 2.63527 147.094 2.63194L146.473 2.49185Z" fill="#5E5E5D"/>
<path d="M148.201 3.00904L147.581 2.86895C147.504 2.85227 147.454 2.77555 147.471 2.6955L147.568 2.25855C147.584 2.18183 147.661 2.1318 147.741 2.14847L148.361 2.28857C148.438 2.30524 148.488 2.38196 148.472 2.46201L148.375 2.89897C148.355 2.97568 148.278 3.02572 148.201 3.00904Z" fill="#585857"/>
<path d="M147.607 2.74551C147.597 2.74217 147.591 2.73217 147.594 2.72216L147.691 2.28521C147.694 2.2752 147.704 2.26853 147.714 2.27186L148.334 2.41196C148.344 2.41529 148.351 2.4253 148.348 2.4353L148.251 2.87226C148.248 2.88226 148.238 2.88894 148.228 2.8856L147.607 2.74551Z" fill="#5E5E5D"/>
<path d="M149.338 3.26246L148.718 3.12236C148.641 3.10569 148.591 3.02897 148.608 2.94892L148.705 2.51196C148.721 2.43525 148.798 2.38521 148.878 2.40189L149.499 2.54198C149.575 2.55866 149.625 2.63538 149.609 2.71543L149.512 3.15238C149.492 3.23244 149.415 3.28247 149.338 3.26246Z" fill="#585857"/>
<path d="M148.745 3.00234C148.735 2.99901 148.728 2.989 148.731 2.979L148.828 2.54204C148.831 2.53204 148.842 2.52536 148.852 2.5287L149.472 2.66879C149.482 2.67213 149.489 2.68213 149.485 2.69214L149.389 3.12909C149.385 3.1391 149.375 3.14577 149.365 3.14244L148.745 3.00234Z" fill="#5E5E5D"/>
<path d="M150.476 3.51929L149.856 3.3792C149.779 3.36252 149.729 3.28581 149.745 3.20575L149.842 2.7688C149.859 2.69208 149.936 2.64205 150.016 2.65873L150.636 2.79882C150.713 2.8155 150.763 2.89221 150.746 2.97227L150.649 3.40922C150.629 3.48927 150.553 3.53597 150.476 3.51929Z" fill="#585857"/>
<path d="M149.882 3.25918C149.872 3.25584 149.865 3.24584 149.868 3.23583L149.965 2.79888C149.969 2.78887 149.979 2.7822 149.989 2.78554L150.609 2.92563C150.619 2.92896 150.626 2.93897 150.622 2.94898L150.526 3.38593C150.522 3.39594 150.512 3.40261 150.502 3.39927L149.882 3.25918Z" fill="#5E5E5D"/>
<path d="M151.613 3.77613L150.993 3.63604C150.916 3.61936 150.866 3.54264 150.883 3.46259L150.979 3.02564C150.996 2.94892 151.073 2.89889 151.153 2.91556L151.773 3.05565C151.85 3.07233 151.9 3.14905 151.883 3.2291L151.786 3.66606C151.766 3.74277 151.69 3.79281 151.613 3.77613Z" fill="#585857"/>
<path d="M151.019 3.5126C151.009 3.50926 151.003 3.49926 151.006 3.48925L151.103 3.0523C151.106 3.04229 151.116 3.03562 151.126 3.03895L151.747 3.17905C151.757 3.18238 151.763 3.19239 151.76 3.20239L151.663 3.63935C151.66 3.64935 151.65 3.65603 151.64 3.65269L151.019 3.5126Z" fill="#5E5E5D"/>
<path d="M152.751 4.02955L152.13 3.88945C152.053 3.87278 152.003 3.79606 152.02 3.71601L152.117 3.27905C152.133 3.20234 152.21 3.1523 152.29 3.16898L152.911 3.30907C152.987 3.32575 153.037 3.40247 153.021 3.48252L152.924 3.91947C152.904 3.99953 152.827 4.04956 152.751 4.02955Z" fill="#585857"/>
<path d="M152.157 3.76943C152.147 3.7661 152.14 3.75609 152.144 3.74608L152.24 3.30913C152.244 3.29913 152.254 3.29245 152.264 3.29579L152.884 3.43588C152.894 3.43922 152.901 3.44922 152.897 3.45923L152.801 3.89618C152.797 3.90619 152.787 3.91286 152.777 3.90953L152.157 3.76943Z" fill="#5E5E5D"/>
<path d="M153.888 4.28638L153.268 4.14629C153.191 4.12961 153.141 4.0529 153.158 3.97284L153.254 3.53589C153.271 3.45917 153.348 3.40914 153.428 3.42582L154.048 3.56591C154.125 3.58259 154.175 3.6593 154.158 3.73936L154.062 4.17631C154.042 4.25636 153.965 4.30306 153.888 4.28638Z" fill="#585857"/>
<path d="M153.294 4.02651C153.284 4.02318 153.278 4.01317 153.281 4.00316L153.378 3.56621C153.381 3.55621 153.391 3.54953 153.401 3.55287L154.022 3.69296C154.032 3.6963 154.038 3.7063 154.035 3.71631L153.938 4.15326C153.935 4.16327 153.925 4.16994 153.915 4.16661L153.294 4.02651Z" fill="#5E5E5D"/>
<path d="M155.022 4.54322L154.402 4.40313C154.325 4.38645 154.275 4.30973 154.292 4.22968L154.388 3.79273C154.405 3.71601 154.482 3.66598 154.562 3.68265L155.182 3.82274C155.259 3.83942 155.309 3.91614 155.292 3.99619L155.195 4.43315C155.179 4.50986 155.102 4.5599 155.022 4.54322Z" fill="#585857"/>
<path d="M154.432 4.27993C154.422 4.2766 154.415 4.26659 154.419 4.25658L154.515 3.81963C154.519 3.80962 154.529 3.80295 154.539 3.80629L155.159 3.94638C155.169 3.94972 155.176 3.95972 155.172 3.96973L155.076 4.40668C155.072 4.41669 155.062 4.42336 155.052 4.42002L154.432 4.27993Z" fill="#5E5E5D"/>
<path d="M138.471 0.974485L139.238 1.14793C139.325 1.16795 139.382 1.25467 139.362 1.34473L139.192 2.09856C139.172 2.18528 139.085 2.24198 138.995 2.22197L138.228 2.04852C138.141 2.02851 138.084 1.94179 138.104 1.85173L138.274 1.0979C138.294 1.01118 138.381 0.954472 138.471 0.974485Z" fill="#585857"/>
<path d="M138.258 1.92481C138.238 1.92147 138.225 1.89812 138.228 1.87811L138.398 1.12428C138.401 1.10427 138.425 1.09093 138.445 1.09426L139.212 1.26771C139.232 1.27104 139.245 1.29439 139.242 1.31441L139.072 2.06823C139.068 2.08825 139.045 2.10159 139.025 2.09825L138.258 1.92481Z" fill="#5E5E5D"/>
<path d="M139.782 1.27104L140.549 1.44448C140.636 1.4645 140.692 1.55122 140.672 1.64128L140.502 2.39511C140.482 2.48183 140.396 2.53854 140.306 2.51852L139.538 2.34508C139.452 2.32506 139.395 2.23834 139.415 2.14828L139.585 1.39445C139.605 1.30439 139.692 1.25102 139.782 1.27104Z" fill="#585857"/>
<path d="M139.569 2.22168C139.549 2.21835 139.535 2.195 139.539 2.17498L139.709 1.42116C139.712 1.40114 139.735 1.3878 139.755 1.39114L140.523 1.56458C140.543 1.56792 140.556 1.59127 140.553 1.61128L140.382 2.36511C140.379 2.38512 140.356 2.39846 140.336 2.39513L139.569 2.22168Z" fill="#5E5E5D"/>
<path d="M141.093 1.56482L141.861 1.73826C141.947 1.75828 142.004 1.845 141.984 1.93506L141.814 2.68889C141.794 2.77561 141.707 2.83232 141.617 2.8123L140.85 2.63886C140.763 2.61884 140.706 2.53212 140.726 2.44206L140.897 1.68823C140.917 1.60151 141.007 1.5448 141.093 1.56482Z" fill="#585857"/>
<path d="M140.88 2.51514C140.86 2.5118 140.846 2.48846 140.85 2.46844L141.02 1.71461C141.023 1.6946 141.046 1.68126 141.066 1.68459L141.834 1.85804C141.854 1.86138 141.867 1.88472 141.864 1.90474L141.693 2.65857C141.69 2.67858 141.667 2.69192 141.647 2.68859L140.88 2.51514Z" fill="#5E5E5D"/>
<path d="M142.404 1.85827L143.171 2.03172C143.258 2.05173 143.315 2.13846 143.295 2.22852L143.124 2.98235C143.104 3.06907 143.018 3.12577 142.928 3.10576L142.16 2.93231C142.074 2.9123 142.017 2.82558 142.037 2.73552L142.207 1.98169C142.227 1.89497 142.317 1.83826 142.404 1.85827Z" fill="#585857"/>
<path d="M142.191 2.81201C142.171 2.80868 142.157 2.78533 142.161 2.76532L142.331 2.01149C142.334 1.99147 142.357 1.97813 142.377 1.98147L143.145 2.15491C143.165 2.15825 143.178 2.1816 143.175 2.20161L143.005 2.95544C143.001 2.97545 142.978 2.9888 142.958 2.98546L142.191 2.81201Z" fill="#5E5E5D"/>
<path d="M143.715 2.15531L144.482 2.32876C144.568 2.34878 144.625 2.4355 144.605 2.52556L144.435 3.27939C144.415 3.36611 144.328 3.42281 144.238 3.4028L143.471 3.22935C143.384 3.20934 143.328 3.12262 143.348 3.03256L143.518 2.27873C143.541 2.18867 143.628 2.1353 143.715 2.15531Z" fill="#585857"/>
<path d="M143.501 3.10572C143.481 3.10238 143.468 3.07903 143.471 3.05902L143.641 2.30519C143.645 2.28518 143.668 2.27183 143.688 2.27517L144.455 2.44862C144.475 2.45195 144.489 2.4753 144.485 2.49531L144.315 3.24914C144.312 3.26916 144.288 3.2825 144.268 3.27916L143.501 3.10572Z" fill="#5E5E5D"/>
<path d="M145.026 2.44885L145.793 2.6223C145.879 2.64231 145.936 2.72903 145.916 2.81909L145.746 3.57292C145.726 3.65965 145.639 3.71635 145.549 3.69634L144.782 3.52289C144.695 3.50288 144.639 3.41615 144.659 3.32609L144.829 2.57226C144.852 2.48554 144.939 2.42884 145.026 2.44885Z" fill="#585857"/>
<path d="M144.812 3.39942C144.792 3.39608 144.779 3.37273 144.782 3.35272L144.952 2.59889C144.955 2.57888 144.979 2.56553 144.999 2.56887L145.766 2.74232C145.786 2.74565 145.799 2.769 145.796 2.78901L145.626 3.54284C145.622 3.56286 145.599 3.5762 145.579 3.57286L144.812 3.39942Z" fill="#5E5E5D"/>
<path d="M146.337 2.7454L147.104 2.91885C147.191 2.93886 147.247 3.02559 147.227 3.11565L147.057 3.86948C147.037 3.9562 146.95 4.0129 146.86 3.99289L146.093 3.81944C146.006 3.79943 145.95 3.71271 145.97 3.62265L146.14 2.86882C146.163 2.77876 146.25 2.72539 146.337 2.7454Z" fill="#585857"/>
<path d="M146.123 3.69605C146.103 3.69271 146.09 3.66936 146.093 3.64935L146.263 2.89552C146.266 2.87551 146.29 2.86217 146.31 2.8655L147.077 3.03895C147.097 3.04228 147.11 3.06563 147.107 3.08565L146.937 3.83947C146.933 3.85949 146.91 3.87283 146.89 3.86949L146.123 3.69605Z" fill="#5E5E5D"/>
<path d="M147.651 3.03918L148.418 3.21263C148.505 3.23264 148.561 3.31937 148.541 3.40943L148.371 4.16325C148.351 4.24998 148.265 4.30668 148.174 4.28667L147.407 4.11322C147.321 4.09321 147.264 4.00648 147.284 3.91643L147.454 3.1626C147.474 3.07587 147.561 3.01917 147.651 3.03918Z" fill="#585857"/>
<path d="M147.434 3.98975C147.414 3.98641 147.401 3.96306 147.404 3.94305L147.574 3.18922C147.577 3.16921 147.601 3.15587 147.621 3.1592L148.388 3.33265C148.408 3.33599 148.421 3.35933 148.418 3.37935L148.248 4.13317C148.245 4.15319 148.221 4.16653 148.201 4.16319L147.434 3.98975Z" fill="#5E5E5D"/>
<path d="M148.961 3.3324L149.729 3.50584C149.815 3.52586 149.872 3.61258 149.852 3.70264L149.682 4.45647C149.662 4.54319 149.575 4.59989 149.485 4.57988L148.718 4.40643C148.631 4.38642 148.574 4.2997 148.595 4.20964L148.765 3.45581C148.785 3.36909 148.871 3.31238 148.961 3.3324Z" fill="#585857"/>
<path d="M148.748 4.28638C148.728 4.28304 148.715 4.25969 148.718 4.23968L148.888 3.48585C148.892 3.46584 148.915 3.4525 148.935 3.45583L149.702 3.62928C149.722 3.63262 149.735 3.65596 149.732 3.67598L149.562 4.42981C149.559 4.44982 149.535 4.46316 149.515 4.45983L148.748 4.28638Z" fill="#5E5E5D"/>
<path d="M150.272 3.62944L151.04 3.80288C151.126 3.8229 151.183 3.90962 151.163 3.99968L150.993 4.75351C150.973 4.84023 150.886 4.89694 150.796 4.87692L150.029 4.70348C149.942 4.68346 149.886 4.59674 149.906 4.50668L150.076 3.75285C150.096 3.66279 150.182 3.60942 150.272 3.62944Z" fill="#585857"/>
<path d="M150.059 4.58008C150.039 4.57674 150.025 4.5534 150.029 4.53338L150.199 3.77955C150.202 3.75954 150.226 3.7462 150.246 3.74953L151.013 3.92298C151.033 3.92632 151.046 3.94967 151.043 3.96968L150.873 4.72351C150.869 4.74352 150.846 4.75686 150.826 4.75353L150.059 4.58008Z" fill="#5E5E5D"/>
<path d="M151.583 3.92297L152.35 4.09642C152.437 4.11643 152.494 4.20316 152.474 4.29321L152.304 5.04704C152.284 5.13377 152.197 5.19047 152.107 5.17046L151.343 4.99701C151.256 4.977 151.2 4.89027 151.22 4.80021L151.39 4.04639C151.407 3.95966 151.493 3.90296 151.583 3.92297Z" fill="#585857"/>
<path d="M151.37 4.87378C151.35 4.87044 151.336 4.8471 151.34 4.82708L151.51 4.07325C151.513 4.05324 151.537 4.0399 151.557 4.04324L152.324 4.21668C152.344 4.22002 152.357 4.24337 152.354 4.26338L152.18 5.01721C152.177 5.03722 152.154 5.05056 152.134 5.04723L151.37 4.87378Z" fill="#5E5E5D"/>
<path d="M152.894 4.22001L153.661 4.39346C153.748 4.41347 153.805 4.5002 153.785 4.59026L153.615 5.34408C153.595 5.43081 153.508 5.48751 153.418 5.4675L152.651 5.29405C152.564 5.27404 152.507 5.18731 152.527 5.09726L152.697 4.34343C152.717 4.25337 152.807 4.2 152.894 4.22001Z" fill="#585857"/>
<path d="M152.681 5.17066C152.661 5.16732 152.648 5.14397 152.651 5.12396L152.821 4.37013C152.824 4.35012 152.848 4.33677 152.868 4.34011L153.635 4.51356C153.655 4.51689 153.668 4.54024 153.665 4.56026L153.495 5.31408C153.491 5.3341 153.468 5.34744 153.448 5.3441L152.681 5.17066Z" fill="#5E5E5D"/>
<path d="M154.205 4.5133L154.972 4.68675C155.059 4.70676 155.115 4.79349 155.095 4.88355L154.925 5.63737C154.905 5.7241 154.818 5.7808 154.728 5.76079L153.961 5.58734C153.875 5.56733 153.818 5.4806 153.838 5.39055L154.011 4.63672C154.028 4.54999 154.118 4.49329 154.205 4.5133Z" fill="#585857"/>
<path d="M153.991 5.46411C153.971 5.46078 153.958 5.43743 153.961 5.41742L154.132 4.66359C154.135 4.64357 154.158 4.63023 154.178 4.63357L154.945 4.80701C154.965 4.81035 154.979 4.8337 154.975 4.85371L154.805 5.60754C154.802 5.62755 154.779 5.6409 154.759 5.63756L153.991 5.46411Z" fill="#5E5E5D"/>
<path d="M138.194 2.19519L138.961 2.36864C139.048 2.38865 139.105 2.47537 139.085 2.56543L138.915 3.31926C138.895 3.40598 138.808 3.46269 138.718 3.44267L137.951 3.26923C137.864 3.24921 137.807 3.16249 137.827 3.07243L138.001 2.3186C138.021 2.23188 138.107 2.17517 138.194 2.19519Z" fill="#585857"/>
<path d="M137.981 3.14575C137.961 3.14242 137.948 3.11907 137.951 3.09906L138.121 2.34523C138.124 2.32521 138.148 2.31187 138.168 2.31521L138.935 2.48865C138.955 2.49199 138.968 2.51534 138.965 2.53535L138.795 3.28918C138.791 3.30919 138.768 3.32254 138.748 3.3192L137.981 3.14575Z" fill="#5E5E5D"/>
<path d="M139.509 2.49198L140.276 2.66543C140.363 2.68545 140.419 2.77217 140.399 2.86223L140.229 3.61606C140.209 3.70278 140.123 3.75948 140.033 3.73947L139.265 3.56602C139.179 3.54601 139.122 3.45929 139.142 3.36923L139.312 2.6154C139.332 2.52534 139.419 2.47197 139.509 2.49198Z" fill="#585857"/>
<path d="M139.292 3.44263C139.272 3.43929 139.259 3.41594 139.262 3.39593L139.432 2.6421C139.435 2.62209 139.459 2.60875 139.479 2.61208L140.246 2.78553C140.266 2.78887 140.279 2.81221 140.276 2.83223L140.106 3.58606C140.103 3.60607 140.079 3.61941 140.059 3.61608L139.292 3.44263Z" fill="#5E5E5D"/>
<path d="M140.819 2.78552L141.587 2.95897C141.673 2.97898 141.73 3.0657 141.71 3.15576L141.54 3.90959C141.52 3.99632 141.433 4.05302 141.343 4.03301L140.576 3.85956C140.489 3.83955 140.433 3.75282 140.453 3.66276L140.623 2.90893C140.643 2.82221 140.729 2.76551 140.819 2.78552Z" fill="#585857"/>
<path d="M140.606 3.73609C140.586 3.73275 140.573 3.7094 140.576 3.68939L140.746 2.93556C140.75 2.91555 140.773 2.9022 140.793 2.90554L141.56 3.07899C141.58 3.08232 141.593 3.10567 141.59 3.12569L141.42 3.87951C141.417 3.89953 141.393 3.91287 141.373 3.90953L140.606 3.73609Z" fill="#5E5E5D"/>
<path d="M142.13 3.07898L142.897 3.25242C142.984 3.27244 143.041 3.35916 143.021 3.44922L142.851 4.20305C142.831 4.28977 142.744 4.34648 142.654 4.32646L141.887 4.15302C141.8 4.133 141.743 4.04628 141.763 3.95622L141.933 3.20239C141.953 3.11567 142.04 3.05896 142.13 3.07898Z" fill="#585857"/>
<path d="M141.917 4.02979C141.897 4.02645 141.883 4.0031 141.887 3.98309L142.057 3.22926C142.06 3.20925 142.084 3.19591 142.104 3.19924L142.871 3.37269C142.891 3.37602 142.904 3.39937 142.901 3.41939L142.731 4.17322C142.727 4.19323 142.704 4.20657 142.684 4.20323L141.917 4.02979Z" fill="#5E5E5D"/>
<path d="M143.442 3.37602L144.209 3.54946C144.295 3.56948 144.352 3.6562 144.332 3.74626L144.162 4.50009C144.142 4.58681 144.055 4.64352 143.965 4.6235L143.198 4.45006C143.111 4.43004 143.055 4.34332 143.075 4.25326L143.245 3.49943C143.265 3.40937 143.355 3.356 143.442 3.37602Z" fill="#585857"/>
<path d="M143.228 4.32666C143.208 4.32333 143.194 4.29998 143.198 4.27997L143.368 3.52614C143.371 3.50612 143.395 3.49278 143.415 3.49612L144.182 3.66956C144.202 3.6729 144.215 3.69625 144.212 3.71626L144.042 4.47009C144.038 4.4901 144.015 4.50345 143.995 4.50011L143.228 4.32666Z" fill="#5E5E5D"/>
<path d="M144.752 3.66931L145.519 3.84276C145.606 3.86277 145.663 3.94949 145.643 4.03955L145.473 4.79338C145.453 4.88011 145.366 4.93681 145.276 4.9168L144.509 4.74335C144.422 4.72334 144.365 4.63661 144.385 4.54655L144.555 3.79272C144.575 3.706 144.665 3.6493 144.752 3.66931Z" fill="#585857"/>
<path d="M144.539 4.62012C144.519 4.61678 144.506 4.59343 144.509 4.57342L144.679 3.81959C144.682 3.79958 144.706 3.78624 144.726 3.78957L145.493 3.96302C145.513 3.96636 145.526 3.9897 145.523 4.00972L145.353 4.76355C145.349 4.78356 145.326 4.7969 145.306 4.79357L144.539 4.62012Z" fill="#5E5E5D"/>
<path d="M146.063 3.96635L146.83 4.1398C146.917 4.15981 146.973 4.24653 146.953 4.33659L146.783 5.09042C146.763 5.17715 146.676 5.23385 146.586 5.21384L145.819 5.04039C145.733 5.02038 145.676 4.93365 145.696 4.84359L145.866 4.08977C145.889 3.99971 145.976 3.94634 146.063 3.96635Z" fill="#585857"/>
<path d="M145.849 4.91699C145.829 4.91366 145.816 4.89031 145.819 4.8703L145.99 4.11647C145.993 4.09645 146.016 4.08311 146.036 4.08645L146.803 4.2599C146.823 4.26323 146.837 4.28658 146.833 4.30659L146.663 5.06042C146.66 5.08044 146.637 5.09378 146.617 5.09044L145.849 4.91699Z" fill="#5E5E5D"/>
<path d="M147.374 4.25964L148.141 4.43309C148.228 4.4531 148.284 4.53983 148.264 4.62988L148.094 5.38371C148.074 5.47044 147.988 5.52714 147.897 5.50713L147.13 5.33368C147.044 5.31367 146.987 5.22694 147.007 5.13688L147.177 4.38306C147.2 4.29633 147.287 4.23963 147.374 4.25964Z" fill="#585857"/>
<path d="M147.16 5.21045C147.14 5.20712 147.127 5.18377 147.13 5.16375L147.3 4.40993C147.304 4.38991 147.327 4.37657 147.347 4.37991L148.114 4.55335C148.134 4.55669 148.147 4.58004 148.144 4.60005L147.974 5.35388C147.971 5.37389 147.947 5.38723 147.927 5.3839L147.16 5.21045Z" fill="#5E5E5D"/>
<path d="M148.685 4.55334L149.452 4.72679C149.539 4.7468 149.595 4.83353 149.575 4.92359L149.405 5.67741C149.385 5.76414 149.299 5.82084 149.209 5.80083L148.441 5.62738C148.355 5.60737 148.298 5.52064 148.318 5.43059L148.488 4.67676C148.511 4.59003 148.598 4.53333 148.685 4.55334Z" fill="#585857"/>
<path d="M148.471 5.50391C148.451 5.50057 148.438 5.47722 148.441 5.45721L148.611 4.70338C148.615 4.68337 148.638 4.67003 148.658 4.67336L149.425 4.84681C149.445 4.85015 149.458 4.87349 149.455 4.89351L149.285 5.64733C149.282 5.66735 149.258 5.68069 149.238 5.67735L148.471 5.50391Z" fill="#5E5E5D"/>
<path d="M149.995 4.85014L150.763 5.02359C150.849 5.0436 150.906 5.13032 150.886 5.22038L150.716 5.97421C150.696 6.06093 150.609 6.11764 150.519 6.09763L149.752 5.92418C149.665 5.90417 149.609 5.81744 149.629 5.72738L149.799 4.97355C149.822 4.88349 149.909 4.83013 149.995 4.85014Z" fill="#585857"/>
<path d="M149.782 5.80078C149.762 5.79745 149.749 5.7741 149.752 5.75409L149.922 5.00026C149.926 4.98024 149.949 4.9669 149.969 4.97024L150.736 5.14368C150.756 5.14702 150.769 5.17037 150.766 5.19038L150.596 5.94421C150.593 5.96422 150.569 5.97757 150.549 5.97423L149.782 5.80078Z" fill="#5E5E5D"/>
<path d="M151.31 5.14392L152.077 5.31737C152.164 5.33738 152.22 5.4241 152.2 5.51416L152.03 6.26799C152.01 6.35471 151.923 6.41142 151.833 6.3914L151.066 6.21796C150.979 6.19794 150.923 6.11122 150.943 6.02116L151.113 5.26733C151.133 5.18061 151.22 5.12391 151.31 5.14392Z" fill="#585857"/>
<path d="M151.093 6.09448C151.073 6.09115 151.059 6.0678 151.063 6.04779L151.233 5.29396C151.236 5.27395 151.26 5.2606 151.28 5.26394L152.047 5.43738C152.067 5.44072 152.08 5.46407 152.077 5.48408L151.907 6.23791C151.903 6.25792 151.88 6.27127 151.86 6.26793L151.093 6.09448Z" fill="#5E5E5D"/>
<path d="M152.621 5.44072L153.388 5.61416C153.475 5.63418 153.531 5.7209 153.511 5.81096L153.341 6.56479C153.321 6.65151 153.234 6.70821 153.144 6.6882L152.377 6.51475C152.29 6.49474 152.234 6.40802 152.254 6.31796L152.424 5.56413C152.444 5.47407 152.531 5.4207 152.621 5.44072Z" fill="#585857"/>
<path d="M152.407 6.39136C152.387 6.38802 152.374 6.36467 152.377 6.34466L152.547 5.59083C152.551 5.57082 152.574 5.55748 152.594 5.56081L153.361 5.73426C153.381 5.7376 153.395 5.76094 153.391 5.78096L153.221 6.53479C153.218 6.5548 153.195 6.56814 153.175 6.56481L152.407 6.39136Z" fill="#5E5E5D"/>
<path d="M153.932 5.73425L154.699 5.9077C154.786 5.92771 154.842 6.01443 154.822 6.10449L154.652 6.85832C154.632 6.94505 154.545 7.00175 154.455 6.98174L153.688 6.80829C153.602 6.78828 153.545 6.70155 153.565 6.61149L153.735 5.85766C153.755 5.77094 153.842 5.71424 153.932 5.73425Z" fill="#585857"/>
<path d="M153.718 6.68482C153.698 6.68148 153.685 6.65813 153.688 6.63812L153.858 5.88429C153.861 5.86428 153.885 5.85094 153.905 5.85427L154.672 6.02772C154.692 6.03105 154.705 6.0544 154.702 6.07442L154.532 6.82824C154.529 6.84826 154.505 6.8616 154.485 6.85826L153.718 6.68482Z" fill="#5E5E5D"/>
<path d="M137.921 3.41589L138.688 3.58934C138.775 3.60935 138.832 3.69608 138.812 3.78613L138.642 4.53996C138.622 4.62669 138.535 4.68339 138.445 4.66338L137.678 4.48993C137.591 4.46992 137.534 4.38319 137.554 4.29313L137.724 3.53931C137.748 3.45258 137.834 3.39588 137.921 3.41589Z" fill="#585857"/>
<path d="M137.708 4.36646C137.687 4.36312 137.674 4.33977 137.677 4.31976L137.848 3.56593C137.851 3.54592 137.874 3.53258 137.894 3.53591L138.661 3.70936C138.681 3.71269 138.695 3.73604 138.691 3.75606L138.521 4.50988C138.518 4.5299 138.495 4.54324 138.475 4.5399L137.708 4.36646Z" fill="#5E5E5D"/>
<path d="M139.232 3.70934L139.999 3.88279C140.086 3.9028 140.142 3.98952 140.122 4.07958L139.952 4.83341C139.932 4.92014 139.846 4.97684 139.755 4.95683L138.988 4.78338C138.902 4.76337 138.845 4.67664 138.865 4.58658L139.035 3.83276C139.058 3.74603 139.145 3.69266 139.232 3.70934Z" fill="#585857"/>
<path d="M139.019 4.66358C138.999 4.66024 138.985 4.63689 138.989 4.61688L139.159 3.86305C139.162 3.84304 139.185 3.82969 139.205 3.83303L139.973 4.00648C139.993 4.00981 140.006 4.03316 140.003 4.05317L139.832 4.807C139.829 4.82702 139.806 4.84036 139.786 4.83702L139.019 4.66358Z" fill="#5E5E5D"/>
<path d="M140.542 4.00622L141.31 4.17967C141.396 4.19968 141.453 4.28641 141.433 4.37647L141.263 5.13029C141.243 5.21702 141.156 5.27372 141.066 5.25371L140.299 5.08026C140.212 5.06025 140.155 4.97352 140.176 4.88347L140.346 4.12964C140.369 4.04291 140.456 3.98621 140.542 4.00622Z" fill="#585857"/>
<path d="M140.329 4.95679C140.309 4.95345 140.296 4.9301 140.299 4.91009L140.469 4.15626C140.473 4.13625 140.496 4.12291 140.516 4.12624L141.283 4.29969C141.303 4.30302 141.316 4.32637 141.313 4.34639L141.143 5.10022C141.14 5.12023 141.116 5.13357 141.096 5.13024L140.329 4.95679Z" fill="#5E5E5D"/>
<path d="M141.857 4.29992L142.624 4.47337C142.711 4.49338 142.768 4.58011 142.748 4.67017L142.578 5.424C142.557 5.51072 142.471 5.56742 142.381 5.54741L141.614 5.37396C141.527 5.35395 141.47 5.26723 141.49 5.17717L141.66 4.42334C141.68 4.33662 141.767 4.27991 141.857 4.29992Z" fill="#585857"/>
<path d="M141.64 5.25049C141.62 5.24716 141.607 5.22381 141.61 5.20379L141.78 4.44996C141.784 4.42995 141.807 4.41661 141.827 4.41994L142.594 4.59339C142.614 4.59673 142.628 4.62008 142.624 4.64009L142.454 5.39392C142.451 5.41393 142.427 5.42727 142.407 5.42394L141.64 5.25049Z" fill="#5E5E5D"/>
<path d="M143.168 4.59697L143.935 4.77041C144.022 4.79042 144.078 4.87715 144.058 4.96721L143.888 5.72104C143.868 5.80776 143.781 5.86446 143.691 5.84445L142.924 5.671C142.837 5.65099 142.781 5.56427 142.801 5.47421L142.971 4.72038C142.991 4.63032 143.078 4.57695 143.168 4.59697Z" fill="#585857"/>
<path d="M142.954 5.54737C142.934 5.54403 142.921 5.52068 142.924 5.50067L143.094 4.74684C143.098 4.72683 143.121 4.71348 143.141 4.71682L143.908 4.89027C143.928 4.8936 143.942 4.91695 143.938 4.93696L143.768 5.69079C143.765 5.71081 143.742 5.72415 143.722 5.72081L142.954 5.54737Z" fill="#5E5E5D"/>
<path d="M144.479 4.89026L145.246 5.0637C145.333 5.08372 145.389 5.17044 145.369 5.2605L145.199 6.01433C145.179 6.10105 145.092 6.15776 145.002 6.13774L144.235 5.9643C144.148 5.94428 144.092 5.85756 144.112 5.7675L144.282 5.01367C144.302 4.92695 144.389 4.87024 144.479 4.89026Z" fill="#585857"/>
<path d="M144.265 5.84082C144.245 5.83749 144.232 5.81414 144.235 5.79413L144.405 5.0403C144.408 5.02028 144.432 5.00694 144.452 5.01028L145.219 5.18372C145.239 5.18706 145.252 5.21041 145.249 5.23042L145.079 5.98425C145.076 6.00426 145.052 6.01761 145.032 6.01427L144.265 5.84082Z" fill="#5E5E5D"/>
<path d="M145.79 5.18371L146.557 5.35715C146.644 5.37717 146.7 5.46389 146.68 5.55395L146.51 6.30778C146.49 6.3945 146.403 6.45121 146.313 6.43119L145.546 6.25775C145.46 6.23773 145.403 6.15101 145.423 6.06095L145.593 5.30712C145.613 5.2204 145.7 5.16703 145.79 5.18371Z" fill="#585857"/>
<path d="M145.576 6.1377C145.556 6.13436 145.543 6.11101 145.546 6.091L145.716 5.33717C145.719 5.31716 145.743 5.30382 145.763 5.30715L146.53 5.4806C146.55 5.48393 146.563 5.50728 146.56 5.5273L146.39 6.28113C146.387 6.30114 146.363 6.31448 146.343 6.31115L145.576 6.1377Z" fill="#5E5E5D"/>
<path d="M147.1 5.48051L147.868 5.65396C147.954 5.67397 148.011 5.76069 147.991 5.85075L147.821 6.60458C147.801 6.69131 147.714 6.74801 147.624 6.728L146.857 6.55455C146.77 6.53454 146.713 6.44781 146.733 6.35775L146.904 5.60392C146.924 5.51387 147.014 5.4605 147.1 5.48051Z" fill="#585857"/>
<path d="M146.887 6.43115C146.867 6.42782 146.854 6.40447 146.857 6.38446L147.027 5.63063C147.03 5.61062 147.054 5.59727 147.074 5.60061L147.841 5.77406C147.861 5.77739 147.874 5.80074 147.871 5.82075L147.701 6.57458C147.698 6.59459 147.674 6.60794 147.654 6.6046L146.887 6.43115Z" fill="#5E5E5D"/>
<path d="M148.411 5.77405L149.178 5.94749C149.265 5.96751 149.322 6.05423 149.302 6.14429L149.131 6.89812C149.111 6.98484 149.025 7.04154 148.935 7.02153L148.167 6.84808C148.081 6.82807 148.024 6.74135 148.044 6.65129L148.214 5.89746C148.234 5.81074 148.324 5.75403 148.411 5.77405Z" fill="#585857"/>
<path d="M148.198 6.72461C148.178 6.72127 148.164 6.69793 148.168 6.67791L148.338 5.92409C148.341 5.90407 148.364 5.89073 148.384 5.89407L149.152 6.06751C149.172 6.07085 149.185 6.0942 149.182 6.11421L149.008 6.86804C149.005 6.88805 148.982 6.90139 148.962 6.89806L148.198 6.72461Z" fill="#5E5E5D"/>
<path d="M149.722 6.07084L150.489 6.24429C150.576 6.2643 150.633 6.35103 150.613 6.44109L150.442 7.19491C150.422 7.28164 150.336 7.33834 150.246 7.31833L149.478 7.14488C149.392 7.12487 149.335 7.03814 149.355 6.94809L149.525 6.19426C149.549 6.1042 149.635 6.05083 149.722 6.07084Z" fill="#585857"/>
<path d="M149.508 7.02149C149.488 7.01815 149.475 6.99814 149.478 6.97479L149.648 6.22096C149.652 6.20095 149.675 6.1876 149.695 6.19094L150.462 6.36439C150.482 6.36772 150.496 6.39107 150.492 6.41109L150.322 7.16491C150.319 7.18493 150.295 7.19827 150.275 7.19493L149.508 7.02149Z" fill="#5E5E5D"/>
<path d="M151.033 6.36462L151.8 6.53807C151.887 6.55808 151.944 6.64481 151.924 6.73487L151.754 7.48869C151.734 7.57542 151.647 7.63212 151.557 7.61211L150.79 7.43866C150.703 7.41865 150.646 7.33192 150.666 7.24186L150.836 6.48804C150.86 6.40131 150.946 6.34461 151.033 6.36462Z" fill="#585857"/>
<path d="M150.819 7.31519C150.799 7.31185 150.786 7.2885 150.789 7.26849L150.959 6.51466C150.963 6.49465 150.986 6.48131 151.006 6.48464L151.773 6.65809C151.793 6.66142 151.807 6.68477 151.803 6.70479L151.633 7.45861C151.63 7.47863 151.607 7.49197 151.587 7.48863L150.819 7.31519Z" fill="#5E5E5D"/>
<path d="M152.344 6.65808L153.111 6.83153C153.198 6.85154 153.254 6.93826 153.234 7.02832L153.064 7.78215C153.044 7.86888 152.957 7.92558 152.867 7.90557L152.1 7.73212C152.013 7.7121 151.957 7.62538 151.977 7.53532L152.147 6.78149C152.17 6.69477 152.257 6.63807 152.344 6.65808Z" fill="#585857"/>
<path d="M152.13 7.61206C152.11 7.60873 152.097 7.58538 152.1 7.56536L152.27 6.81154C152.274 6.79152 152.297 6.77818 152.317 6.78152L153.084 6.95496C153.104 6.9583 153.118 6.98165 153.114 7.00166L152.944 7.75215C152.941 7.77217 152.918 7.78551 152.898 7.78217L152.13 7.61206Z" fill="#5E5E5D"/>
<path d="M153.658 6.95488L154.425 7.12832C154.512 7.14834 154.568 7.23506 154.548 7.32512L154.378 8.07895C154.358 8.16567 154.272 8.22237 154.182 8.20236L153.414 8.02891C153.328 8.0089 153.271 7.92218 153.291 7.83212L153.461 7.07829C153.481 6.98823 153.568 6.93486 153.658 6.95488Z" fill="#585857"/>
<path d="M153.441 7.90552C153.421 7.90218 153.408 7.87884 153.411 7.85882L153.581 7.10499C153.584 7.08498 153.608 7.07164 153.628 7.07497L154.395 7.24842C154.415 7.25176 154.428 7.27511 154.425 7.29512L154.255 8.04895C154.252 8.06896 154.228 8.0823 154.208 8.07897L153.441 7.90552Z" fill="#5E5E5D"/>
<path d="M137.647 4.63684L138.414 4.81029C138.501 4.8303 138.558 4.91702 138.538 5.00708L138.368 5.76091C138.348 5.84763 138.261 5.90434 138.171 5.88432L137.404 5.71088C137.317 5.69086 137.26 5.60414 137.28 5.51408L137.451 4.76025C137.471 4.67353 137.561 4.61683 137.647 4.63684Z" fill="#585857"/>
<path d="M137.434 5.5874C137.414 5.58407 137.401 5.56072 137.404 5.54071L137.574 4.78688C137.577 4.76687 137.601 4.75352 137.621 4.75686L138.388 4.93031C138.408 4.93364 138.421 4.95699 138.418 4.977L138.248 5.73083C138.245 5.75084 138.221 5.76419 138.201 5.76085L137.434 5.5874Z" fill="#5E5E5D"/>
<path d="M138.958 4.9303L139.726 5.10374C139.812 5.12375 139.869 5.21048 139.849 5.30054L139.679 6.05437C139.659 6.14109 139.572 6.19779 139.482 6.17778L138.715 6.00433C138.628 5.98432 138.571 5.8976 138.591 5.80754L138.762 5.05371C138.782 4.96699 138.872 4.91028 138.958 4.9303Z" fill="#585857"/>
<path d="M138.745 5.88086C138.725 5.87753 138.712 5.85418 138.715 5.83416L138.885 5.08034C138.889 5.06032 138.912 5.04698 138.932 5.05032L139.699 5.22376C139.719 5.2271 139.732 5.25045 139.729 5.27046L139.559 6.02429C139.556 6.0443 139.532 6.05764 139.512 6.05431L138.745 5.88086Z" fill="#5E5E5D"/>
<path d="M140.269 5.22709L141.037 5.40054C141.123 5.42055 141.18 5.50728 141.16 5.59734L140.99 6.35116C140.97 6.43789 140.883 6.49459 140.793 6.47458L140.026 6.30113C139.939 6.28112 139.882 6.19439 139.903 6.10433L140.076 5.35051C140.096 5.26045 140.183 5.20708 140.269 5.22709Z" fill="#585857"/>
<path d="M140.056 6.17749C140.036 6.17416 140.022 6.15081 140.026 6.13079L140.196 5.37697C140.199 5.35695 140.222 5.34361 140.242 5.34695L141.01 5.52039C141.03 5.52373 141.043 5.54708 141.04 5.56709L140.87 6.32092C140.866 6.34093 140.843 6.35427 140.823 6.35094L140.056 6.17749Z" fill="#5E5E5D"/>
<path d="M141.58 5.52087L142.347 5.69432C142.434 5.71433 142.491 5.80106 142.471 5.89112L142.3 6.64494C142.28 6.73167 142.194 6.78837 142.104 6.76836L141.337 6.59491C141.25 6.5749 141.193 6.48817 141.213 6.39812L141.383 5.64429C141.407 5.55756 141.493 5.50086 141.58 5.52087Z" fill="#585857"/>
<path d="M141.367 6.47144C141.347 6.4681 141.333 6.44475 141.337 6.42474L141.507 5.67091C141.51 5.6509 141.534 5.63756 141.554 5.64089L142.321 5.81434C142.341 5.81767 142.354 5.84102 142.351 5.86104L142.181 6.61487C142.177 6.63488 142.154 6.64822 142.134 6.64489L141.367 6.47144Z" fill="#5E5E5D"/>
<path d="M147.59 6.87162L142.884 5.81426C142.797 5.79425 142.714 5.84762 142.694 5.93434L142.51 6.74487C142.497 6.80491 142.534 6.86495 142.594 6.87829L147.344 7.94566C147.43 7.96567 147.52 7.90897 147.54 7.82225L147.71 7.06842C147.734 6.98169 147.68 6.89163 147.59 6.87162Z" fill="#585857"/>
<path d="M142.641 6.75809L142.821 5.9609C142.824 5.94422 142.844 5.93087 142.861 5.93755L147.567 6.99491C147.587 6.99824 147.601 7.02159 147.597 7.0416L147.427 7.79543C147.424 7.81545 147.4 7.82879 147.38 7.82545L142.641 6.75809Z" fill="#5E5E5D"/>
<path d="M148.138 6.99499L148.905 7.16844C148.992 7.18845 149.049 7.27518 149.029 7.36524L148.858 8.11906C148.838 8.20579 148.752 8.26249 148.662 8.24248L147.894 8.06903C147.808 8.04902 147.751 7.9623 147.771 7.87224L147.941 7.11841C147.961 7.03168 148.048 6.97498 148.138 6.99499Z" fill="#585857"/>
<path d="M147.924 7.94556C147.904 7.94222 147.891 7.91887 147.894 7.89886L148.064 7.14503C148.068 7.12502 148.091 7.11168 148.111 7.11501L148.878 7.28846C148.898 7.2918 148.912 7.31514 148.908 7.33516L148.738 8.08899C148.735 8.109 148.711 8.12234 148.691 8.11901L147.924 7.94556Z" fill="#5E5E5D"/>
<path d="M149.449 7.29179L150.216 7.46524C150.302 7.48525 150.359 7.57197 150.339 7.66203L150.169 8.41586C150.149 8.50258 150.062 8.55929 149.972 8.53928L149.205 8.36583C149.118 8.34582 149.062 8.25909 149.082 8.16903L149.252 7.4152C149.272 7.32514 149.362 7.27178 149.449 7.29179Z" fill="#585857"/>
<path d="M149.235 8.24243C149.215 8.2391 149.202 8.21575 149.205 8.19574L149.375 7.44191C149.379 7.42189 149.402 7.40855 149.422 7.41189L150.189 7.58534C150.209 7.58867 150.223 7.61202 150.219 7.63203L150.049 8.38586C150.046 8.40587 150.022 8.41922 150.002 8.41588L149.235 8.24243Z" fill="#5E5E5D"/>
<path d="M150.759 7.58557L151.526 7.75902C151.613 7.77903 151.67 7.86575 151.65 7.95581L151.48 8.70964C151.46 8.79636 151.373 8.85307 151.283 8.83306L150.516 8.65961C150.429 8.63959 150.372 8.55287 150.392 8.46281L150.562 7.70898C150.582 7.62226 150.672 7.56556 150.759 7.58557Z" fill="#585857"/>
<path d="M150.546 8.53613C150.526 8.5328 150.513 8.50945 150.516 8.48944L150.686 7.73561C150.689 7.7156 150.713 7.70225 150.733 7.70559L151.5 7.87904C151.52 7.88237 151.533 7.90572 151.53 7.92573L151.36 8.67956C151.356 8.69957 151.336 8.71292 151.313 8.70958L150.546 8.53613Z" fill="#5E5E5D"/>
<path d="M152.07 7.87878L152.837 8.05223C152.924 8.07224 152.981 8.15896 152.961 8.24902L152.791 9.00285C152.771 9.08958 152.684 9.14628 152.594 9.12627L151.827 8.95282C151.74 8.93281 151.683 8.84608 151.703 8.75602L151.873 8.0022C151.897 7.91547 151.983 7.85877 152.07 7.87878Z" fill="#585857"/>
<path d="M151.856 8.82959C151.836 8.82626 151.823 8.80291 151.826 8.7829L151.997 8.02907C152 8.00905 152.023 7.99571 152.043 7.99905L152.81 8.17249C152.83 8.17583 152.844 8.19918 152.84 8.21919L152.67 8.97302C152.667 8.99303 152.644 9.00637 152.624 9.00304L151.856 8.82959Z" fill="#5E5E5D"/>
<path d="M153.381 8.17582L154.148 8.34927C154.235 8.36928 154.292 8.45601 154.272 8.54607L154.102 9.29989C154.082 9.38662 153.995 9.44332 153.905 9.42331L153.138 9.24986C153.051 9.22985 152.994 9.14312 153.014 9.05306L153.184 8.29924C153.208 8.20918 153.295 8.15581 153.381 8.17582Z" fill="#585857"/>
<path d="M153.168 9.12647C153.148 9.12313 153.135 9.09978 153.138 9.07977L153.308 8.32594C153.311 8.30593 153.335 8.29259 153.355 8.29592L154.122 8.46937C154.142 8.4727 154.155 8.49605 154.152 8.51607L153.982 9.26989C153.979 9.28991 153.955 9.30325 153.935 9.29991L153.168 9.12647Z" fill="#5E5E5D"/>
<path d="M147.354 8.99957L143.504 8.13567C143.331 8.09564 143.158 8.20571 143.121 8.37916L142.657 10.4372C142.617 10.6106 142.727 10.7841 142.901 10.8208L146.75 11.6847C146.923 11.7247 147.097 11.6146 147.134 11.4412L147.597 9.38315C147.637 9.2097 147.527 9.03959 147.354 8.99957Z" fill="#EDEDED"/>
<path d="M147.384 8.87614L143.534 8.01223C143.294 7.95887 143.054 8.10897 143.001 8.34912L142.537 10.4071C142.484 10.6473 142.634 10.8875 142.874 10.9408L146.723 11.8047C146.963 11.8581 147.204 11.708 147.257 11.4678L147.721 9.40982C147.774 9.16966 147.624 8.93284 147.384 8.87614ZM147.137 11.4412C147.097 11.6146 146.927 11.7247 146.753 11.6846L142.904 10.8207C142.731 10.7807 142.621 10.6106 142.661 10.4372L143.124 8.37914C143.164 8.2057 143.334 8.09562 143.508 8.13565L147.357 8.99955C147.53 9.03958 147.641 9.20969 147.6 9.38313L147.137 11.4412Z" fill="#9D9B9B"/>
<path d="M142.888 9.4231L142.661 10.4371C142.621 10.6105 142.731 10.784 142.904 10.8207L146.754 11.6846C146.927 11.7246 147.1 11.6145 147.137 11.4411L147.364 10.4271L142.888 9.4231Z" fill="#DFDFDE"/>
<path d="M145.109 9.92025L142.888 9.41992L142.661 10.4339C142.621 10.6074 142.731 10.7808 142.904 10.8175L144.812 11.2478L145.109 9.92025Z" fill="#D9D9DA"/>
<path d="M156.59 3.0924L137.691 -1.15705C137.581 -1.18374 137.504 -1.28714 137.514 -1.40055L139.492 -12.2143C139.519 -12.5112 139.799 -12.7146 140.089 -12.6479L159.338 -8.31843C159.629 -8.25171 159.795 -7.94818 159.692 -7.668L156.854 2.94898C156.813 3.05571 156.703 3.11909 156.59 3.0924Z" fill="#E3E1E1"/>
<path d="M138.338 -2.19442L140.163 -11.3238C140.189 -11.6039 140.453 -11.7974 140.726 -11.734L158.368 -7.76809C158.641 -7.70805 158.798 -7.41785 158.701 -7.15435L156.447 1.87492C156.367 2.09506 156.136 2.21848 155.906 2.16844L138.702 -1.70076C138.471 -1.7508 138.318 -1.96427 138.338 -2.19442Z" fill="#C7C7C6"/>
<path d="M138.465 -2.18117L140.289 -11.3172C140.309 -11.5206 140.499 -11.6607 140.699 -11.614L158.348 -7.64476C158.544 -7.6014 158.661 -7.39126 158.591 -7.20113L156.33 1.8348C156.273 1.99491 156.106 2.08497 155.939 2.04827L138.725 -1.82427C138.561 -1.86096 138.448 -2.01439 138.465 -2.18117Z" fill="#C6E6F2"/>
<path d="M153.851 2.4787L140.403 -0.546622L140.409 -0.773438L153.968 2.27523L153.851 2.4787Z" fill="#585857"/>
</g>
<path d="M29.8077 64.9767C28.9108 61.1852 25.1193 58.8468 21.3483 59.7473C17.5721 60.6479 15.2432 64.4548 16.1401 68.2412C16.772 70.902 18.8308 72.8463 21.3075 73.4552C21.4502 73.8339 21.7152 76.1313 22.1891 76.8681C22.4031 77.2007 22.6732 77.257 23.086 77.17C23.4173 78.352 24.8034 79.4368 25.9449 79.3293C26.745 79.2526 27.3259 78.7 27.5858 77.958C27.7896 77.3798 27.9527 76.7146 28.0546 76.0699C28.605 76.0546 28.87 75.9983 28.8445 75.4815C28.7987 74.5861 27.8304 72.1198 27.7947 71.7411C29.5529 70.0679 30.409 67.5198 29.8077 64.9767Z" fill="#FDFFFC"/>
<path d="M26.1538 64.721C26.0468 64.3373 25.6697 64.0814 25.2722 64.1787C24.9002 64.2657 24.6199 64.6801 24.732 65.0639C24.7983 65.2992 24.9715 65.4886 25.1805 65.5756C25.0276 66.5682 24.8339 67.5455 24.7524 68.5484C24.676 69.4797 24.5995 70.3905 24.3957 71.2961C23.2898 69.6332 22.1891 67.9753 20.9712 66.3942C21.3075 66.0719 21.0527 65.3504 20.487 65.4835C19.8195 65.6421 20.0641 66.6859 20.7367 66.5273C20.7418 66.5273 20.7469 66.5222 20.752 66.517C22.0158 68.313 23.2542 70.1346 24.2836 72.079C24.3957 72.2888 24.7014 72.2427 24.7728 72.0278C25.1091 71.0249 25.206 70.0016 25.2773 68.9526C25.3588 67.8218 25.578 66.7115 25.6697 65.5858C26.0111 65.4732 26.2557 65.0843 26.1538 64.721Z" fill="#AEB4FC"/>
<path d="M17.6685 58.54C16.2467 57.8339 14.8198 57.1226 13.398 56.4114C13.1024 56.2681 12.8323 56.6928 13.1279 56.8514C14.514 57.619 15.9052 58.3814 17.2914 59.1489C17.699 59.374 18.0761 58.7447 17.6685 58.54Z" fill="#808AFF"/>
<path d="M20.3441 53.1161C20.2269 52.8552 19.8906 53.0445 19.9161 53.2799C20.0893 54.7535 20.6346 56.2579 21.0627 57.6803C21.1697 58.0283 21.7048 57.9106 21.6181 57.5473C21.2665 56.0839 20.9607 54.4926 20.3441 53.1161Z" fill="#808AFF"/>
<path d="M26.9691 52.6863C26.6022 53.0087 26.378 53.5204 26.1487 53.9502C25.9092 54.4004 25.6951 54.861 25.4913 55.3266C25.3282 55.7052 25.955 55.9048 26.113 55.5159C26.3016 55.04 26.5054 54.5795 26.7398 54.1241C26.9386 53.7301 27.229 53.3464 27.3462 52.9217C27.4125 52.6914 27.1373 52.5328 26.9691 52.6863Z" fill="#808AFF"/>
<defs>
<clipPath id="clip0_319_1004">
<rect width="14" height="17" fill="white" transform="translate(147 24.3394)"/>
</clipPath>
<clipPath id="clip1_319_1004">
<rect width="69" height="12" fill="white" transform="translate(51 117.339)"/>
</clipPath>
<clipPath id="clip2_319_1004">
<rect width="32" height="26" fill="white" transform="translate(132 58.3394)"/>
</clipPath>
<clipPath id="clip3_319_1004">
<rect width="35" height="35" fill="white" transform="translate(34 -16.6606)"/>
</clipPath>
</defs>
</svg>
